<?xml version="1.0" encoding="UTF-8" standalone="no"?>
<svg width="16px" height="18px" viewBox="0 0 16 18" version="1.1" xmlns="http://www.w3.org/2000/svg" xmlns:xlink="http://www.w3.org/1999/xlink">
    <!-- Generator: Sketch 47.1 (45422) - http://www.bohemiancoding.com/sketch -->
    <title>Shape Copy 3</title>
    <desc>Created with Sketch.</desc>
    <defs></defs>
    <g id="Welcome" stroke="none" stroke-width="1" fill="none" fill-rule="evenodd">
        <g id="view-details" transform="translate(-1054.000000, -218.000000)" fill-rule="nonzero" fill="#267CB4">
            <g id="Group" transform="translate(740.000000, 0.000000)">
                <g id="Group-8">
                    <g id="Group-6" transform="translate(50.000000, 58.000000)">
                        <g id="SUB-FILTER-1" transform="translate(72.000000, 160.133333)">
                            <g id="Group-35">
                                <g id="Group-29-Copy" transform="translate(148.000000, 0.000000)">
                                    <path d="M52.0930302,12.1571245 C50.7555031,12.1571245 49.6715924,13.2413931 49.6715924,14.5785623 C49.6715924,15.9160894 50.7556821,17 52.0930302,17 C53.4303783,17 54.5144679,15.9159104 54.5144679,14.5785623 C54.5144679,13.2412141 53.4305573,12.1571245 52.0930302,12.1571245 Z M52.0930302,4.84287549 C53.4305573,4.84287549 54.5144679,3.75878588 54.5144679,2.42143775 C54.5144679,1.08408962 53.4303783,0 52.0930302,0 C50.7556821,0 49.6715924,1.08408962 49.6715924,2.42143775 C49.6715924,3.75896486 50.7555031,4.84287549 52.0930302,4.84287549 Z M58.5734054,7.59668148 C59.7357099,6.93498768 60.1414604,5.45642332 59.4795876,4.29411889 C58.8180728,3.13181445 57.3396874,2.72624287 56.177204,3.38793666 C55.0152576,4.04963046 54.609149,5.52819482 55.2710218,6.69049925 C55.9328946,7.85280369 57.4114589,8.25837527 58.5734054,7.59668148 Z M45.612655,9.40331852 C44.4505295,10.0650123 44.0447789,11.5437557 44.7064727,12.7058811 C45.3679875,13.8680066 46.8467309,14.2737571 48.0086774,13.6120633 C49.1709818,12.9503695 49.5767324,11.4719842 48.9148596,10.3095007 C48.2535238,9.14719631 46.7747804,8.74162473 45.612655,9.40331852 Z M52.0930302,5.40738245 C50.3850118,5.40738245 49.0004126,6.79180266 49.0004126,8.5 C49.0004126,10.2081973 50.3850118,11.5926175 52.0930302,11.5926175 C53.8012275,11.5926175 55.1856477,10.2081973 55.1856477,8.5 C55.1856477,6.79180266 53.8012275,5.40738245 52.0930302,5.40738245 Z M45.6284053,7.48982965 C46.7794339,8.17067444 48.2646206,7.78944432 48.9452864,6.63823672 C49.6261312,5.48685014 49.2447221,4.00202144 48.0936935,3.32135563 C46.9424859,2.64033185 45.4574782,3.02174096 44.7768124,4.17312754 C44.0957886,5.32415616 44.4770187,6.80898486 45.6284053,7.48982965 Z M58.5576551,9.50999137 C57.4064475,8.82914658 55.9216188,9.21055568 55.240774,10.3617633 C54.5597502,11.5127919 54.9411593,12.9979786 56.0923669,13.6784654 C57.2433955,14.3594892 58.7285822,13.978259 59.409248,12.8268725 C60.0902718,11.6756649 59.7088627,10.1908362 58.5576551,9.50999137 Z" id="Shape-Copy-3"></path>
                                </g>
                            </g>
                        </g>
                    </g>
                </g>
            </g>
        </g>
    </g>
</svg>