<?xml version="1.0" encoding="UTF-8" standalone="no"?>
<svg width="26px" height="36px" viewBox="0 0 26 36" version="1.1" xmlns="http://www.w3.org/2000/svg" xmlns:xlink="http://www.w3.org/1999/xlink">
    <!-- Generator: Sketch 47.1 (45422) - http://www.bohemiancoding.com/sketch -->
    <title>noun_1209716_cc</title>
    <desc>Created with Sketch.</desc>
    <defs></defs>
    <g id="Symbols" stroke="none" stroke-width="1" fill="none" fill-rule="evenodd">
        <g id="header" transform="translate(-135.000000, -17.000000)" fill-rule="nonzero" fill="#267CB4">
            <g id="Top-Header">
                <g id="Logo" transform="translate(135.000000, 17.000000)">
                    <g id="noun_1209716_cc">
                        <path d="M11.7818182,33.8493506 C11.9688312,34.0831169 12.2961039,34.2701299 12.6233766,34.2701299 C12.9506494,34.2701299 13.2779221,34.1298701 13.4649351,33.8493506 C15.2883117,31.5584416 21.5064935,23.5636364 24.0779221,17.2987013 C24.1714286,17.0649351 24.0779221,16.7844156 23.8441558,16.6909091 C23.6103896,16.5974026 23.3298701,16.6909091 23.2363636,16.9246753 C20.7116883,23.0493506 14.587013,30.9506494 12.7636364,33.2415584 C12.7168831,33.3350649 12.6233766,33.3350649 12.5298701,33.2415584 C10.5662338,30.8103896 0.935064935,18.4207792 0.935064935,12.6233766 C0.935064935,6.17142857 6.17142857,0.935064935 12.6233766,0.935064935 C19.0753247,0.935064935 24.3116883,6.17142857 24.3116883,12.6233766 C24.3116883,12.9038961 24.4987013,13.0909091 24.7792208,13.0909091 C25.0597403,13.0909091 25.2467532,12.9038961 25.2467532,12.6233766 C25.2467532,5.65714286 19.5896104,0 12.6233766,0 C5.65714286,0 0,5.65714286 0,12.6233766 C0,18.6077922 9.02337662,30.3896104 11.7818182,33.8493506 Z" id="Shape"></path>
                        <path d="M12.6233766,6.07792208 C15.7090909,6.07792208 18.2337662,8.6025974 18.2337662,11.6883117 C18.2337662,11.9688312 18.4207792,12.1558442 18.7012987,12.1558442 C18.9818182,12.1558442 19.1688312,11.9688312 19.1688312,11.6883117 C19.1688312,8.08831169 16.2233766,5.14285714 12.6233766,5.14285714 C9.02337662,5.14285714 6.07792208,8.08831169 6.07792208,11.6883117 C6.07792208,15.2883117 9.02337662,18.2337662 12.6233766,18.2337662 C14.961039,18.2337662 17.1116883,16.9714286 18.2805195,14.961039 C18.4207792,14.7272727 18.3272727,14.4467532 18.0935065,14.3064935 C17.8597403,14.1662338 17.5792208,14.2597403 17.438961,14.4935065 C16.4571429,16.2233766 14.587013,17.2987013 12.5766234,17.2987013 C9.49090909,17.2987013 6.96623377,14.774026 6.96623377,11.6883117 C6.96623377,8.6025974 9.53766234,6.07792208 12.6233766,6.07792208 Z" id="Shape"></path>
                        <path d="M6.31168831,35.0649351 C6.03116883,35.0649351 5.84415584,35.2519481 5.84415584,35.5324675 C5.84415584,35.812987 6.03116883,36 6.31168831,36 L18.9350649,36 C19.2155844,36 19.4025974,35.812987 19.4025974,35.5324675 C19.4025974,35.2519481 19.2155844,35.0649351 18.9350649,35.0649351 L6.31168831,35.0649351 Z" id="Shape"></path>
                    </g>
                </g>
            </g>
        </g>
    </g>
</svg>