<?xml version="1.0" encoding="UTF-8" standalone="no"?>
<svg width="48px" height="37px" viewBox="0 0 48 37" version="1.1" xmlns="http://www.w3.org/2000/svg" xmlns:xlink="http://www.w3.org/1999/xlink">
    <!-- Generator: Sketch 47.1 (45422) - http://www.bohemiancoding.com/sketch -->
    <title>Group 3</title>
    <desc>Created with Sketch.</desc>
    <defs></defs>
    <g id="Symbols" stroke="none" stroke-width="1" fill="none" fill-rule="evenodd">
        <g id="Connected" transform="translate(-5.000000, 0.000000)">
            <g id="Group-3">
                <text id="Connected" font-family="SegoeWP, Segoe WP" font-size="10" font-weight="normal" fill="#29BB9C">
                    <tspan x="5.17473235" y="36">Connected</tspan>
                </text>
                <g id="Group-5" transform="translate(11.000000, 0.000000)" stroke="#29BB9C">
                    <path d="M28.2711077,9.35656321 L28.2711077,9.56663704 L28.2731412,9.56663704 C31.6722781,9.56663704 34.439195,12.333554 34.439195,15.7326909 C34.439195,19.1324017 31.6734354,21.8987447 28.2731412,21.8987447 L6.8743965,21.8987447 C3.47468564,21.8987447 0.708342674,19.1329851 0.708342674,15.7326909 C0.708342674,12.7283465 2.8637751,10.1745246 5.82966884,9.66231981 L5.92689755,9.64541046 L5.91616288,9.54276209 C5.88860784,9.25343415 5.87409416,8.98266348 5.87409416,8.72153351 C5.87409416,4.30304312 9.46820681,0.710073824 13.887285,0.710073824 C17.1125634,0.710073824 20.0161776,2.65883297 21.2609835,5.60658404 L21.46058,5.53642286 C20.1864697,2.50467113 17.2024445,0.5 13.887285,0.5 C9.35393263,0.5 5.66402034,4.18890136 5.66402034,8.72153351 C5.66402034,8.84469583 5.66600401,8.95340069 5.67045906,9.05438187 L5.68836505,9.46025112 L5.29475274,9.56084843 C2.4731622,10.2819753 0.5,12.8104251 0.5,15.7326909 C0.5,19.2488812 3.36216576,22.1105497 6.8778588,22.1105497 L28.2783346,22.1105497 C31.7932906,22.1105497 34.651,19.2513493 34.651,15.734422 C34.651,12.2182317 31.7888342,9.35656321 28.2731412,9.35656321 L28.2711077,9.35656321 Z" id="Path"></path>
                    <polygon id="Path" points="32.5050374 1 34.5458546 2.8216449 21.8338631 16.987 15 9.75251871 16.9869224 7.87518249 21.7763753 12.946685"></polygon>
                </g>
            </g>
        </g>
    </g>
</svg>