<?xml version="1.0" encoding="UTF-8" standalone="no"?>
<svg width="45px" height="49px" viewBox="0 0 45 49" version="1.1" xmlns="http://www.w3.org/2000/svg" xmlns:xlink="http://www.w3.org/1999/xlink">
    <!-- Generator: Sketch 47.1 (45422) - http://www.bohemiancoding.com/sketch -->
    <title>tab-settings-selected</title>
    <desc>Created with Sketch.</desc>
    <defs></defs>
    <g id="Page-1" stroke="none" stroke-width="1" fill="none" fill-rule="evenodd">
        <g id="tab-settings-selected" fill="#FFFFFF">
            <g id="noun_1152314_cc-copy" transform="translate(7.000000, 0.000000)" fill-rule="nonzero">
                <g id="Group">
                    <path d="M1.59036145,18.0722892 L3.28915663,18.0722892 C3.65060241,18.0722892 3.97590361,18.3253012 4.12048193,18.6506024 C4.22891566,19.0120482 4.37349398,19.3373494 4.55421687,19.6626506 C4.69879518,19.9879518 4.6626506,20.3855422 4.40963855,20.6746988 L3.21686747,21.8674699 C2.60240964,22.4819277 2.60240964,23.4939759 3.21686747,24.1084337 L5.56626506,26.4578313 C6.18072289,27.0722892 7.19277108,27.0722892 7.80722892,26.4578313 L9,25.2650602 C9.25301205,25.0120482 9.65060241,24.939759 10.0120482,25.1204819 C10.3373494,25.2650602 10.6987952,25.4096386 11.0240964,25.5542169 C11.3855422,25.6987952 11.6024096,26.0240964 11.6024096,26.3855422 L11.6024096,28.0843373 C11.6024096,28.9518072 12.3253012,29.6746988 13.1927711,29.6746988 L16.5180723,29.6746988 C17.3855422,29.6746988 18.1084337,28.9518072 18.1084337,28.0843373 L18.1084337,26.3855422 C18.1084337,26.0240964 18.3614458,25.6987952 18.686747,25.5542169 C19.0481928,25.4457831 19.373494,25.3012048 19.6987952,25.1204819 C20.0240964,24.9759036 20.4578313,25.0120482 20.7108434,25.2650602 L21.9036145,26.4578313 C22.5180723,27.0722892 23.5301205,27.0722892 24.1445783,26.4578313 L26.4939759,24.1084337 C27.1084337,23.4939759 27.1084337,22.4819277 26.4939759,21.8674699 L25.3012048,20.6746988 C25.0481928,20.4216867 24.9759036,20.0240964 25.1566265,19.6626506 C25.3012048,19.3373494 25.4457831,18.9759036 25.5903614,18.6506024 C25.7349398,18.2891566 26.060241,18.0722892 26.4216867,18.0722892 L28.1204819,18.0722892 C28.9879518,18.0722892 29.7108434,17.3493976 29.7108434,16.4819277 L29.7108434,13.1566265 C29.7108434,12.2891566 28.9879518,11.5662651 28.1204819,11.5662651 L26.4216867,11.5662651 C26.060241,11.5662651 25.7349398,11.313253 25.5903614,10.9879518 C25.4819277,10.626506 25.3373494,10.3012048 25.1566265,9.97590361 C25.0120482,9.65060241 25.0481928,9.25301205 25.3012048,8.96385542 L26.4939759,7.77108434 C27.1084337,7.15662651 27.1084337,6.14457831 26.4939759,5.53012048 L24.1445783,3.18072289 C23.5301205,2.56626506 22.5180723,2.56626506 21.9036145,3.18072289 L20.7108434,4.37349398 C20.4578313,4.62650602 20.060241,4.69879518 19.6987952,4.51807229 C19.373494,4.37349398 19.0120482,4.22891566 18.686747,4.08433735 C18.3253012,3.93975904 18.1084337,3.61445783 18.1084337,3.25301205 L18.1084337,1.55421687 C18.0722892,0.722891566 17.3493976,0 16.4819277,0 L13.1566265,0 C12.2891566,0 11.5662651,0.722891566 11.5662651,1.59036145 L11.5662651,3.28915663 C11.5662651,3.65060241 11.313253,3.97590361 10.9879518,4.12048193 C10.626506,4.22891566 10.3012048,4.37349398 9.97590361,4.55421687 C9.65060241,4.69879518 9.21686747,4.6626506 8.96385542,4.40963855 L7.77108434,3.21686747 C7.15662651,2.60240964 6.14457831,2.60240964 5.53012048,3.21686747 L3.18072289,5.56626506 C2.56626506,6.18072289 2.56626506,7.19277108 3.18072289,7.80722892 L4.37349398,9 C4.62650602,9.25301205 4.69879518,9.65060241 4.51807229,10.0120482 C4.37349398,10.3373494 4.22891566,10.6987952 4.08433735,11.0240964 C3.93975904,11.3855422 3.61445783,11.6024096 3.25301205,11.6024096 L1.55421687,11.6024096 C0.722891566,11.5662651 0,12.2891566 0,13.1566265 L0,16.4819277 C0,17.3493976 0.722891566,18.0722892 1.59036145,18.0722892 Z M0.722891566,13.1566265 C0.722891566,12.686747 1.12048193,12.2891566 1.59036145,12.2891566 L3.28915663,12.2891566 C3.93975904,12.2891566 4.55421687,11.8554217 4.77108434,11.2048193 C4.87951807,10.8795181 5.02409639,10.5542169 5.1686747,10.2650602 C5.45783133,9.65060241 5.34939759,8.92771084 4.87951807,8.45783133 L3.68674699,7.26506024 C3.36144578,6.93975904 3.36144578,6.39759036 3.68674699,6.03614458 L6.03614458,3.68674699 C6.36144578,3.36144578 6.90361446,3.36144578 7.26506024,3.68674699 L8.45783133,4.87951807 C8.92771084,5.34939759 9.65060241,5.45783133 10.2650602,5.1686747 C10.5903614,5.02409639 10.8795181,4.87951807 11.2048193,4.77108434 C11.8554217,4.55421687 12.2891566,3.93975904 12.2891566,3.28915663 L12.2891566,1.59036145 C12.2891566,1.12048193 12.686747,0.722891566 13.1566265,0.722891566 L16.4819277,0.722891566 C16.9518072,0.722891566 17.3493976,1.12048193 17.3493976,1.59036145 L17.3493976,3.28915663 C17.3493976,3.93975904 17.7831325,4.55421687 18.4337349,4.77108434 C18.7590361,4.87951807 19.0843373,5.02409639 19.373494,5.1686747 C19.9879518,5.45783133 20.7108434,5.34939759 21.1807229,4.87951807 L22.373494,3.68674699 C22.6987952,3.36144578 23.2409639,3.36144578 23.6024096,3.68674699 L25.9518072,6.03614458 C26.2771084,6.36144578 26.2771084,6.90361446 25.9518072,7.26506024 L24.7590361,8.45783133 C24.2891566,8.92771084 24.1807229,9.65060241 24.4698795,10.2650602 C24.6144578,10.5903614 24.7590361,10.8795181 24.8674699,11.2048193 C25.0843373,11.8554217 25.6987952,12.2891566 26.3493976,12.2891566 L28.0481928,12.2891566 C28.5180723,12.2891566 28.9156627,12.686747 28.9156627,13.1566265 L28.9156627,16.4819277 C28.9156627,16.9518072 28.5180723,17.3493976 28.0481928,17.3493976 L26.3493976,17.3493976 C25.6987952,17.3493976 25.0843373,17.7831325 24.8674699,18.4337349 C24.7590361,18.7590361 24.6144578,19.0843373 24.4698795,19.373494 C24.1807229,19.9879518 24.2891566,20.7108434 24.7590361,21.1807229 L25.9518072,22.373494 C26.2771084,22.6987952 26.2771084,23.2409639 25.9518072,23.6024096 L23.6024096,25.9518072 C23.2771084,26.2771084 22.7349398,26.2771084 22.373494,25.9518072 L21.1807229,24.7590361 C20.7108434,24.2891566 19.9879518,24.1807229 19.373494,24.4698795 C19.0481928,24.6144578 18.7590361,24.7590361 18.4337349,24.8674699 C17.7831325,25.0843373 17.3493976,25.6987952 17.3493976,26.3493976 L17.3493976,28.0481928 C17.3493976,28.5180723 16.9518072,28.9156627 16.4819277,28.9156627 L13.1566265,28.9156627 C12.686747,28.9156627 12.2891566,28.5180723 12.2891566,28.0481928 L12.2891566,26.3493976 C12.2891566,25.6987952 11.8554217,25.0843373 11.2048193,24.8674699 C10.8795181,24.7590361 10.5542169,24.6144578 10.2650602,24.4698795 C10.0481928,24.3614458 9.79518072,24.3253012 9.57831325,24.3253012 C9.18072289,24.3253012 8.74698795,24.4698795 8.45783133,24.7951807 L7.26506024,25.9879518 C6.93975904,26.313253 6.39759036,26.313253 6.03614458,25.9879518 L3.68674699,23.6385542 C3.36144578,23.313253 3.36144578,22.7710843 3.68674699,22.4096386 L4.87951807,21.2168675 C5.34939759,20.746988 5.45783133,20.0240964 5.1686747,19.4096386 C5.02409639,19.0843373 4.87951807,18.7951807 4.77108434,18.4698795 C4.55421687,17.8192771 3.93975904,17.3855422 3.28915663,17.3855422 L1.59036145,17.3855422 C1.12048193,17.3855422 0.722891566,16.9879518 0.722891566,16.5180723 L0.722891566,13.1566265 Z" id="Shape"></path>
                    <path d="M14.8192771,21.5060241 C18.5060241,21.5060241 21.5060241,18.5060241 21.5060241,14.8192771 C21.5060241,11.1325301 18.5060241,8.13253012 14.8192771,8.13253012 C11.1325301,8.13253012 8.13253012,11.1325301 8.13253012,14.8192771 C8.13253012,18.5060241 11.1325301,21.5060241 14.8192771,21.5060241 Z M14.8192771,8.85542169 C18.1084337,8.85542169 20.7831325,11.5301205 20.7831325,14.8192771 C20.7831325,18.1084337 18.1084337,20.7831325 14.8192771,20.7831325 C11.5301205,20.7831325 8.85542169,18.1084337 8.85542169,14.8192771 C8.85542169,11.5301205 11.5301205,8.85542169 14.8192771,8.85542169 Z" id="Shape"></path>
                </g>
            </g>
            <g id="SETTINGS" transform="translate(0.000000, 37.000000)">
                <path d="M0.725097657,10.7216797 L0.725097657,9.52539062 C0.832520069,9.62304736 0.960285718,9.71093711 1.10839844,9.7890625 C1.25651116,9.86718789 1.41357339,9.9331052 1.57958984,9.98681641 C1.7456063,10.0405276 1.91162026,10.0820311 2.07763672,10.1113281 C2.24365317,10.1406251 2.39664644,10.1552734 2.53662109,10.1552734 C3.02490479,10.1552734 3.38867068,10.073894 3.62792969,9.91113281 C3.8671887,9.74837158 3.98681641,9.51237134 3.98681641,9.203125 C3.98681641,9.03710854 3.9469405,8.89306702 3.8671875,8.77099609 C3.7874345,8.64892517 3.67594473,8.5374354 3.53271484,8.43652344 C3.38948496,8.33561147 3.22102961,8.23877 3.02734375,8.14599609 C2.83365789,8.05322219 2.62614043,7.95638071 2.40478516,7.85546875 C2.16715376,7.72851499 1.94580181,7.59993555 1.74072266,7.46972656 C1.53564351,7.33951758 1.35742263,7.19547605 1.20605469,7.03759766 C1.05468674,6.87971926 0.935872827,6.70149839 0.849609375,6.50292969 C0.763345923,6.30436099 0.720214844,6.07161592 0.720214844,5.8046875 C0.720214844,5.47590981 0.794270093,5.19026814 0.942382813,4.94775391 C1.09049553,4.70523967 1.28580608,4.50504636 1.52832031,4.34716797 C1.77083455,4.18928958 2.04671069,4.07210325 2.35595703,3.99560547 C2.66520337,3.91910769 2.98095542,3.88085938 3.30322266,3.88085938 C4.03564819,3.88085938 4.56949702,3.96386636 4.90478516,4.12988281 L4.90478516,5.27734375 C4.50764775,4.99088398 3.99658516,4.84765625 3.37158203,4.84765625 C3.19905513,4.84765625 3.0273446,4.86393213 2.85644531,4.89648438 C2.68554602,4.92903662 2.53255276,4.98274702 2.39746094,5.05761719 C2.26236912,5.13248735 2.15250693,5.22851504 2.06787109,5.34570312 C1.98323525,5.46289121 1.94091797,5.60449136 1.94091797,5.77050781 C1.94091797,5.92675859 1.97346973,6.06184839 2.03857422,6.17578125 C2.10367871,6.28971411 2.1988926,6.39387974 2.32421875,6.48828125 C2.4495449,6.58268276 2.60253816,6.67464148 2.78320313,6.76416016 C2.96386809,6.85367883 3.17301314,6.95052031 3.41064453,7.0546875 C3.65478638,7.18164126 3.88509006,7.31510347 4.1015625,7.45507812 C4.31803494,7.59505278 4.50846272,7.74967363 4.67285156,7.91894531 C4.83724041,8.08821699 4.96744744,8.27620339 5.06347656,8.48291016 C5.15950569,8.68961692 5.20751953,8.92480337 5.20751953,9.18847656 C5.20751953,9.54329604 5.13590566,9.84277222 4.99267578,10.0869141 C4.8494459,10.3310559 4.65657673,10.5296216 4.4140625,10.6826172 C4.17154827,10.8356127 3.89241694,10.9462887 3.57666016,11.0146484 C3.26090337,11.0830082 2.92724785,11.1171875 2.57568359,11.1171875 C2.45849551,11.1171875 2.31445398,11.1082358 2.14355469,11.090332 C1.9726554,11.0724283 1.7976897,11.0463869 1.61865234,11.012207 C1.43961499,10.9780272 1.27034585,10.9365237 1.11083984,10.8876953 C0.951333838,10.8388669 0.822754395,10.783529 0.725097657,10.7216797 Z M10.4223633,11 L6.49169922,11 L6.49169922,3.99804688 L10.2661133,3.99804688 L10.2661133,4.984375 L7.65380859,4.984375 L7.65380859,6.96679688 L10.0610352,6.96679688 L10.0610352,7.94824219 L7.65380859,7.94824219 L7.65380859,10.0185547 L10.4223633,10.0185547 L10.4223633,11 Z M16.159668,4.984375 L14.1479492,4.984375 L14.1479492,11 L12.9858398,11 L12.9858398,4.984375 L10.9790039,4.984375 L10.9790039,3.99804688 L16.159668,3.99804688 L16.159668,4.984375 Z M21.6772461,4.984375 L19.6655273,4.984375 L19.6655273,11 L18.503418,11 L18.503418,4.984375 L16.496582,4.984375 L16.496582,3.99804688 L21.6772461,3.99804688 L21.6772461,4.984375 Z M23.8647461,3.99804688 L23.8647461,11 L22.7026367,11 L22.7026367,3.99804688 L23.8647461,3.99804688 Z M31.5307617,11 L30.2612305,11 L26.9165039,5.85351562 C26.8318681,5.72330664 26.7618818,5.58821685 26.706543,5.44824219 L26.6772461,5.44824219 C26.7032879,5.59798252 26.7163086,5.91861733 26.7163086,6.41015625 L26.7163086,11 L25.5932617,11 L25.5932617,3.99804688 L26.9458008,3.99804688 L30.1782227,9.02246094 C30.3149421,9.23079531 30.4028318,9.37402305 30.4418945,9.45214844 L30.4614258,9.45214844 C30.4288735,9.26660063 30.4125977,8.95247617 30.4125977,8.50976562 L30.4125977,3.99804688 L31.5307617,3.99804688 L31.5307617,11 Z M38.7280273,10.5214844 C37.998857,10.9186218 37.1866907,11.1171875 36.2915039,11.1171875 C35.2563425,11.1171875 34.4181347,10.7949251 33.7768555,10.1503906 C33.1355762,9.50585615 32.8149414,8.6530001 32.8149414,7.59179688 C32.8149414,6.50780708 33.1656866,5.6183303 33.8671875,4.92333984 C34.5686884,4.22834939 35.4597928,3.88085938 36.5405273,3.88085938 C37.318526,3.88085938 37.9728164,3.99479053 38.503418,4.22265625 L38.503418,5.41894531 C37.9663059,5.06087061 37.3266639,4.88183594 36.5844727,4.88183594 C35.8390262,4.88183594 35.227867,5.12760171 34.7509766,5.61914062 C34.2740862,6.11067954 34.0356445,6.74706641 34.0356445,7.52832031 C34.0356445,8.33236079 34.2407206,8.96467869 34.6508789,9.42529297 C35.0610372,9.88590725 35.6176723,10.1162109 36.3208008,10.1162109 C36.802574,10.1162109 37.2192365,10.0234384 37.5708008,9.83789062 L37.5708008,8.17285156 L36.0961914,8.17285156 L36.0961914,7.19628906 L38.7280273,7.19628906 L38.7280273,10.5214844 Z M39.9145508,10.7216797 L39.9145508,9.52539062 C40.0219732,9.62304736 40.1497388,9.71093711 40.2978516,9.7890625 C40.4459643,9.86718789 40.6030265,9.9331052 40.769043,9.98681641 C40.9350594,10.0405276 41.1010734,10.0820311 41.2670898,10.1113281 C41.4331063,10.1406251 41.5860996,10.1552734 41.7260742,10.1552734 C42.2143579,10.1552734 42.5781238,10.073894 42.8173828,9.91113281 C43.0566418,9.74837158 43.1762695,9.51237134 43.1762695,9.203125 C43.1762695,9.03710854 43.1363936,8.89306702 43.0566406,8.77099609 C42.9768876,8.64892517 42.8653979,8.5374354 42.722168,8.43652344 C42.5789381,8.33561147 42.4104827,8.23877 42.2167969,8.14599609 C42.023111,8.05322219 41.8155936,7.95638071 41.5942383,7.85546875 C41.3566069,7.72851499 41.1352549,7.59993555 40.9301758,7.46972656 C40.7250966,7.33951758 40.5468758,7.19547605 40.3955078,7.03759766 C40.2441399,6.87971926 40.125326,6.70149839 40.0390625,6.50292969 C39.952799,6.30436099 39.909668,6.07161592 39.909668,5.8046875 C39.909668,5.47590981 39.9837232,5.19026814 40.1318359,4.94775391 C40.2799487,4.70523967 40.4752592,4.50504636 40.7177734,4.34716797 C40.9602877,4.18928958 41.2361638,4.07210325 41.5454102,3.99560547 C41.8546565,3.91910769 42.1704085,3.88085938 42.4926758,3.88085938 C43.2251013,3.88085938 43.7589501,3.96386636 44.0942383,4.12988281 L44.0942383,5.27734375 C43.6971009,4.99088398 43.1860383,4.84765625 42.5610352,4.84765625 C42.3885083,4.84765625 42.2167977,4.86393213 42.0458984,4.89648438 C41.8749991,4.92903662 41.7220059,4.98274702 41.5869141,5.05761719 C41.4518222,5.13248735 41.3419601,5.22851504 41.2573242,5.34570312 C41.1726884,5.46289121 41.1303711,5.60449136 41.1303711,5.77050781 C41.1303711,5.92675859 41.1629229,6.06184839 41.2280273,6.17578125 C41.2931318,6.28971411 41.3883457,6.39387974 41.5136719,6.48828125 C41.638998,6.58268276 41.7919913,6.67464148 41.9726563,6.76416016 C42.1533212,6.85367883 42.3624663,6.95052031 42.6000977,7.0546875 C42.8442395,7.18164126 43.0745432,7.31510347 43.2910156,7.45507812 C43.5074881,7.59505278 43.6979158,7.74967363 43.8623047,7.91894531 C44.0266935,8.08821699 44.1569006,8.27620339 44.2529297,8.48291016 C44.3489588,8.68961692 44.3969727,8.92480337 44.3969727,9.18847656 C44.3969727,9.54329604 44.3253588,9.84277222 44.1821289,10.0869141 C44.038899,10.3310559 43.8460299,10.5296216 43.6035156,10.6826172 C43.3610014,10.8356127 43.0818701,10.9462887 42.7661133,11.0146484 C42.4503565,11.0830082 42.116701,11.1171875 41.7651367,11.1171875 C41.6479486,11.1171875 41.5039071,11.1082358 41.3330078,11.090332 C41.1621085,11.0724283 40.9871428,11.0463869 40.8081055,11.012207 C40.6290681,10.9780272 40.459799,10.9365237 40.300293,10.8876953 C40.140787,10.8388669 40.0122075,10.783529 39.9145508,10.7216797 Z"></path>
            </g>
        </g>
    </g>
</svg>