<?xml version="1.0" encoding="UTF-8" standalone="no"?>
<svg width="32px" height="48px" viewBox="0 0 32 48" version="1.1" xmlns="http://www.w3.org/2000/svg" xmlns:xlink="http://www.w3.org/1999/xlink">
    <!-- Generator: Sketch 47.1 (45422) - http://www.bohemiancoding.com/sketch -->
    <title>tab-map-selected</title>
    <desc>Created with Sketch.</desc>
    <defs></defs>
    <g id="Page-1" stroke="none" stroke-width="1" fill="none" fill-rule="evenodd">
        <g id="tab-map-selected" fill="#FFFFFF">
            <g id="noun_1152314_cc" fill-rule="nonzero">
                <g id="Group">
                    <path d="M15.9886364,0.13168 C12.1865585,0.13168 9.09090909,3.07868 9.09090909,6.94985818 C9.09090909,7.86422182 9.33139891,9.12153091 9.63636364,9.92713091 C11.6390862,14.1050582 13.6580738,18.2845818 15.6704545,22.4612 C15.7867469,22.7103636 16.2132531,22.7103636 16.3295455,22.4612 C18.3137851,18.2714545 20.3977564,14.1222218 22.3636364,9.92713091 C22.6706073,9.12044 22.9090909,7.86411273 22.9090909,6.94985818 C22.8875636,2.57332 19.34728,0.131687273 15.9886364,0.13168 Z M15.9886364,0.858952727 C19.4171164,0.858952727 22.1818182,3.46488364 22.1818182,6.94985818 C22.1818182,7.71582182 21.94796,8.95738545 21.6931818,9.64305818 C19.7174655,13.7628764 17.6979993,17.9474909 16,21.4725818 C14.1288484,17.5171636 12.16074,13.6057855 10.3068182,9.64305818 C10.0530702,8.95673091 9.81818182,7.71498545 9.81818182,6.94985818 C9.81818182,3.46380727 12.5601985,0.858952727 15.9886364,0.858952727 Z M16,3.04077091 C13.7952102,3.04077091 12,4.83595636 12,7.04076727 C12,9.24553091 13.7952055,11.0407673 16,11.0407673 C18.2048436,11.0407673 20,9.24553091 20,7.04076727 C20,4.83596 18.2048389,3.04077091 16,3.04077091 Z M16,3.76804364 C17.8117865,3.76804364 19.2727273,5.22901455 19.2727273,7.04076727 C19.2727273,8.85247636 17.8117818,10.3134945 16,10.3134945 C14.1882782,10.3134945 12.7272727,8.85247636 12.7272727,7.04076727 C12.7272727,5.22901818 14.1882735,3.76804364 16,3.76804364 Z M2.90909091,14.6771273 C2.69428618,14.6771273 2.56580436,14.8166545 2.54545455,14.9839636 L0.363636364,29.5293818 C0.330690909,29.7377091 0.516379636,29.9524 0.727272691,29.9498545 L31.2727273,29.9498545 C31.4836218,29.9534909 31.6693091,29.7377091 31.6363636,29.5293818 L29.4545455,14.9839636 C29.4275273,14.8132 29.2637709,14.6750182 29.0909091,14.6771273 L21.3068182,14.6771273 C21.1890655,14.9203273 21.0724982,15.1614182 20.9545455,15.4044 L28.7727273,15.4044 L29.3181818,19.0407636 L19.25,19.0407636 L18.875,19.6771273 L26.5113636,29.2225818 L14.7159091,29.2225818 L9.875,23.1657455 L13.375,20.2112 C13.263092,19.9793091 13.1460269,19.7499636 13.0340909,19.5180364 L9.40909091,22.5862182 L3.67045455,15.4044 L11.0568182,15.4044 C10.9397945,15.1617091 10.8215105,14.9198545 10.7045455,14.6771273 L2.90909091,14.6771273 L2.90909091,14.6771273 Z M3.14772727,15.9271273 L13.7840909,29.2225818 L1.14772724,29.2225818 L3.14772727,15.9271273 Z M19.8863636,19.7680364 L29.4318182,19.7680364 L30.0909091,24.1316727 L23.375,24.1316727 L19.8863636,19.7680364 Z M23.9545455,24.8589455 L30.1931818,24.8589455 L30.8522727,29.2225818 L27.4431818,29.2225818 L23.9545455,24.8589455 Z" id="Shape"></path>
                </g>
            </g>
            <g id="MAP" transform="translate(6.000000, 40.000000)">
                <path d="M7.98291015,8 L6.8305664,8 L6.8305664,3.46875 C6.8305664,3.09765439 6.85335263,2.64355737 6.89892578,2.10644531 L6.87939453,2.10644531 C6.80777959,2.41243643 6.74430366,2.63216079 6.68896484,2.765625 L4.59912109,8 L3.79833984,8 L1.70361328,2.8046875 C1.64501923,2.65169194 1.58317089,2.41894687 1.5180664,2.10644531 L1.49853515,2.10644531 C1.52457695,2.38639463 1.53759765,2.84374683 1.53759765,3.47851562 L1.53759765,8 L0.463378902,8 L0.463378902,0.998046875 L2.09912109,0.998046875 L3.9399414,5.66113281 C4.07991606,6.01920752 4.17106098,6.28613193 4.2133789,6.46191406 L4.23779297,6.46191406 C4.35823628,6.09407368 4.45589155,5.82063892 4.53076171,5.64160156 L6.40576171,0.998046875 L7.98291015,0.998046875 L7.98291015,8 Z M15.4584961,8 L14.184082,8 L13.5541992,6.21777344 L10.800293,6.21777344 L10.1948242,8 L8.92529297,8 L11.5473633,0.998046875 L12.855957,0.998046875 L15.4584961,8 Z M13.246582,5.27050781 L12.2749023,2.47753906 C12.2456053,2.38639277 12.2146811,2.23990986 12.1821289,2.03808594 L12.1625977,2.03808594 C12.1333006,2.22363374 12.1007489,2.37011665 12.0649414,2.47753906 L11.1030273,5.27050781 L13.246582,5.27050781 Z M17.5776367,5.4609375 L17.5776367,8 L16.4204102,8 L16.4204102,0.998046875 L18.5444336,0.998046875 C19.3484741,0.998046875 19.9718402,1.18521948 20.4145508,1.55957031 C20.8572613,1.93392114 21.0786133,2.46125962 21.0786133,3.14160156 C21.0786133,3.82194351 20.8474958,4.37857856 20.3852539,4.81152344 C19.923012,5.24446831 19.2980183,5.4609375 18.5102539,5.4609375 L17.5776367,5.4609375 Z M17.5776367,1.95507812 L17.5776367,4.51367188 L18.3295898,4.51367188 C18.8276392,4.51367188 19.2068672,4.39811313 19.4672852,4.16699219 C19.7277031,3.93587124 19.8579102,3.61035366 19.8579102,3.19042969 C19.8579102,2.36685786 19.3793993,1.95507812 18.4223633,1.95507812 L17.5776367,1.95507812 Z"></path>
            </g>
        </g>
    </g>
</svg>