<?xml version="1.0" encoding="UTF-8" standalone="no"?>
<svg width="35px" height="32px" viewBox="0 0 35 32" version="1.1" xmlns="http://www.w3.org/2000/svg" xmlns:xlink="http://www.w3.org/1999/xlink">
    <!-- Generator: Sketch 45.2 (43514) - http://www.bohemiancoding.com/sketch -->
    <title>Group</title>
    <desc>Created with Sketch.</desc>
    <defs></defs>
    <g id="Page-1" stroke="none" stroke-width="1" fill="none" fill-rule="evenodd" opacity="0.8">
        <g id="Simulate-Your-Data" transform="translate(-206.000000, -465.000000)" fill-rule="nonzero" fill="#FFFFFF">
            <g id="Group-4" transform="translate(170.000000, 318.000000)">
                <g id="Step-1">
                    <g id="Group" transform="translate(0.000000, 126.000000)">
                        <g transform="translate(36.000000, 21.000000)" id="Shape">
                            <path d="M4.02051282,31.6717949 L31.3025641,31.6717949 C33.3128205,31.6717949 34.9538462,30.0307692 34.9538462,28.0615385 L34.9538462,15.6307692 C34.9538462,15.3025641 34.6666667,15.0153846 34.3384615,15.0153846 C34.0102564,15.0153846 33.7230769,15.3025641 33.7230769,15.6307692 L33.7230769,28.0615385 C33.7230769,29.374359 32.6153846,30.4410256 31.3025641,30.4410256 L4.02051282,30.4410256 C2.66666667,30.4410256 1.6,29.374359 1.6,28.0615385 L1.6,15.6307692 C1.6,15.3025641 1.31282051,15.0153846 0.984615385,15.0153846 C0.656410256,15.0153846 0.369230769,15.3025641 0.369230769,15.6307692 L0.369230769,28.0615385 C0.369230769,30.0717949 2.01025641,31.6717949 4.02051282,31.6717949 Z"></path>
                            <path d="M17.2717949,0.328205128 C16.9435897,0.328205128 16.6564103,0.615384615 16.6564103,0.943589744 L16.6564103,25.1487179 L10.2564103,19.6102564 C10.0102564,19.4051282 9.6,19.4051282 9.39487179,19.6923077 C9.18974359,19.9384615 9.18974359,20.3487179 9.47692308,20.5538462 L16.9435897,26.9538462 C16.9435897,26.9538462 16.9435897,26.9538462 16.9435897,26.9538462 C16.9846154,26.9948718 17.0666667,27.0358974 17.1076923,27.0358974 C17.1076923,27.0358974 17.1076923,27.0358974 17.1487179,27.0358974 C17.1897436,27.0358974 17.2717949,27.0769231 17.3538462,27.0769231 C17.4358974,27.0769231 17.4769231,27.0769231 17.5589744,27.0358974 C17.5589744,27.0358974 17.5589744,27.0358974 17.6,27.0358974 C17.6410256,26.9948718 17.7230769,26.9948718 17.7641026,26.9538462 C17.7641026,26.9538462 17.7641026,26.9538462 17.7641026,26.9538462 L25.2307692,20.5538462 C25.4769231,20.3487179 25.5179487,19.9384615 25.3128205,19.6923077 C25.1076923,19.4461538 24.6974359,19.4051282 24.4512821,19.6102564 L17.8871795,25.1076923 L17.8871795,0.902564103 C17.8871795,0.574358974 17.6410256,0.328205128 17.2717949,0.328205128 Z"></path>
                        </g>
                    </g>
                </g>
            </g>
        </g>
    </g>
</svg>