<?xml version="1.0" encoding="UTF-8" standalone="no"?>
<svg width="45px" height="48px" viewBox="0 0 45 48" version="1.1" xmlns="http://www.w3.org/2000/svg" xmlns:xlink="http://www.w3.org/1999/xlink">
    <!-- Generator: Sketch 45.2 (43514) - http://www.bohemiancoding.com/sketch -->
    <title>Icon</title>
    <desc>Created with Sketch.</desc>
    <defs></defs>
    <g id="Page-1" stroke="none" stroke-width="1" fill="none" fill-rule="evenodd">
        <g id="Data-Packet-Designer-Home-Page" transform="translate(-170.000000, -26.000000)" fill="#00ABF0">
            <g id="Top-Header">
                <g id="Logo" transform="translate(170.000000, 26.000000)">
                    <g id="Icon">
                        <path d="M39.2521429,24 C41.83,21.3191642 43.5935714,18.6662687 44.2157143,16.3379104 C44.6457143,14.7309851 44.5228571,13.3346866 43.8557143,12.1791045 C42.7228571,10.2204179 40.1564286,9.18447761 36.4342857,9.18447761 C34.6871429,9.18447761 32.7678571,9.41731343 30.7535714,9.85074627 C28.9035714,4.0520597 25.9235714,0.358208955 22.5,0.358208955 C19.0764286,0.358208955 16.0964286,4.0520597 14.2492857,9.8478806 C12.235,9.41444776 10.3178571,9.18161194 8.56857143,9.18161194 C4.84357143,9.18161194 2.27714286,10.2175522 1.14642857,12.1762388 C0.48,13.3289552 0.36,14.7288358 0.787142857,16.3350448 C1.40928571,18.6662687 3.17,21.3191642 5.74785714,24 C3.17,26.6808358 1.40642857,29.336597 0.784285714,31.6620896 C0.354285714,33.2690149 0.477142857,34.6681791 1.14428571,35.8208955 C2.27714286,37.7795821 4.84357143,38.8155224 8.56571429,38.8155224 L8.56571429,38.8155224 C10.3128571,38.8155224 12.2321429,38.5826866 14.2464286,38.1521194 C16.0964286,43.9479403 19.0764286,47.641791 22.5,47.641791 C25.9235714,47.641791 28.9035714,43.9479403 30.7507143,38.1521194 C32.765,38.5855522 34.685,38.8183881 36.4314286,38.8183881 C40.1535714,38.8183881 42.7207143,37.7824478 43.8535714,35.8237612 C44.52,34.6710448 44.64,33.2711642 44.2128571,31.6649552 C43.5907143,29.336597 41.83,26.6808358 39.2521429,24 L39.2521429,24 Z M36.4314286,10.2562388 C39.7042857,10.2562388 42.0114286,11.1295522 42.9271429,12.7164179 C43.4457143,13.614806 43.5292857,14.7367164 43.1778571,16.057791 C42.6085714,18.1905672 40.9371429,20.6865672 38.4907143,23.2305672 C36.7635714,21.5369552 34.7235714,19.8440597 32.4357143,18.2263881 C32.1571429,15.5598806 31.685,13.0832239 31.0571429,10.8780896 C32.9657143,10.4718806 34.7792857,10.2562388 36.4314286,10.2562388 L36.4314286,10.2562388 Z M27.0842857,31.9250149 C25.58,32.792597 24.0428571,33.5734925 22.5,34.2648358 C20.9571429,33.5734925 19.42,32.792597 17.9157143,31.9250149 C16.4064286,31.0552836 14.9578571,30.1318209 13.5907143,29.1797015 C13.4235714,27.5090149 13.3342857,25.7767164 13.3342857,24 C13.3342857,22.2232836 13.4264286,20.4881194 13.5907143,18.8202985 C14.9578571,17.8681791 16.4035714,16.9447164 17.9157143,16.0749851 C19.42,15.207403 20.9571429,14.4265075 22.4971429,13.7351642 C24.04,14.4265075 25.5778571,15.207403 27.0814286,16.0749851 C28.5907143,16.9447164 30.0392857,17.8681791 31.4035714,18.8202985 C31.5707143,20.4909851 31.66,22.2254328 31.66,24 C31.66,25.7767164 31.5678571,27.5090149 31.4035714,29.1797015 C30.0392857,30.1318209 28.5935714,31.0524179 27.0842857,31.9250149 L27.0842857,31.9250149 Z M31.2471429,30.5903284 C30.9571429,32.849194 30.5192857,34.9647761 29.9692857,36.8733134 C27.98,36.3832836 25.9071429,35.6976716 23.825,34.8358209 C25.1035714,34.2340299 26.37,33.5734925 27.6142857,32.854209 C28.8785714,32.1299104 30.0864286,31.3683582 31.2471429,30.5903284 L31.2471429,30.5903284 Z M21.175,34.8358209 C19.0928571,35.6976716 17.02,36.3832836 15.0307143,36.8733134 C14.4807143,34.9619104 14.0428571,32.849194 13.7528571,30.5874627 C14.9135714,31.3654925 16.1214286,32.1270448 17.3857143,32.854209 C18.6271429,33.5734925 19.8964286,34.2340299 21.175,34.8358209 L21.175,34.8358209 Z M12.4328571,28.3486567 C10.505,26.9330149 8.76428571,25.4636418 7.27142857,24 C8.76642857,22.5334925 10.5078571,21.0641194 12.4357143,19.6484776 C12.3271429,21.0562388 12.2685714,22.5084179 12.2685714,24 C12.2657143,25.4915821 12.3242857,26.9437612 12.4328571,28.3486567 L12.4328571,28.3486567 Z M13.7528571,17.4096716 C14.0428571,15.150806 14.4807143,13.0352239 15.0307143,11.1266866 C17.02,11.6167164 19.0928571,12.3023284 21.175,13.1641791 C19.8964286,13.7659701 18.63,14.4265075 17.3857143,15.145791 C16.1214286,15.8700896 14.9135714,16.6316418 13.7528571,17.4096716 L13.7528571,17.4096716 Z M23.8278571,13.1641791 C25.9092857,12.305194 27.9828571,11.6167164 29.9721429,11.1266866 C30.5214286,13.0352239 30.96,15.150806 31.25,17.4096716 C30.0892857,16.6316418 28.8814286,15.8700896 27.62,15.1429254 C26.3728571,14.4265075 25.1035714,13.7631045 23.8278571,13.1641791 L23.8278571,13.1641791 Z M32.5671429,19.6484776 C34.495,21.0641194 36.2357143,22.5334925 37.7314286,24 C36.2357143,25.4665075 34.495,26.9358806 32.5671429,28.3515224 C32.6757143,26.9437612 32.7342857,25.4915821 32.7342857,24.0028657 C32.7342857,22.5084179 32.6757143,21.0562388 32.5671429,19.6484776 L32.5671429,19.6484776 Z M22.5,1.43283582 C25.36,1.43283582 27.9607143,4.86089552 29.6571429,10.1000597 C27.3378571,10.673194 24.9164286,11.5071045 22.5,12.5623881 C20.0835714,11.5071045 17.6621429,10.673194 15.3428571,10.1000597 C17.0392857,4.86089552 19.64,1.43283582 22.5,1.43283582 L22.5,1.43283582 Z M2.07,12.7164179 C2.98857143,11.1295522 5.29285714,10.2562388 8.56571429,10.2562388 C10.2178571,10.2562388 12.0314286,10.4690149 13.9371429,10.8752239 C13.3092857,13.0832239 12.8378571,15.5570149 12.5585714,18.2263881 C10.2707143,19.8440597 8.22857143,21.5369552 6.50357143,23.2305672 C4.05714286,20.6865672 2.38571429,18.1934328 1.81642857,16.057791 C1.46785714,14.7395821 1.55142857,13.614806 2.07,12.7164179 L2.07,12.7164179 Z M8.56857143,37.7437612 L8.56857143,37.7437612 C5.29571429,37.7437612 2.98857143,36.8704478 2.07285714,35.2835821 C1.55428571,34.385194 1.47071429,33.2604179 1.82214286,31.942209 C2.39142857,29.8094328 4.06285714,27.3134328 6.50928571,24.7694328 C8.23357143,26.4630448 10.2764286,28.1559403 12.5642857,29.7736119 C12.8428571,32.4401194 13.315,34.9167761 13.9428571,37.1247761 C12.0342857,37.5281194 10.2207143,37.7437612 8.56857143,37.7437612 L8.56857143,37.7437612 Z M22.5,46.5671642 C19.64,46.5671642 17.0392857,43.1391045 15.3428571,37.8999403 C17.6621429,37.326806 20.0835714,36.4928955 22.5,35.4376119 C24.9164286,36.4928955 27.3378571,37.326806 29.6571429,37.8999403 C27.9607143,43.1391045 25.36,46.5671642 22.5,46.5671642 L22.5,46.5671642 Z M42.93,35.2835821 C42.0114286,36.8704478 39.7071429,37.7437612 36.4342857,37.7437612 C34.7821429,37.7437612 32.9685714,37.5309851 31.06,37.1247761 C31.6878571,34.9167761 32.1592857,32.4401194 32.4385714,29.7736119 C34.7264286,28.1559403 36.7692857,26.4630448 38.4935714,24.7694328 C40.94,27.3105672 42.6114286,29.8065672 43.1807143,31.9393433 C43.5321429,33.2604179 43.4485714,34.385194 42.93,35.2835821 L42.93,35.2835821 Z" id="Fill-1"></path>
                        <path d="M22.5,27.5176119 C20.5578571,27.5176119 18.9785714,25.9393433 18.9785714,24 C18.9785714,22.0606567 20.5578571,20.4823881 22.5,20.4823881 C24.4421429,20.4823881 26.0185714,22.0606567 26.0185714,24 C26.0185714,25.9393433 24.4421429,27.5176119 22.5,27.5176119 L22.5,27.5176119 Z M22.5,21.5570149 C21.1492857,21.5570149 20.05,22.6538507 20.05,24 C20.05,25.3490149 21.1492857,26.4429851 22.5,26.4429851 C23.8507143,26.4429851 24.9471429,25.3461493 24.9471429,24 C24.9471429,22.6509851 23.8507143,21.5570149 22.5,21.5570149 L22.5,21.5570149 Z" id="Fill-2"></path>
                    </g>
                </g>
            </g>
        </g>
    </g>
</svg>