<?xml version="1.0" encoding="UTF-8" standalone="no"?>
<svg width="24px" height="22px" viewBox="0 0 24 22" version="1.1" xmlns="http://www.w3.org/2000/svg" xmlns:xlink="http://www.w3.org/1999/xlink">
    <!-- Generator: Sketch 45.1 (43504) - http://www.bohemiancoding.com/sketch -->
    <title>Group 10</title>
    <desc>Created with Sketch.</desc>
    <defs></defs>
    <g id="Boostrap3-grid-system-layouts" stroke="none" stroke-width="1" fill="none" fill-rule="evenodd">
        <g id="4x4-Feateures-and-benefits" transform="translate(-115.000000, -388.000000)" fill-rule="nonzero" fill="#444444">
            <g id="Header">
                <g id="Group-2" transform="translate(115.000000, 176.000000)">
                    <g id="Group-10" transform="translate(0.000000, 212.000000)">
                        <path d="M11.7936242,0.125 C5.3639547,0.125 0.134018456,5.004 0.134018456,11 C0.134018456,16.996 5.3639547,21.875 11.7936242,21.875 C18.2232936,21.875 23.4532299,16.996 23.4532299,11 C23.4532299,5.004 18.2232936,0.125 11.7936242,0.125 Z M11.7936242,20.667 C6.07907718,20.667 1.42917282,16.33 1.42917282,11 C1.42917282,5.67 6.07907718,1.333 11.7936242,1.333 C17.5081711,1.333 22.1580755,5.67 22.1580755,11 C22.1580755,16.33 17.5081711,20.667 11.7936242,20.667 Z" id="Shape"></path>
                        <path d="M10.4984698,13.167 L7.71731879,10.573 L6.8017047,11.427 L10.0406628,14.448 C10.1671762,14.566 10.3333591,14.625 10.4984698,14.625 C10.6646527,14.625 10.8297634,14.566 10.9562768,14.448 L17.434193,8.406 L16.5185789,7.552 L10.4984698,13.167 Z" id="Shape"></path>
                    </g>
                </g>
            </g>
        </g>
    </g>
</svg>