<?xml version="1.0" encoding="UTF-8" standalone="no"?>
<svg width="90px" height="71px" viewBox="0 0 90 71" version="1.1" xmlns="http://www.w3.org/2000/svg" xmlns:xlink="http://www.w3.org/1999/xlink">
    <!-- Generator: Sketch 45.2 (43514) - http://www.bohemiancoding.com/sketch -->
    <title>AC</title>
    <desc>Created with Sketch.</desc>
    <defs></defs>
    <g id="Page-1" stroke="none" stroke-width="1" fill="none" fill-rule="evenodd">
        <g id="Data-Packet-Designer-Home-Page" transform="translate(-1148.000000, -1096.000000)">
            <g id="Group-5" transform="translate(822.000000, 419.000000)">
                <g id="AC" transform="translate(326.000000, 677.000000)">
                    <g id="Group-2" transform="translate(13.000000, 14.000000)" stroke="#FFFFFF" fill-rule="nonzero">
                        <path d="M35.9652388,5 L8.03476123,5 C11.8334579,1.87579985 16.6976707,0 22,0 C27.3023293,0 32.1665421,1.87579985 35.9652388,5 Z M8.03476123,39 L35.9652388,39 C32.1665421,42.1242002 27.3023293,44 22,44 C16.6976707,44 11.8334579,42.1242002 8.03476123,39 Z M42.8629553,29 L1.5,29 L1.5,29 C1.37963363,29 1.26125403,29.0085064 1.14542958,29.0249509 C1.74135054,30.7947058 2.55623116,32.4637922 3.55786144,34 L40.4421386,34 C41.4484747,32.4565747 42.2663023,30.7790193 42.8629553,29 Z M43.7971625,19 L1.5,19 L1.5,19 C1.00391002,19 0.541568955,19.1444963 0.152768354,19.3936973 C0.0518848487,20.2484224 0,21.118152 0,22 C0,22.5173346 0.0178564953,23.0304987 0.0529867675,23.5389094 C0.461376472,23.8292675 0.960749876,24 1.5,24 L43.910314,24 C43.9696748,23.3412759 44,22.6741794 44,22 C44,20.9823846 43.9309092,19.9809063 43.7971625,19 Z M4.24991997,9 L39.75008,9 C40.8713815,10.528427 41.8000274,12.20702 42.5002387,14 L1.5,14 C2.19997264,12.2070199 3.12861845,10.528427 4.24991997,9 Z" id="Rectangle-path-Copy-5"></path>
                    </g>
                    <g id="Group-3" transform="translate(69.000000, 41.000000)" fill-rule="nonzero" fill="#FFFFFF">
                        <path d="M3.2,16.4 C1.4,16.4 0,15 0,13.2 C0,11.4 1.4,10 3.2,10 C5,10 6.4,11.4 6.4,13.2 C6.4,15 5,16.4 3.2,16.4 Z M3.20000005,11 C1.91666669,11 1,11.9166667 1,13.2 C1,14.4833334 1.91666669,15.4000001 3.20000005,15.4000001 C4.48333341,15.4000001 5.4000001,14.4833334 5.4000001,13.2 C5.4000001,11.9166667 4.48333341,11 3.20000005,11 Z" id="Shape"></path>
                        <path d="M3.2,6.4 C1.4,6.4 0,5 0,3.2 C0,1.4 1.4,0 3.2,0 C5,0 6.4,1.4 6.4,3.2 C6.4,5 5,6.4 3.2,6.4 Z M3.20000005,1 C1.91666669,1 1,1.91666669 1,3.20000005 C1,4.48333341 1.91666669,5.4000001 3.20000005,5.4000001 C4.48333341,5.4000001 5.4000001,4.48333341 5.4000001,3.20000005 C5.4000001,1.91666669 4.48333341,1 3.20000005,1 Z" id="Shape-Copy"></path>
                    </g>
                    <path d="M4,0 L86,0 C88.209139,-4.05812251e-16 90,1.790861 90,4 L90,66.9199982 C90,69.1291372 88.209139,70.9199982 86,70.9199982 L4,70.9199982 C1.790861,70.9199982 2.705415e-16,69.1291372 0,66.9199982 L0,4 L0,4 C-2.705415e-16,1.790861 1.790861,4.05812251e-16 4,0 L4,0 Z M87.5582749,66.184868 L87.6565112,66.184868 L87.6565112,4.68157804 C87.6565112,3.21103524 86.2812031,2 84.611186,2 L5.03978505,2 C3.369768,2 1.99445983,3.21103524 1.99445983,4.68157804 L1.99445983,66.184868 C1.99445983,67.6554108 3.369768,68.866446 5.03978505,68.866446 L9.16570955,68.866446 L27.2411883,68.866446 L62.4097828,68.866446 L80.3870252,68.866446 L84.5129497,68.866446 C86.1829668,68.866446 87.5582749,67.6554108 87.5582749,66.184868 Z" id="Shape" fill="#FFFFFF" fill-rule="nonzero"></path>
                    <path d="M65.8315113,18.5941262 L68.7066771,18.5941262 L67.294674,14.8492483 L65.8315113,18.5941262 Z M66.9365573,14.1534786 L67.7141822,14.1534786 L70.5791161,21.4590601 L69.8321869,21.4590601 L68.942011,19.1875768 L65.6166413,19.1875768 L64.7366973,21.4590601 L64,21.4590601 L66.9365573,14.1534786 Z M70.8110393,21.6023068 L73.9522347,14 L74.474062,14 L71.3533304,21.6023068 L70.8110393,21.6023068 Z M79.9924704,16.3635705 L80.6882401,16.3635705 C80.6404909,15.9815774 80.5262358,15.6439278 80.3454712,15.3506117 C80.1647066,15.0572956 79.9396069,14.810027 79.6701653,14.6087985 C79.4007238,14.4075699 79.1005908,14.2557982 78.7697575,14.1534786 C78.4389242,14.051159 78.0995694,14 77.7516828,14 C77.1786932,14 76.6756294,14.1040233 76.2424765,14.3120732 C75.8093237,14.520123 75.4495052,14.7997923 75.1630104,15.1510895 C74.8765155,15.5023867 74.6616476,15.906543 74.5184002,16.3635705 C74.3751528,16.8205979 74.3035302,17.3014928 74.3035302,17.8062693 C74.3035302,18.3110459 74.3751528,18.7919408 74.5184002,19.2489682 C74.6616476,19.7059957 74.8765155,20.1084466 75.1630104,20.4563332 C75.4495052,20.8042198 75.8093237,21.0821838 76.2424765,21.2902336 C76.6756294,21.4982834 77.1786932,21.6023068 77.7516828,21.6023068 C78.181425,21.6023068 78.5719389,21.5340948 78.9232361,21.3976686 C79.2745334,21.2612425 79.5797822,21.0668383 79.8389918,20.81445 C80.0982014,20.5620617 80.3096587,20.2551075 80.47337,19.8935783 C80.6370813,19.5320492 80.74281,19.1261876 80.7905591,18.6759814 L80.0947895,18.6759814 C80.0606829,19.0034041 79.9822391,19.3086529 79.8594556,19.5917371 C79.7366721,19.8748213 79.5763738,20.1220899 79.378556,20.3335503 C79.1807381,20.5450108 78.9454066,20.7121303 78.6725544,20.8349138 C78.3997022,20.9576973 78.0927481,21.0190881 77.7516828,21.0190881 C77.2673701,21.0190881 76.8512767,20.9270019 76.5033902,20.7428266 C76.1555036,20.5586514 75.8707184,20.3147934 75.6490259,20.0112453 C75.4273335,19.7076972 75.2636246,19.3632264 75.1578944,18.9778227 C75.0521642,18.5924189 74.9992999,18.2019051 74.9992999,17.8062693 C74.9992999,17.4038123 75.0521642,17.0115932 75.1578944,16.6296001 C75.2636246,16.247607 75.4273335,15.9048415 75.6490259,15.6012934 C75.8707184,15.2977453 76.1555036,15.0538873 76.5033902,14.8697121 C76.8512767,14.6855368 77.2673701,14.5934506 77.7516828,14.5934506 C78.0177137,14.5934506 78.2718035,14.6326725 78.5139599,14.7111175 C78.7561162,14.7895625 78.9778053,14.9038177 79.1790338,15.0538864 C79.3802623,15.2039551 79.5507924,15.3898329 79.6906291,15.6115253 C79.8304659,15.8332178 79.9310787,16.083897 79.9924704,16.3635705 Z" id="A/C" fill="#FFFFFF"></path>
                </g>
            </g>
        </g>
    </g>
</svg>