<?xml version="1.0" encoding="UTF-8" standalone="no"?>
<svg width="72px" height="80px" viewBox="0 0 72 80" version="1.1" xmlns="http://www.w3.org/2000/svg" xmlns:xlink="http://www.w3.org/1999/xlink">
    <!-- Generator: Sketch 45.2 (43514) - http://www.bohemiancoding.com/sketch -->
    <title>Dishwasher</title>
    <desc>Created with Sketch.</desc>
    <defs></defs>
    <g id="Page-1" stroke="none" stroke-width="1" fill="none" fill-rule="evenodd">
        <g id="Data-Packet-Designer-Home-Page" transform="translate(-252.000000, -1070.000000)" fill-rule="nonzero" fill="#FFFFFF">
            <g id="Group-4" transform="translate(170.000000, 419.000000)">
                <g id="Dishwasher" transform="translate(82.000000, 651.000000)">
                    <path d="M70.994,0.505 C70.863,0.375 70.683,0.3 70.5,0.3 L1.5,0.3 C1.314,0.3 1.135,0.375 1.004,0.505 C0.875,0.635 0.799,0.816 0.799,1 L0.799,79 C0.799,79.185 0.875,79.364 1.004,79.495 C1.135,79.625 1.315,79.7 1.5,79.7 L70.5,79.7 C70.684,79.7 70.863,79.625 70.994,79.495 C71.125,79.364 71.199,79.183 71.199,79 L71.199,1 C71.199,0.815 71.125,0.635 70.994,0.505 Z M69.799,15.3 L2.199,15.3 L2.199,1.7 L69.799,1.7 L69.799,15.3 Z M2.199,78.3 L2.199,16.7 L69.799,16.7 L69.799,78.3 L2.199,78.3 Z" id="Shape"></path>
                    <path d="M45,22.3 L27,22.3 C26.613,22.3 26.299,22.613 26.299,23 C26.299,23.387 26.613,23.7 27,23.7 L45,23.7 C45.387,23.7 45.699,23.387 45.699,23 C45.699,22.613 45.387,22.3 45,22.3 Z" id="Shape"></path>
                    <path d="M29.004,11.495 C29.135,11.625 29.315,11.7 29.5,11.7 L42.5,11.7 C42.684,11.7 42.863,11.625 42.994,11.495 C43.125,11.364 43.199,11.183 43.199,11 L43.199,6 C43.199,5.815 43.125,5.635 42.994,5.505 C42.863,5.375 42.684,5.3 42.5,5.3 L29.5,5.3 C29.314,5.3 29.135,5.375 29.004,5.505 C28.875,5.635 28.799,5.816 28.799,6 L28.799,11 C28.799,11.185 28.875,11.364 29.004,11.495 Z M30.199,6.699 L41.799,6.699 L41.799,10.3 L30.199,10.3 L30.199,6.699 Z" id="Shape"></path>
                </g>
            </g>
        </g>
    </g>
</svg>