<?xml version="1.0" encoding="UTF-8" standalone="no"?>
<svg width="61px" height="80px" viewBox="0 0 61 80" version="1.1" xmlns="http://www.w3.org/2000/svg" xmlns:xlink="http://www.w3.org/1999/xlink">
    <!-- Generator: Sketch 45.2 (43514) - http://www.bohemiancoding.com/sketch -->
    <title>Group 6</title>
    <desc>Created with Sketch.</desc>
    <defs></defs>
    <g id="Page-1" stroke="none" stroke-width="1" fill="none" fill-rule="evenodd">
        <g id="Data-Packet-Designer-Home-Page" transform="translate(-257.000000, -814.000000)">
            <g id="Group-4" transform="translate(170.000000, 419.000000)">
                <g id="Group-6" transform="translate(87.000000, 395.000000)">
                    <path d="M3.55555556,80 L56.8888889,80 C58.8444444,80 60.4444444,78.4 60.4444444,76.4444444 L60.4444444,3.55555556 C60.4444444,1.6 58.8444444,0 56.8888889,0 L3.55555556,0 C1.6,0 0,1.6 0,3.55555556 L0,76.4444444 C0,78.4 1.6,80 3.55555556,80 Z M56.8888889,78.2222222 L3.55555556,78.2222222 C2.57777778,78.2222222 1.77777778,77.4222222 1.77777778,76.4444444 L1.77777778,24.1777778 L58.6666667,24.1777778 L58.6666667,76.4444444 C58.6666667,77.4222222 57.8666667,78.2222222 56.8888889,78.2222222 Z M3.55555556,1.77777778 L56.8888889,1.77777778 C57.8666667,1.77777778 58.6666667,2.57777778 58.6666667,3.55555556 L58.6666667,22.4 L1.77777778,22.4 L1.77777778,3.55555556 C1.77777778,2.57777778 2.57777778,1.77777778 3.55555556,1.77777778 Z" id="Shape" fill="#FFFFFF" fill-rule="nonzero"></path>
                    <path d="M30.2222222,32 C19.9111111,32 11.5555556,40.3555556 11.5555556,50.6666667 C11.5555556,60.9777778 19.9111111,69.3333333 30.2222222,69.3333333 C40.5333333,69.3333333 48.8888889,60.9777778 48.8888889,50.6666667 C48.8888889,40.3555556 40.5333333,32 30.2222222,32 Z M30.2222222,67.5555556 C20.8888889,67.5555556 13.3333333,60 13.3333333,50.6666667 C13.3333333,41.3333333 20.8888889,33.7777778 30.2222222,33.7777778 C39.5555556,33.7777778 47.1111111,41.3333333 47.1111111,50.6666667 C47.1111111,60 39.5555556,67.5555556 30.2222222,67.5555556 Z" id="Shape" fill="#FFFFFF" fill-rule="nonzero"></path>
                    <path d="M35.6444444,44.3555556 C39.1111111,47.8222222 39.1111111,53.4222222 35.6444444,56.8888889 L36.8888889,58.1333333 C41.0666667,53.9555556 41.0666667,47.2 36.8888889,43.0222222 L35.6444444,44.3555556 Z" id="Shape" fill="#FFFFFF" fill-rule="nonzero"></path>
                    <path d="M37.7777778,15.1111111 C39.0222222,15.1111111 40,14.1333333 40,12.8888889 C40,11.6444444 39.0222222,10.6666667 37.7777778,10.6666667 C36.5333333,10.6666667 35.5555556,11.6444444 35.5555556,12.8888889 C35.5555556,14.1333333 36.5333333,15.1111111 37.7777778,15.1111111 Z M37.7777778,11.5555556 C38.5777778,11.5555556 39.1111111,12.0888889 39.1111111,12.8888889 C39.1111111,13.6888889 38.5777778,14.2222222 37.7777778,14.2222222 C36.9777778,14.2222222 36.4444444,13.6888889 36.4444444,12.8888889 C36.4444444,12.0888889 36.9777778,11.5555556 37.7777778,11.5555556 Z" id="Shape" fill="#FFFFFF" fill-rule="nonzero"></path>
                    <path d="M46.6666667,15.1111111 C47.9111111,15.1111111 48.8888889,14.1333333 48.8888889,12.8888889 C48.8888889,11.6444444 47.9111111,10.6666667 46.6666667,10.6666667 C45.4222222,10.6666667 44.4444444,11.6444444 44.4444444,12.8888889 C44.4444444,14.1333333 45.4222222,15.1111111 46.6666667,15.1111111 Z M46.6666667,11.5555556 C47.4666667,11.5555556 48,12.0888889 48,12.8888889 C48,13.6888889 47.4666667,14.2222222 46.6666667,14.2222222 C45.8666667,14.2222222 45.3333333,13.6888889 45.3333333,12.8888889 C45.3333333,12.0888889 45.8666667,11.5555556 46.6666667,11.5555556 Z" id="Shape" fill="#FFFFFF" fill-rule="nonzero"></path>
                    <rect id="Rectangle" stroke="#FFFFFF" x="12.0555556" y="11.1666667" width="16.7777778" height="3.44444444" rx="1.72222222"></rect>
                </g>
            </g>
        </g>
    </g>
</svg>