<?xml version="1.0" encoding="UTF-8" standalone="no"?>
<svg width="56px" height="85px" viewBox="0 0 56 85" version="1.1" xmlns="http://www.w3.org/2000/svg" xmlns:xlink="http://www.w3.org/1999/xlink">
    <!-- Generator: Sketch 45.2 (43514) - http://www.bohemiancoding.com/sketch -->
    <title>Lighting</title>
    <desc>Created with Sketch.</desc>
    <defs></defs>
    <g id="Page-1" stroke="none" stroke-width="1" fill="none" fill-rule="evenodd">
        <g id="Data-Packet-Designer-Home-Page" transform="translate(-912.000000, -1089.000000)" fill-rule="nonzero" fill="#FFFFFF">
            <g id="Group-5" transform="translate(822.000000, 419.000000)">
                <g id="Lighting" transform="translate(90.000000, 670.000000)">
                    <path d="M37.3541114,53.1012019 C47.3106584,53.1011982 55.3844437,61.1680174 55.3930344,71.1245607 L55.3930344,77.3502459 L0,77.3502459 L0,71.1245607 C0.00858169462,61.1740913 8.0728894,53.1097836 18.0233588,53.1012019 L23.1906775,53.1012019 L32.1867927,53.1012019 L37.3541114,53.1012019 Z M36.6546779,55.1012019 L31.8607808,55.1012019 C31.8607808,55.1012019 29.0787802,55.1012019 23.5147792,55.1012019 L18.7208821,55.1012019 C9.48949368,55.1084568 2.00796153,61.9259754 2,70.338044 L2,75.6012019 L53.3899994,75.6012019 L53.3899994,70.338044 C53.3820296,61.9208405 45.8917047,55.1011988 36.6546779,55.1012019 Z" id="Shape"></path>
                    <path d="M22,38 L33.3246984,38 C34.9815527,38 36.3246984,39.3431458 36.3246984,41 L36.3246984,51.3072439 C36.3246984,52.9640981 34.9815527,54.3072439 33.3246984,54.3072439 L22,54.3072439 L22,54.3072439 C20.3431458,54.3072439 19,52.9640981 19,51.3072439 L19,41 L19,41 C19,39.3431458 20.3431458,38 22,38 L22,38 Z M24.0225861,53.288597 L30.9095668,53.288597 C32.3800051,53.3246607 33.6626622,52.343423 33.9433814,50.9677172 C33.9660554,50.7713866 33.9660554,50.5732785 33.9433814,50.3769478 L33.9433814,42.9079346 C33.9434031,42.143239 33.6230651,41.410167 33.0534688,40.8714298 C32.4838726,40.3326927 31.7121413,40.0328604 30.9095668,40.0384832 L24.0225861,40.0384832 C22.3679477,40.0616256 21.0428593,41.3524053 21.0552053,42.9290335 L21.0552053,50.3980467 C21.0325313,50.5943774 21.0325313,50.7924855 21.0552053,50.9888161 C21.3408138,52.3323132 22.5838868,53.2957202 24.0225861,53.288597 Z" id="Shape"></path>
                    <path d="M15.7665479,75.4747569 L15.7665479,77.6693109 C15.767907,78.1936256 15.8305897,78.7159818 15.9533184,79.2257322 C16.7084975,82.3802858 19.5267599,84.6065844 22.7704437,84.6109499 L32.6848475,84.6109499 C35.9285313,84.6065844 38.7467937,82.3802858 39.5019728,79.2257322 C39.6247015,78.7159818 39.6873842,78.1936256 39.6887434,77.6693109 L39.6887434,75.4747569 L15.7665479,75.4747569 Z M33.8251717,83.1682689 L22.2191663,83.1682689 C20.504119,83.1664963 18.9425424,82.1798639 18.2045103,80.6317363 C17.9255842,80.0632504 17.7760158,79.4400485 17.7665479,78.8068927 L17.7665479,77.4747569 L38.1865479,77.4747569 L38.1865479,78.8068927 C38.17708,79.4400485 38.0275115,80.0632504 37.7485855,80.6317363 C37.0250051,82.1505607 35.5071559,83.1318679 33.8251717,83.1682689 Z" id="Shape"></path>
                    <rect id="Rectangle-path" x="25.4007958" y="6.36576315" width="4.59144286" height="32.575898"></rect>
                    <path d="M27.6887351,8.65370248 C9.92996795,8.65370248 9.92996795,5.83657991 9.92996795,4.32685124 C9.92996795,2.81712257 9.92996795,0 27.6887351,0 C45.4475022,0 45.4630664,2.81712257 45.4630664,4.32685124 C45.4630664,5.83657991 45.4630664,8.65370248 27.6887351,8.65370248 Z" id="Shape"></path>
                </g>
            </g>
        </g>
    </g>
</svg>