<?xml version="1.0" encoding="UTF-8" standalone="no"?>
<svg width="88px" height="82px" viewBox="0 0 88 82" version="1.1" xmlns="http://www.w3.org/2000/svg" xmlns:xlink="http://www.w3.org/1999/xlink">
    <!-- Generator: Sketch 45.2 (43514) - http://www.bohemiancoding.com/sketch -->
    <title>Oven</title>
    <desc>Created with Sketch.</desc>
    <defs></defs>
    <g id="Page-1" stroke="none" stroke-width="1" fill="none" fill-rule="evenodd">
        <g id="Data-Packet-Designer-Home-Page" transform="translate(-498.000000, -813.000000)">
            <g id="Group-4" transform="translate(170.000000, 419.000000)">
                <g id="Oven" transform="translate(328.000000, 394.000000)">
                    <path d="M0.3,0.7 L0.3,81.2 L87.6,81.2 L87.6,0.7 L0.3,0.7 Z M85.7,2.7 L85.7,17.7 L2.3,17.7 L2.3,2.7 C2.3,2.7 85.7,2.7 85.7,2.7 Z M2.3,79.3 L2.3,19.7 L85.6,19.7 L85.6,79.2 L2.3,79.2 L2.3,79.3 Z" id="Shape" fill="#FFFFFF" fill-rule="nonzero"></path>
                    <path d="M59.6,13.1 C57.8,13.1 56.4,11.7 56.4,9.9 C56.4,8.1 57.8,6.7 59.6,6.7 C61.4,6.7 62.8,8.1 62.8,9.9 C62.8,11.7 61.3,13.1 59.6,13.1 Z M59.6,7.7 C58.3166667,7.7 57.4,8.61666669 57.4,9.90000005 C57.4,11.1833334 58.3166667,12.1000001 59.6,12.1000001 C60.8833334,12.1000001 61.8000001,11.1833334 61.8000001,9.90000005 C61.8000001,8.61666669 60.7000001,7.7 59.6,7.7 Z" id="Shape" fill="#FFFFFF" fill-rule="nonzero"></path>
                    <path d="M68.7,13.1 C66.9,13.1 65.5,11.7 65.5,9.9 C65.5,8.1 66.9,6.7 68.7,6.7 C70.5,6.7 71.9,8.1 71.9,9.9 C71.9,11.7 70.5,13.1 68.7,13.1 Z M68.7000001,7.7 C67.4166667,7.7 66.5,8.61666669 66.5,9.90000005 C66.5,11.1833334 67.4166667,12.1000001 68.7000001,12.1000001 C69.9833335,12.1000001 70.9000003,11.1833334 70.9000003,9.90000005 C70.9000003,8.61666669 69.9833335,7.7 68.7000001,7.7 Z" id="Shape" fill="#FFFFFF" fill-rule="nonzero"></path>
                    <path d="M28.5,13.1 C26.7,13.1 25.3,11.7 25.3,9.9 C25.3,8.1 26.7,6.7 28.5,6.7 C30.3,6.7 31.7,8.1 31.7,9.9 C31.7,11.7 30.2,13.1 28.5,13.1 Z M28.5,7.7 C27.2166667,7.7 26.3,8.61666669 26.3,9.90000005 C26.3,11.1833334 27.2166667,12.1000001 28.5,12.1000001 C29.7833334,12.1000001 30.7000001,11.1833334 30.7000001,9.90000005 C30.7000001,8.61666669 29.6000001,7.7 28.5,7.7 Z" id="Shape" fill="#FFFFFF" fill-rule="nonzero"></path>
                    <path d="M19.3,13.1000122 C17.5,13.1000122 16.1,11.7000122 16.1,9.90001221 C16.1,8.10001221 17.5,6.70001221 19.3,6.70001221 C21.1,6.70001221 22.5,8.10001221 22.5,9.90001221 C22.5,11.7000122 21,13.1000122 19.3,13.1000122 Z M19.3,7.70001221 C18.0166667,7.70001221 17.1,8.61667889 17.1,9.90001225 C17.1,11.1833456 18.0166667,12.1000123 19.3,12.1000123 C20.5833334,12.1000123 21.5000001,11.1833456 21.5000001,9.90001225 C21.5000001,8.61667889 20.4000001,7.70001221 19.3,7.70001221 Z" id="Shape" fill="#FFFFFF" fill-rule="nonzero"></path>
                    <rect id="Rectangle-5" stroke="#FFFFFF" x="35.5" y="7.20001221" width="17" height="5.4000001" rx="2.70000005"></rect>
                    <rect id="Rectangle-path" fill="#FFFFFF" fill-rule="nonzero" x="8.2" y="24.5" width="71.7" height="2"></rect>
                    <path d="M79.8,73.4 L8.2,73.4 L8.2,31.4 L79.8,31.4 C79.8,31.4 79.8,73.4 79.8,73.4 Z M10.2,71.4 L77.8,71.4 L77.8,33.4 L10.2,33.4 L10.2,71.4 Z" id="Shape" fill="#FFFFFF" fill-rule="nonzero"></path>
                </g>
            </g>
        </g>
    </g>
</svg>