<?xml version="1.0" encoding="UTF-8" standalone="no"?>
<svg width="54px" height="100px" viewBox="0 0 54 100" version="1.1" xmlns="http://www.w3.org/2000/svg" xmlns:xlink="http://www.w3.org/1999/xlink">
    <!-- Generator: Sketch 45.2 (43514) - http://www.bohemiancoding.com/sketch -->
    <title>Group</title>
    <desc>Created with Sketch.</desc>
    <defs></defs>
    <g id="Page-1" stroke="none" stroke-width="1" fill="none" fill-rule="evenodd">
        <g id="Data-Packet-Designer-Home-Page" transform="translate(-261.000000, -556.000000)" fill-rule="nonzero" fill="#FFFFFF">
            <g id="Group-4" transform="translate(170.000000, 419.000000)">
                <g id="Group" transform="translate(91.000000, 137.000000)">
                    <path d="M53.435,3.21 C53.435,1.929 52.393,0.886 51.112,0.886 L2.89,0.886 C1.609,0.886 0.566,1.929 0.566,3.21 L0.566,35.13 C0.566,35.752 0.815,36.315 1.214,36.733 C0.815,37.15 0.566,37.713 0.566,38.335 L0.566,96.792 C0.566,98.073 1.609,99.115 2.89,99.115 L51.112,99.115 C52.393,99.115 53.435,98.073 53.435,96.792 L53.435,38.334 C53.435,37.713 53.186,37.149 52.788,36.732 C53.186,36.314 53.435,35.752 53.435,35.129 L53.435,3.21 L53.435,3.21 Z M51.992,96.791 C51.992,97.276 51.596,97.671 51.111,97.671 L2.89,97.671 C2.405,97.671 2.009,97.276 2.009,96.791 L2.009,38.334 C2.009,37.849 2.405,37.453 2.89,37.453 L51.112,37.453 C51.597,37.453 51.993,37.849 51.993,38.334 L51.993,96.791 L51.992,96.791 Z M51.992,35.13 C51.992,35.615 51.596,36.011 51.111,36.011 L2.89,36.011 C2.405,36.011 2.009,35.615 2.009,35.13 L2.009,3.21 C2.009,2.725 2.405,2.329 2.89,2.329 L51.112,2.329 C51.597,2.329 51.993,2.725 51.993,3.21 L51.993,35.13 L51.992,35.13 Z" id="Shape"></path>
                    <path d="M47.98,19.271 L46.425,19.271 C45.32,19.271 44.42,20.17 44.42,21.276 L44.42,32.478 C44.42,33.583 45.319,34.483 46.425,34.483 L47.98,34.483 C49.085,34.483 49.985,33.584 49.985,32.478 L49.985,21.276 C49.985,20.171 49.086,19.271 47.98,19.271 Z M48.542,32.479 C48.542,32.789 48.29,33.041 47.98,33.041 L46.425,33.041 C46.114,33.041 45.863,32.789 45.863,32.479 L45.863,21.276 C45.863,20.966 46.114,20.714 46.425,20.714 L47.98,20.714 C48.29,20.714 48.542,20.966 48.542,21.276 L48.542,32.479 Z" id="Shape"></path>
                    <path d="M47.98,39.085 L46.425,39.085 C45.32,39.085 44.42,39.984 44.42,41.09 L44.42,52.292 C44.42,53.396 45.319,54.297 46.425,54.297 L47.98,54.297 C49.085,54.297 49.985,53.397 49.985,52.292 L49.985,41.09 C49.985,39.984 49.086,39.085 47.98,39.085 Z M48.542,52.292 C48.542,52.602 48.29,52.854 47.98,52.854 L46.425,52.854 C46.114,52.854 45.863,52.602 45.863,52.292 L45.863,41.09 C45.863,40.779 46.114,40.527 46.425,40.527 L47.98,40.527 C48.29,40.527 48.542,40.779 48.542,41.09 L48.542,52.292 Z" id="Shape"></path>
                </g>
            </g>
        </g>
    </g>
</svg>