<?xml version="1.0" encoding="UTF-8" standalone="no"?>
<svg width="42px" height="98px" viewBox="0 0 42 98" version="1.1" xmlns="http://www.w3.org/2000/svg" xmlns:xlink="http://www.w3.org/1999/xlink">
    <!-- Generator: Sketch 45.2 (43514) - http://www.bohemiancoding.com/sketch -->
    <title>water cooler</title>
    <desc>Created with Sketch.</desc>
    <defs></defs>
    <g id="Page-1" stroke="none" stroke-width="1" fill="none" fill-rule="evenodd">
        <g id="Data-Packet-Designer-Home-Page" transform="translate(-521.000000, -557.000000)" fill-rule="nonzero" fill="#FFFFFF">
            <g id="Group-4" transform="translate(170.000000, 419.000000)">
                <g id="water-cooler" transform="translate(351.000000, 138.000000)">
                    <path d="M24.815,48.64 L7.626,48.64 C6.031,48.64 4.734,49.938 4.734,51.532 L4.734,62.296 C4.734,63.891 6.031,65.188 7.626,65.188 L24.815,65.188 C26.41,65.188 27.707,63.891 27.707,62.296 L27.707,51.532 C27.707,49.938 26.41,48.64 24.815,48.64 Z M25.779,62.296 C25.779,62.828 25.347,63.26 24.815,63.26 L7.626,63.26 C7.094,63.26 6.662,62.828 6.662,62.296 L6.662,51.532 C6.662,51.001 7.095,50.568 7.626,50.568 L24.815,50.568 C25.347,50.568 25.779,51.001 25.779,51.532 L25.779,62.296 L25.779,62.296 Z" id="Shape"></path>
                    <path d="M38.149,30.166 L34.294,30.166 C32.847,30.166 31.654,31.238 31.445,32.627 C31.465,32.387 31.482,32.146 31.482,31.899 L31.482,9.358 C31.482,4.575 27.59,0.683 22.807,0.683 L9.634,0.683 C4.851,0.683 0.959,4.575 0.959,9.358 L0.959,31.9 C0.959,35.563 3.244,38.695 6.46,39.965 L3.931,39.965 C2.336,39.965 1.039,41.262 1.039,42.857 L1.039,94.425 C1.039,96.021 2.336,97.317 3.931,97.317 L28.671,97.317 C30.266,97.317 31.563,96.021 31.563,94.425 L31.563,60.635 C31.879,61.582 32.664,62.312 33.648,62.538 L36.222,70.124 L38.795,62.538 C40.078,62.243 41.041,61.098 41.041,59.725 L41.041,33.058 C41.041,31.463 39.744,30.166 38.149,30.166 Z M1.887,9.358 C1.887,5.638 5.14124067,2.611 9.14050572,2.611 L23.3034944,2.611 C27.3038345,2.611 30.5570001,5.638 30.5570001,9.358 L30.5570001,13.143 C30.2280283,13.06 29.877555,13.009 29.5034303,13.009 L2.94379504,13.009 C2.56859517,13.009 2.21704687,13.061 1.887,13.144 L1.887,9.358 Z M30.5489996,26.506 C30.4952412,26.602 30.1200076,26.832 29.5039364,26.832 L2.94298805,26.832 C2.327992,26.832 1.9527584,26.602 1.90975168,26.558 L1.899,15.262 C1.9527584,15.166 2.327992,14.937 2.94298805,14.937 L29.5039364,14.937 C30.1189324,14.937 30.4952412,15.166 30.5382479,15.211 L30.5489996,26.506 Z M1.887,31.9 L1.887,28.625 C2.21705925,28.708 2.56862073,28.76 2.94383467,28.76 L29.5033907,28.76 C29.8786047,28.76 30.229091,28.708 30.5570001,28.626 L30.5570001,31.9 C30.5570001,35.621 27.3037125,38.648 23.3032224,38.648 L9.14077772,38.648 C5.1413627,38.647 1.887,35.621 1.887,31.9 Z M29.6006314,96.393 L3.00336868,96.393 C2.43143078,96.393 1.967,95.9437879 1.967,95.3929065 L1.967,41.8930935 C1.967,41.3411747 2.43143078,40.893 3.00336868,40.893 L29.6006314,40.893 C30.1714942,40.893 30.6370001,41.3411747 30.6370001,41.8930935 L30.6370001,95.3929065 C30.6370001,95.9437879 30.1714942,96.393 29.6006314,96.393 Z M31.402,33.058 L31.402,41.949 C31.018,40.801 29.946,39.966 28.671,39.966 L25.981,39.966 C28.889,38.818 31.03,36.148 31.415,32.94 C31.413,32.979 31.402,33.017 31.402,33.058 Z M36.222,64.124 L35.71,62.617 L36.732,62.617 L36.222,64.124 Z M39.579988,59.6951194 C39.579988,60.2457978 39.072338,60.6940004 38.4497926,60.6940004 L33.9301832,60.6940004 C33.3064654,60.6940004 32.7999878,60.2457978 32.7999878,59.6951194 L32.7999878,32.0918459 C32.7999878,31.5422026 33.3064654,31.094 33.9301832,31.094 L38.4497926,31.094 C39.072338,31.094 39.579988,31.5422026 39.579988,32.0918459 L39.579988,59.6951194 Z" id="Shape"></path>
                    <polygon id="Shape" points="10.19 52.724 9.274 54.42 10.518 55.092 10.518 58.806 12.445 58.806 12.445 55.022 12.421 55.022 12.879 54.175"></polygon>
                    <polygon id="Shape" points="19.641 54.175 20.157 55.132 20.157 58.806 22.085 58.806 22.085 55.047 23.245 54.42 22.329 52.724"></polygon>
                </g>
            </g>
        </g>
    </g>
</svg>