<?xml version="1.0" encoding="UTF-8" standalone="no"?>
<svg width="318px" height="137px" viewBox="0 0 318 137" version="1.1" xmlns="http://www.w3.org/2000/svg" xmlns:xlink="http://www.w3.org/1999/xlink">
    <!-- Generator: Sketch 47.1 (45422) - http://www.bohemiancoding.com/sketch -->
    <title>noun_854130_cc</title>
    <desc>Created with Sketch.</desc>
    <defs></defs>
    <g id="Symbols" stroke="none" stroke-width="1" fill="none" fill-rule="evenodd">
        <g id="apps" transform="translate(0.000000, -64.000000)">
            <g id="noun_854130_cc" transform="translate(-36.000000, 65.000000)">
                <g id="noun_780158_cc-2" transform="translate(315.000000, 18.000000)" stroke="#FFFFFF" fill-rule="nonzero" stroke-width="0.5" fill="#0B6C9F">
                    <path d="M0,0 L0,99 L108.893678,99 L108.893678,0 L0,0 Z M106.523713,2.45962733 L106.523713,20.9068323 L2.49470053,20.9068323 L2.49470053,2.45962733 C2.49470053,2.45962733 106.523713,2.45962733 106.523713,2.45962733 Z M2.49470053,96.663354 L2.49470053,23.3664596 L106.398978,23.3664596 L106.398978,96.5403727 L2.49470053,96.5403727 L2.49470053,96.663354 Z" id="Shape"></path>
                    <path d="M34.9281609,16.5 C32.6167385,16.5 30.8189655,14.6953125 30.8189655,12.375 C30.8189655,10.0546875 32.6167385,8.25 34.9281609,8.25 C37.2395833,8.25 39.0373563,10.0546875 39.0373563,12.375 C39.0373563,14.6953125 37.111171,16.5 34.9281609,16.5 Z M34.9281609,10.828125 C34.0292744,10.828125 33.3872126,11.4726562 33.3872126,12.375 C33.3872126,13.2773437 34.0292744,13.921875 34.9281609,13.921875 C35.8270474,13.921875 36.4691092,13.2773437 36.4691092,12.375 C36.4691092,11.4726562 35.6986351,10.828125 34.9281609,10.828125 Z" id="Shape"></path>
                    <path d="M24.6551724,16.5 C22.34375,16.5 20.545977,14.6953125 20.545977,12.375 C20.545977,10.0546875 22.34375,8.25 24.6551724,8.25 C26.9665948,8.25 28.7643678,10.0546875 28.7643678,12.375 C28.7643678,14.6953125 26.8381825,16.5 24.6551724,16.5 Z M24.6551724,10.828125 C23.7562859,10.828125 23.1142241,11.4726562 23.1142241,12.375 C23.1142241,13.2773437 23.7562859,13.921875 24.6551724,13.921875 C25.5540589,13.921875 26.1961207,13.2773437 26.1961207,12.375 C26.1961207,11.4726562 25.4256466,10.828125 24.6551724,10.828125 Z" id="Shape"></path>
                    <rect id="Rectangle-path" x="10.2729885" y="30.9375" width="88.3477011" height="2.0625"></rect>
                    <path d="M98.6206897,90.75 L10.2729885,90.75 L10.2729885,39.1875 L98.6206897,39.1875 C98.6206897,39.1875 98.6206897,90.75 98.6206897,90.75 Z M12.7408014,88.2946429 L96.1528768,88.2946429 L96.1528768,41.6428571 L12.7408014,41.6428571 L12.7408014,88.2946429 Z" id="Shape"></path>
                </g>
                <g id="noun_1060289_cc-2" transform="translate(0.000000, 18.000000)" fill-rule="nonzero" fill="#0B6C9F">
                    <g id="Group">
                        <path d="M4.38596491,99 L70.1754386,99 C72.5877193,99 74.5614035,97.02 74.5614035,94.6 L74.5614035,4.4 C74.5614035,1.98 72.5877193,0 70.1754386,0 L4.38596491,0 C1.97368421,0 0,1.98 0,4.4 L0,94.6 C0,97.02 1.97368421,99 4.38596491,99 Z M70.1754386,96.8 L4.38596491,96.8 C3.17982456,96.8 2.19298246,95.81 2.19298246,94.6 L2.19298246,29.92 L72.3684211,29.92 L72.3684211,94.6 C72.3684211,95.81 71.3815789,96.8 70.1754386,96.8 Z M4.38596491,2.2 L70.1754386,2.2 C71.3815789,2.2 72.3684211,3.19 72.3684211,4.4 L72.3684211,27.72 L2.19298246,27.72 L2.19298246,4.4 C2.19298246,3.19 3.17982456,2.2 4.38596491,2.2 Z" id="Shape"></path>
                        <path d="M37.2807018,39.6 C24.5614035,39.6 14.254386,49.94 14.254386,62.7 C14.254386,75.46 24.5614035,85.8 37.2807018,85.8 C50,85.8 60.3070175,75.46 60.3070175,62.7 C60.3070175,49.94 50,39.6 37.2807018,39.6 Z M37.2807018,83.6 C25.7675439,83.6 16.4473684,74.25 16.4473684,62.7 C16.4473684,51.15 25.7675439,41.8 37.2807018,41.8 C48.7938596,41.8 58.1140351,51.15 58.1140351,62.7 C58.1140351,74.25 48.7938596,83.6 37.2807018,83.6 Z" id="Shape"></path>
                        <path d="M43.9692982,54.89 C48.245614,59.18 48.245614,66.11 43.9692982,70.4 L45.504386,71.94 C50.6578947,66.77 50.6578947,58.41 45.504386,53.24 L43.9692982,54.89 Z" id="Shape"></path>
                        <path d="M42.7631579,18.15 C44.2982456,18.15 45.504386,16.94 45.504386,15.4 C45.504386,13.86 44.2982456,12.65 42.7631579,12.65 C41.2280702,12.65 40.0219298,13.86 40.0219298,15.4 C40.0219298,16.94 41.2280702,18.15 42.7631579,18.15 Z M42.7631579,14.85 C43.0921053,14.85 43.3114035,15.07 43.3114035,15.4 C43.3114035,15.73 43.0921053,15.95 42.7631579,15.95 C42.4342105,15.95 42.2149123,15.73 42.2149123,15.4 C42.2149123,15.07 42.4342105,14.85 42.7631579,14.85 Z" id="Shape"></path>
                        <path d="M57.0175439,18.15 C58.5526316,18.15 59.7587719,16.94 59.7587719,15.4 C59.7587719,13.86 58.5526316,12.65 57.0175439,12.65 C55.4824561,12.65 54.2763158,13.86 54.2763158,15.4 C54.2763158,16.94 55.4824561,18.15 57.0175439,18.15 Z M57.0175439,14.85 C57.3464912,14.85 57.5657895,15.07 57.5657895,15.4 C57.5657895,15.73 57.3464912,15.95 57.0175439,15.95 C56.6885965,15.95 56.4692982,15.73 56.4692982,15.4 C56.4692982,15.07 56.6885965,14.85 57.0175439,14.85 Z" id="Shape"></path>
                    </g>
                </g>
                <path d="M225.578947,78.9459459 C232.026316,78.9459459 237.184211,84.0918919 237.184211,90.5243243 C237.184211,96.9567568 232.026316,102.102703 225.578947,102.102703" id="Shape" stroke="#0B6C9F" stroke-width="2" stroke-linecap="round" stroke-linejoin="round"></path>
                <path d="M195.184211,120.481081 L193.342105,120.481081 C176.578947,120.481081 162.947368,106.881081 162.947368,90.1567568 L162.947368,75.6378378 C162.947368,75.6378378 162.947368,75.6378378 162.947368,75.6378378 L225.394737,75.6378378 C225.394737,75.6378378 225.394737,75.6378378 225.394737,75.6378378 L225.394737,90.1567568 C225.578947,106.881081 211.947368,120.481081 195.184211,120.481081 Z" id="Shape" stroke="#0B6C9F" stroke-width="2" stroke-linecap="round" stroke-linejoin="round"></path>
                <path d="M151.526316,0.654054054 L239.210526,0.654054054 C248.973684,0.654054054 256.710526,8.55675676 256.710526,18.1135135 L256.710526,121.216216 L133.842105,121.216216 L133.842105,18.1135135 C133.842105,8.55675676 141.763158,0.654054054 151.526316,0.654054054 Z" id="Shape" stroke="#0B6C9F" stroke-width="2" stroke-linecap="round" stroke-linejoin="round"></path>
                <path d="M175.289474,5.98378378 L238.289474,5.98378378 C245.105263,5.98378378 250.447368,11.4972973 250.447368,18.1135135 L250.447368,44.2108108" id="Shape" stroke="#0B6C9F" stroke-linecap="round" stroke-linejoin="round"></path>
                <path d="M164.605263,5.98378378 L168.473684,5.98378378" id="Shape" stroke="#0B6C9F" stroke-linecap="round" stroke-linejoin="round"></path>
                <path d="M258,134.816216 L132,134.816216 C128.315789,134.816216 125.184211,131.875676 125.184211,128.016216 L125.184211,128.016216 C125.184211,124.340541 128.131579,121.216216 132,121.216216 L257.815789,121.216216 C261.5,121.216216 264.631579,124.156757 264.631579,128.016216 L264.631579,128.016216 C264.631579,131.875676 261.684211,134.816216 258,134.816216 Z" id="Shape" stroke="#0B6C9F" stroke-width="2" stroke-linecap="round" stroke-linejoin="round"></path>
                <path d="M133.842105,52.1135135 L256.710526,52.1135135" id="Shape" stroke="#0B6C9F" stroke-width="2" stroke-linecap="round" stroke-linejoin="round"></path>
                <rect id="Rectangle-path" stroke="#0B6C9F" stroke-width="2" stroke-linecap="round" stroke-linejoin="round" x="186.157895" y="52.1135135" width="18.4210526" height="15.2540541"></rect>
                <path d="M204.578947,60.9351351 L217.473684,60.9351351" id="Shape" stroke="#0B6C9F" stroke-width="2" stroke-linecap="round" stroke-linejoin="round"></path>
                <path d="M151.342105,24.3621622 L151.342105,24.3621622 C149.868421,24.3621622 148.578947,23.0756757 148.578947,21.6054054 L148.578947,21.6054054 C148.578947,20.1351351 149.868421,18.8486486 151.342105,18.8486486 L151.342105,18.8486486 C152.815789,18.8486486 154.105263,20.1351351 154.105263,21.6054054 L154.105263,21.6054054 C154.105263,23.0756757 152.815789,24.3621622 151.342105,24.3621622 Z" id="Shape" stroke="#0B6C9F" stroke-width="2" stroke-linecap="round" stroke-linejoin="round"></path>
                <path d="M151.342105,39.6162162 L151.342105,39.6162162 C149.868421,39.6162162 148.578947,38.3297297 148.578947,36.8594595 L148.578947,36.8594595 C148.578947,35.3891892 149.868421,34.1027027 151.342105,34.1027027 L151.342105,34.1027027 C152.815789,34.1027027 154.105263,35.3891892 154.105263,36.8594595 L154.105263,36.8594595 C154.105263,38.3297297 152.815789,39.6162162 151.342105,39.6162162 Z" id="Shape" stroke="#0B6C9F" stroke-width="2" stroke-linecap="round" stroke-linejoin="round"></path>
            </g>
        </g>
    </g>
</svg>