<?xml version="1.0" encoding="UTF-8" standalone="no"?>
<svg width="64px" height="64px" viewBox="0 0 64 64" version="1.1" xmlns="http://www.w3.org/2000/svg" xmlns:xlink="http://www.w3.org/1999/xlink">
    <!-- Generator: Sketch 47.1 (45422) - http://www.bohemiancoding.com/sketch -->
    <title>Artboard</title>
    <desc>Created with Sketch.</desc>
    <defs></defs>
    <g id="Page-1" stroke="none" stroke-width="1" fill="none" fill-rule="evenodd">
        <g id="Artboard" fill-rule="nonzero">
            <g id="btn-mild-brew-selected" transform="translate(2.000000, 2.000000)">
                <circle id="Oval" stroke="#29BB9C" stroke-width="2" fill="#FFFFFF" cx="30" cy="30" r="30"></circle>
                <g id="noun_1206477_cc" transform="translate(10.370370, 16.296296)">
                    <g id="Group">
                        <path d="M38.3164629,15.6082148 C38.7240848,21.3445673 28.5335362,24.0126382 26.0878045,18.8098999 C30.8433939,19.4769177 31.6586377,18.1428822 32.4738816,16.8088468 C33.1532515,15.7416184 33.9684954,14.2741794 38.3164629,15.6082148 Z" id="Shape" fill="#D8D8D8"></path>
                        <path d="M38.0447149,14.5409865 C33.5608735,13.206951 32.6097556,14.67439 31.7945117,16.0084255 C30.9792678,17.2090574 30.4357719,18.4096893 25.6801826,17.609268 C25.0008126,11.6061085 36.1424791,8.80463402 38.0447149,14.5409865 Z" id="Shape" fill="#D8D8D8"></path>
                        <path d="M24.8649387,6.40337019 C28.8052841,9.87186238 23.9138208,18.1428822 18.8864835,16.2752326 C22.555081,13.6071617 22.147459,12.2731262 21.8757111,10.8056872 C21.6039631,9.60505529 21.1963412,8.13761629 24.8649387,6.40337019 Z" id="Shape" fill="#4F0E06"></path>
                        <path d="M24.0496948,5.86975601 C20.2452233,7.73740565 20.5169712,9.3382482 20.9245932,10.8056872 C21.1963412,12.0063191 21.6039631,13.206951 17.9353656,15.6082148 C13.4515242,12.1397227 19.0223574,3.2016851 24.0496948,5.86975601 Z" id="Shape" fill="#4F0E06"></path>
                        <path d="M27.3106703,25.6134808 C25.0008126,30.1492013 16.0331298,28.0147446 16.3048778,22.9454099 C19.8376013,25.4800772 21.0604672,24.679656 22.147459,24.0126382 C23.2344509,23.479024 24.4573167,22.6786028 27.3106703,25.6134808 Z" id="Shape" fill="#D8D8D8"></path>
                        <path d="M27.5824183,24.679656 C24.5931907,21.744778 23.2344509,22.4117957 22.011585,23.212217 C20.9245932,23.7458311 19.9734753,24.4128489 16.5766258,21.8781815 C18.6147355,16.8088468 28.5335362,19.3435141 27.5824183,24.679656 Z" id="Shape" fill="#D8D8D8"></path>
                        <path d="M15.3537599,18.4096893 C14.538516,16.141829 13.1797762,13.8739688 12.7721543,13.0735475 C11.0057925,13.206951 9.37530474,12.8067404 6.79369909,11.739512 C8.9676828,12.4065298 10.7340446,12.6733368 12.5004063,12.5399333 C12.0927844,11.8729156 11.6851624,11.3393014 11.2775405,10.8056872 C10.0546747,10.8056872 8.83180881,10.5388801 7.20132103,9.87186238 C8.69593483,10.272073 9.91880067,10.4054766 11.0057925,10.4054766 C10.5981706,9.87186238 10.1905486,9.3382482 9.78292669,8.80463402 C8.9676828,8.80463402 8.15243891,8.67123047 6.92957307,8.13761629 C7.88069094,8.40442338 8.69593483,8.53782693 9.51117872,8.53782693 C7.74481696,6.67017729 5.70670723,5.33614183 2.9892276,3.86870283 C8.83180881,6.26996665 10.5981706,8.13761629 14.810264,14.67439 C12.6362803,0.266807091 6.92957307,7.20379147 0.407621945,0 C0.543495927,18.4096893 8.01656492,13.7405652 15.3537599,18.4096893 Z" id="Shape" fill="#29BB9C"></path>
                        <path d="M16.1690038,21.0777602 C14.67439,20.277339 12.9080283,19.7437248 12.3645323,19.6103212 C11.5492884,20.544146 10.4622966,21.0777602 8.83180881,21.744778 C10.1905486,21.0777602 11.1416665,20.4107425 11.9569104,19.4769177 C11.4134145,19.3435141 11.0057925,19.2101106 10.4622966,19.2101106 C9.91880067,19.7437248 9.23943076,20.1439354 8.01656492,20.6775496 C8.9676828,20.1439354 9.6470527,19.7437248 10.1905486,19.076707 C9.6470527,19.076707 9.23943076,18.9433035 8.83180881,18.9433035 C8.42418687,19.3435141 7.88069094,19.6103212 7.06544705,20.0105319 C7.74481696,19.6103212 8.15243891,19.3435141 8.56006085,18.9433035 C6.79369909,18.8098999 5.16321131,19.076707 3.12510158,19.7437248 C7.06544705,18.1428822 8.9676828,18.2762858 14.1308941,19.3435141 C5.9784552,13.3403546 6.65782511,19.4769177 0,19.076707 C8.9676828,27.8813411 10.3264226,22.1449886 16.1690038,21.0777602 Z" id="Shape" fill="#29BB9C"></path>
                    </g>
                </g>
            </g>
        </g>
    </g>
</svg>