<?xml version="1.0" encoding="UTF-8" standalone="no"?>
<svg width="39px" height="22px" viewBox="0 0 39 22" version="1.1" xmlns="http://www.w3.org/2000/svg" xmlns:xlink="http://www.w3.org/1999/xlink">
    <!-- Generator: Sketch 47.1 (45422) - http://www.bohemiancoding.com/sketch -->
    <title>Group 3</title>
    <desc>Created with Sketch.</desc>
    <defs></defs>
    <g id="Page-1" stroke="none" stroke-width="1" fill="none" fill-rule="evenodd">
        <g id="Notifications" transform="translate(-34.000000, -118.000000)" fill="#FFFFFF">
            <g id="Group-3" transform="translate(34.000000, 119.000000)">
                <path d="M18,14.1425781 L18,6.44042969 L20.1914062,6.44042969 C20.8574252,6.44042969 21.3855775,6.60335124 21.7758789,6.92919922 C22.1661803,7.2550472 22.3613281,7.67935937 22.3613281,8.20214844 C22.3613281,8.63899958 22.2431652,9.01855308 22.0068359,9.34082031 C21.7705066,9.66308755 21.4446635,9.89225192 21.0292969,10.0283203 L21.0292969,10.0498047 C21.5485052,10.1106774 21.9638656,10.3067203 22.2753906,10.6379395 C22.5869156,10.9691586 22.7426758,11.3997369 22.7426758,11.9296875 C22.7426758,12.588545 22.50635,13.1220683 22.0336914,13.5302734 C21.5610328,13.9384786 20.9648473,14.1425781 20.2451172,14.1425781 L18,14.1425781 Z M18.9023438,7.25683594 L18.9023438,9.74365234 L19.8261719,9.74365234 C20.320315,9.74365234 20.7088202,9.62459429 20.9916992,9.38647461 C21.2745782,9.14835493 21.4160156,8.81266493 21.4160156,8.37939453 C21.4160156,7.63101839 20.9236703,7.25683594 19.9389648,7.25683594 L18.9023438,7.25683594 Z M18.9023438,10.5546875 L18.9023438,13.3261719 L20.1269531,13.3261719 C20.6569037,13.3261719 21.0677883,13.2008476 21.3596191,12.9501953 C21.65145,12.699543 21.7973633,12.3557965 21.7973633,11.9189453 C21.7973633,11.0094356 21.1779033,10.5546875 19.9389648,10.5546875 L18.9023438,10.5546875 Z M27.9106228,14.1425781 L27.0297634,14.1425781 L27.0297634,13.2832031 L27.0082791,13.2832031 C26.6251391,13.9420606 26.0611799,14.2714844 25.3163845,14.2714844 C24.7685302,14.2714844 24.3397422,14.1264663 24.0300076,13.8364258 C23.720273,13.5463853 23.565408,13.1614607 23.565408,12.6816406 C23.565408,11.6539662 24.1705452,11.0559904 25.3808377,10.8876953 L27.0297634,10.6567383 C27.0297634,9.7221633 26.6520003,9.25488281 25.8964627,9.25488281 C25.2340245,9.25488281 24.6360487,9.48046649 24.1025174,9.93164062 L24.1025174,9.02929688 C24.6432102,8.68554516 25.2662508,8.51367188 25.971658,8.51367188 C27.2643077,8.51367188 27.9106228,9.19758431 27.9106228,10.5654297 L27.9106228,14.1425781 Z M27.0297634,11.3603516 L25.7031033,11.5429688 C25.2948981,11.6002607 24.9869585,11.7014153 24.7792752,11.8464355 C24.5715918,11.9914558 24.4677517,12.2483706 24.4677517,12.6171875 C24.4677517,12.8857435 24.5635353,13.105061 24.7551052,13.2751465 C24.9466752,13.445232 25.2017996,13.5302734 25.5204861,13.5302734 C25.9573372,13.5302734 26.3180921,13.3771988 26.6027615,13.0710449 C26.8874309,12.764891 27.0297634,12.377281 27.0297634,11.9082031 L27.0297634,11.3603516 Z M33.1054253,13.8901367 C32.6828972,14.1443698 32.1816001,14.2714844 31.6015191,14.2714844 C30.8173355,14.2714844 30.1844479,14.01636 29.7028374,13.5061035 C29.221227,12.9958471 28.9804253,12.334314 28.9804253,11.5214844 C28.9804253,10.6155554 29.2400256,9.88777944 29.7592339,9.33813477 C30.2784422,8.78849009 30.9713064,8.51367188 31.8378472,8.51367188 C32.3212481,8.51367188 32.7473506,8.60318921 33.1161675,8.78222656 L33.1161675,9.68457031 C32.7079623,9.39811055 32.2711178,9.25488281 31.8056206,9.25488281 C31.2434434,9.25488281 30.7824291,9.45629681 30.422564,9.85913086 C30.0626989,10.2619649 29.8827691,10.7910123 29.8827691,11.4462891 C29.8827691,12.0908235 30.0519568,12.599282 30.3903374,12.9716797 C30.728718,13.3440774 31.1825709,13.5302734 31.7519097,13.5302734 C32.2317298,13.5302734 32.6828972,13.3709326 33.1054253,13.0522461 L33.1054253,13.8901367 Z M38.7889974,14.1425781 L37.5536458,14.1425781 L35.1259114,11.5 L35.1044271,11.5 L35.1044271,14.1425781 L34.2235677,14.1425781 L34.2235677,6 L35.1044271,6 L35.1044271,11.1616211 L35.1259114,11.1616211 L37.4354817,8.64257812 L38.5902669,8.64257812 L36.0389974,11.2958984 L38.7889974,14.1425781 Z" id="Previous-Label"></path>
                <path d="M-3.65732087,15.3426791 C-3.59501558,15.3426791 -3.47040498,15.3426791 -3.40809969,15.2803738 L5.9376947,5.74766355 L15.470405,15.2803738 C15.5950156,15.4049844 15.7819315,15.4049844 15.9065421,15.2803738 C16.0311526,15.1557632 16.0311526,14.9688474 15.9065421,14.8442368 L6.12461059,5.0623053 C6.0623053,5 6,5 5.87538941,5 C5.81308411,5 5.68847352,5.0623053 5.62616822,5.0623053 L-3.90654206,14.8442368 C-4.03115265,14.9688474 -4.03115265,15.1557632 -3.90654206,15.2803738 C-3.84423676,15.3426791 -3.78193146,15.3426791 -3.65732087,15.3426791 Z" id="Shape" stroke="#FFFFFF" stroke-width="0.8" fill-rule="nonzero" transform="translate(6.000000, 10.186916) scale(-1, 1) rotate(90.000000) translate(-6.000000, -10.186916) "></path>
            </g>
        </g>
    </g>
</svg>