<?xml version="1.0" encoding="UTF-8" standalone="no"?>
<svg width="12px" height="22px" viewBox="0 0 12 22" version="1.1" xmlns="http://www.w3.org/2000/svg" xmlns:xlink="http://www.w3.org/1999/xlink">
    <!-- Generator: Sketch 47.1 (45422) - http://www.bohemiancoding.com/sketch -->
    <title>Shape</title>
    <desc>Created with Sketch.</desc>
    <defs></defs>
    <g id="Symbols" stroke="none" stroke-width="1" fill="none" fill-rule="evenodd">
        <g id="row" transform="translate(-289.000000, -14.000000)" stroke="#BFC9D7" fill-rule="nonzero" stroke-width="0.8" fill="#BFC9D7">
            <path d="M285.529595,30.3426791 C285.5919,30.3426791 285.716511,30.3426791 285.778816,30.2803738 L295.124611,20.7476636 L304.657321,30.2803738 C304.781931,30.4049844 304.968847,30.4049844 305.093458,30.2803738 C305.218069,30.1557632 305.218069,29.9688474 305.093458,29.8442368 L295.311526,20.0623053 C295.249221,20 295.186916,20 295.062305,20 C295,20 294.875389,20.0623053 294.813084,20.0623053 L285.280374,29.8442368 C285.155763,29.9688474 285.155763,30.1557632 285.280374,30.2803738 C285.342679,30.3426791 285.404984,30.3426791 285.529595,30.3426791 Z" id="Shape" transform="translate(295.186916, 25.186916) rotate(90.000000) translate(-295.186916, -25.186916) "></path>
        </g>
    </g>
</svg>