<?xml version="1.0" encoding="UTF-8" standalone="no"?>
<svg width="81px" height="81px" viewBox="0 0 81 81" version="1.1" xmlns="http://www.w3.org/2000/svg" xmlns:xlink="http://www.w3.org/1999/xlink">
    <!-- Generator: Sketch 47.1 (45422) - http://www.bohemiancoding.com/sketch -->
    <title>Grind and brew</title>
    <desc>Created with Sketch.</desc>
    <defs></defs>
    <g id="Symbols" stroke="none" stroke-width="1" fill="none" fill-rule="evenodd">
        <g id="Grind-and-brew">
            <circle id="Oval" stroke="#29BB9C" fill="#FFFFFF" cx="40.5" cy="40.5" r="40.5"></circle>
            <g id="Group-2" transform="translate(21.000000, 11.000000)" fill-rule="nonzero" fill="#4F0E06">
                <g id="noun_626394_cc">
                    <g id="Group">
                        <path d="M25.359,18.2899592 C29.762,17.2995918 33,14.090449 33,10.2857143 C33,10.0153469 32.776,9.79591837 32.5,9.79591837 L27,9.79591837 L27,2.44897959 C27,2.17861224 26.776,1.95918367 26.5,1.95918367 L18.5,1.95918367 C18.224,1.95918367 18,2.17861224 18,2.44897959 L18,3.91836735 L1,3.91836735 L1,0.489795918 C1,0.219428571 0.776,0 0.5,0 C0.224,0 0,0.219428571 0,0.489795918 L0,4.40816327 C0,4.67853061 0.224,4.89795918 0.5,4.89795918 L18,4.89795918 L18,9.79591837 L12.5,9.79591837 C12.224,9.79591837 12,10.0153469 12,10.2857143 C12,14.090449 15.239,17.3005714 19.642,18.2899592 C21.8094121,18.6641778 22.9163083,18.8127484 25.359,18.2899592 Z M19,2.93877551 L26,2.93877551 L26,9.79591837 L19,9.79591837 L19,2.93877551 Z M13.021,10.7755102 L31.979,10.7755102 C31.652,14.5988571 27.525,17.6326531 22.5,17.6326531 C17.475,17.6326531 13.348,14.5988571 13.021,10.7755102 Z" id="Shape"></path>
                    </g>
                </g>
                <path d="M23.0000001,30 C24.1045695,30 25,28.9835653 25,27.7297298 C25,26.4758941 23.0000001,23 23.0000001,23 C23.0000001,23 21,26.4758941 21,27.7297298 C21,28.9835653 21.8954305,30 23.0000001,30 Z" id="Shape"></path>
                <g id="noun_731868_cc" transform="translate(9.000000, 32.000000)">
                    <path d="M25.6861814,4.5430053 L21.1510417,4.5430053 L21.1428666,1.19714869 C21.1412315,0.535577047 20.592682,0 19.9166007,0 L3.70250527,0 C3.1931962,0 2.73702532,0.307986801 2.55635549,0.77396683 C2.3752769,1.23994686 2.50771361,1.7663243 2.88826477,2.09751011 L6.51065401,5.2453752 C2.70677743,7.80686542 0,12.9366456 0,17.9332314 C0,21.6202734 1.48173787,25.0737254 4.17257384,27.6568147 C4.40188555,27.8768053 4.71008703,28 5.03136867,28 L22.6405459,28 C22.9618275,28 23.270029,27.8764053 23.4997495,27.6568147 C26.1901767,25.0733254 27.6719146,21.6198734 27.6719146,17.9332314 C27.6719146,13.8614059 25.9232595,9.69398454 23.2581751,6.94330243 L25.6861814,6.94330243 C27.263568,6.94330243 28.5474684,8.1992486 28.5474684,9.74318244 L28.5474684,15.8561205 L31,15.8561205 L31,9.74278245 C31,6.87570533 28.6161392,4.5430053 25.6861814,4.5430053 Z M25.2193829,17.9328315 C25.2193829,18.7203977 25.1343618,19.4939645 24.9741297,20.2467323 C24.0258175,20.1235376 23.3893855,19.8819479 22.6867352,19.6143594 C21.6010812,19.2011771 20.3703191,18.7327972 18.038779,18.7327972 C15.7068302,18.7327972 14.476068,19.2011771 13.390414,19.6143594 C12.3775185,19.9999429 11.5031909,20.3327286 9.63150053,20.3327286 C7.76021888,20.3327286 6.88589135,19.9999429 5.87381329,19.6143594 C5.00316456,19.2831736 4.03809335,18.9167893 2.4876846,18.784395 C2.46602057,18.502407 2.45253165,18.2188192 2.45253165,17.9328315 C2.45253165,13.5514192 4.98763186,8.91761782 8.34882648,6.94290245 L19.3627373,6.94290245 C22.703903,8.78002371 25.2193829,13.4954216 25.2193829,17.9328315 Z" id="Shape"></path>
                    <rect id="Rectangle-path" x="7" y="10" width="6" height="3"></rect>
                    <rect id="Rectangle-path" x="7" y="13" width="6" height="3"></rect>
                </g>
            </g>
        </g>
    </g>
</svg>