<?xml version="1.0" encoding="UTF-8" standalone="no"?>
<svg width="81px" height="81px" viewBox="0 0 81 81" version="1.1" xmlns="http://www.w3.org/2000/svg" xmlns:xlink="http://www.w3.org/1999/xlink">
    <!-- Generator: Sketch 47.1 (45422) - http://www.bohemiancoding.com/sketch -->
    <title>Grind</title>
    <desc>Created with Sketch.</desc>
    <defs></defs>
    <g id="Symbols" stroke="none" stroke-width="1" fill="none" fill-rule="evenodd">
        <g id="Grind">
            <circle id="Oval" stroke="#29BB9C" fill="#FFFFFF" cx="40.5" cy="40.5" r="40.5"></circle>
            <g id="noun_626394_cc" transform="translate(18.000000, 27.000000)" stroke-width="0.25" stroke="#4F0E06" fill="#4F0E06" fill-rule="nonzero">
                <g id="Group">
                    <path d="M34.794907,25.5297347 C40.8362326,24.1473469 45.2790698,19.6679184 45.2790698,14.3571429 C45.2790698,13.9797551 44.9717209,13.6734694 44.5930233,13.6734694 L37.0465116,13.6734694 L37.0465116,3.41836735 C37.0465116,3.04097959 36.7391628,2.73469388 36.3604651,2.73469388 L25.3837209,2.73469388 C25.0050233,2.73469388 24.6976744,3.04097959 24.6976744,3.41836735 L24.6976744,5.46938776 L1.37209302,5.46938776 L1.37209302,0.683673469 C1.37209302,0.306285714 1.06474419,0 0.686046512,0 C0.307348837,0 0,0.306285714 0,0.683673469 L0,6.15306122 C0,6.53044898 0.307348837,6.83673469 0.686046512,6.83673469 L24.6976744,6.83673469 L24.6976744,13.6734694 L17.1511628,13.6734694 C16.7724651,13.6734694 16.4651163,13.9797551 16.4651163,14.3571429 C16.4651163,19.6679184 20.9093256,24.1487143 26.9506512,25.5297347 C30.7315141,26.1762254 31.5007044,26.1762254 34.794907,25.5297347 Z M26.0697674,4.10204082 L35.6744186,4.10204082 L35.6744186,13.6734694 L26.0697674,13.6734694 L26.0697674,4.10204082 Z M17.8660233,15.0408163 L43.8781628,15.0408163 C43.4294884,20.3775714 37.7668605,24.6122449 30.872093,24.6122449 C23.9773256,24.6122449 18.3146977,20.3775714 17.8660233,15.0408163 Z" id="Shape"></path>
                </g>
            </g>
        </g>
    </g>
</svg>