<?xml version="1.0" encoding="UTF-8" standalone="no"?>
<svg width="90px" height="94px" viewBox="0 0 90 94" version="1.1" xmlns="http://www.w3.org/2000/svg" xmlns:xlink="http://www.w3.org/1999/xlink">
    <!-- Generator: Sketch 47.1 (45422) - http://www.bohemiancoding.com/sketch -->
    <title>Schedule</title>
    <desc>Created with Sketch.</desc>
    <defs></defs>
    <g id="Symbols" stroke="none" stroke-width="1" fill="none" fill-rule="evenodd">
        <g id="Schedule" fill-rule="nonzero" fill="#0B6C9F">
            <g id="Group" transform="translate(0.000000, 0.637820)">
                <path d="M20.999999,0.36216 C20.447699,0.36216 19.999999,0.80986 19.999999,1.36216 L19.999999,13.45596 C17.165199,13.93056 14.999999,16.39716 14.999999,19.36216 C14.999999,22.6641 17.698098,25.3622 20.999999,25.3622 C24.301899,25.3622 26.999999,22.6641 26.999999,19.36216 C26.999999,16.39716 24.834799,13.93056 21.999999,13.45596 L21.999999,1.36216 C21.999999,0.80986 21.552299,0.36216 20.999999,0.36216 Z M58.999999,0.36216 C58.447699,0.36216 57.999999,0.80986 57.999999,1.36216 L57.999999,13.45596 C55.165199,13.93056 52.999999,16.39716 52.999999,19.36216 C52.999999,22.6641 55.698098,25.3622 58.999999,25.3622 C62.301899,25.3622 65.000002,22.6641 65.000002,19.36216 C65.000002,16.39716 62.834799,13.93056 59.999999,13.45596 L59.999999,1.36216 C59.999999,0.80986 59.552299,0.36216 58.999999,0.36216 Z M9.031199,6.36216 C4.0476985,6.36216 -1.5e-06,10.41006 -1.5e-06,15.39336 L-1.5e-06,75.331 C-1.5e-06,80.3142 4.0476985,84.3622 9.031199,84.3622 L61.749999,84.3622 C64.268101,89.1184 69.253002,92.3622 75.000001,92.3622 C83.272401,92.3622 90.000001,85.6346 90.000001,77.3622 C90.000001,70.8399 85.824001,65.2987 80.000001,63.2372 L80.000001,15.39336 C80.000001,10.41006 75.952101,6.36216 70.968801,6.36216 L65.000001,6.36216 C64.471701,6.35516 63.985801,6.83379 63.985801,7.36216 C63.985801,7.89053 64.471701,8.36963 65.000001,8.36216 L70.968801,8.36216 C74.876902,8.36216 78.000001,11.48536 78.000001,15.39336 L78.000001,30.3622 L1.9999985,30.3622 L1.9999985,15.39336 C1.9999985,11.48536 5.122998,8.36216 9.031198,8.36216 L14.999998,8.36216 C15.528298,8.36916 16.014198,7.89053 16.014198,7.36216 C16.014198,6.83379 15.528298,6.35469 14.999998,6.36216 L9.031199,6.36216 Z M26.999999,6.36216 C26.447699,6.36216 25.999999,6.80986 25.999999,7.36216 C25.999999,7.91446 26.447699,8.36216 26.999999,8.36216 L52.999999,8.36216 C53.552299,8.36216 53.999999,7.91446 53.999999,7.36216 C53.999999,6.80986 53.552299,6.36216 52.999999,6.36216 L26.999999,6.36216 Z M20.999999,15.36216 C23.220999,15.36216 24.999999,17.14116 24.999999,19.36216 C24.999999,21.5832 23.220999,23.3622 20.999999,23.3622 C18.778998,23.3622 16.999999,21.5832 16.999999,19.36216 C16.999999,17.14116 18.778998,15.36216 20.999999,15.36216 Z M58.999999,15.36216 C61.220999,15.36216 62.999999,17.14116 62.999999,19.36216 C62.999999,21.5832 61.220999,23.3622 58.999999,23.3622 C56.778998,23.3622 54.999999,21.5832 54.999999,19.36216 C54.999999,17.14116 56.778998,15.36216 58.999999,15.36216 Z M1.9999985,32.3622 L78.000002,32.3622 L78.000002,62.6747 C77.033502,62.4785 76.023602,62.3622 75.000002,62.3622 C66.727602,62.3622 59.999999,69.0898 59.999999,77.3622 C59.999999,79.1123 60.321798,80.7994 60.874999,82.3622 L9.031199,82.3622 C5.122999,82.3622 1.9999985,79.2389 1.9999985,75.331 L1.9999985,32.3622 Z M75.000002,64.3622 C82.191602,64.3622 88.000002,70.1706 88.000002,77.3622 C88.000002,84.5537 82.191602,90.3622 75.000002,90.3622 C67.808402,90.3622 61.999999,84.5537 61.999999,77.3622 C61.999999,70.1706 67.808402,64.3622 75.000001,64.3622 L75.000002,64.3622 Z M75.000002,68.3622 C74.447702,68.3622 74.000002,68.8099 74.000002,69.3622 L74.000002,77.3622 C74.000002,77.9145 74.447702,78.3622 75.000002,78.3622 L82.000002,78.3622 C82.552302,78.3622 83.000002,77.9145 83.000002,77.3622 C83.000002,76.8099 82.552302,76.3622 82.000002,76.3622 L76.000002,76.3622 L76.000002,69.3622 C76.000002,68.8099 75.552302,68.3622 75.000002,68.3622 Z" id="Shape"></path>
            </g>
        </g>
    </g>
</svg>