<?xml version="1.0" encoding="UTF-8" standalone="no"?>
<svg width="81px" height="81px" viewBox="0 0 81 81" version="1.1" xmlns="http://www.w3.org/2000/svg" xmlns:xlink="http://www.w3.org/1999/xlink">
    <!-- Generator: Sketch 47.1 (45422) - http://www.bohemiancoding.com/sketch -->
    <title>Brew</title>
    <desc>Created with Sketch.</desc>
    <defs></defs>
    <g id="Symbols" stroke="none" stroke-width="1" fill="none" fill-rule="evenodd">
        <g id="Brew">
            <circle id="Oval" stroke="#29BB9C" fill="#FFFFFF" cx="40.5" cy="40.5" r="40.5"></circle>
            <path d="M38.0023943,22.6923386 C39.6605707,22.6923386 41.0047884,21.284963 41.0047884,19.5488775 C41.0047884,17.8127918 38.0023943,13 38.0023943,13 C38.0023943,13 35,17.8127918 35,19.5488775 C35,21.284963 36.3442177,22.6923386 38.0023943,22.6923386 Z" id="Shape" stroke="#4F0E06" fill="#4F0E06" fill-rule="nonzero"></path>
            <g id="noun_731868_cc" transform="translate(19.000000, 26.000000)" fill-rule="nonzero" fill="#4F0E06">
                <path d="M36.4578059,6.32775738 L30.0208333,6.32775738 L30.00923,1.66745711 C30.0069093,0.745982315 29.2283228,0 28.2687236,0 L5.25516878,0 C4.53227848,0 3.88481013,0.428981615 3.62837553,1.07802523 C3.37136076,1.72706884 3.55933544,2.46023742 4.09947257,2.92153193 L9.24092827,7.30605831 C3.84187764,10.8738483 0,18.0188992 0,24.9784295 C0,30.1139523 2.10311181,34.9241175 5.92236287,38.5219919 C6.24783755,38.8284074 6.68528481,39 7.14129747,39 L32.1349684,39 C32.590981,39 33.0284283,38.8278502 33.3544831,38.5219919 C37.173154,34.9235604 39.2762658,30.1133951 39.2762658,24.9784295 C39.2762658,19.3069583 36.7943038,13.5023356 33.0116034,9.67102838 L36.4578059,9.67102838 C38.6966772,9.67102838 40.5189873,11.420382 40.5189873,13.5708612 L40.5189873,22.0853106 L44,22.0853106 L44,13.5703041 C44,9.57687528 40.6164557,6.32775738 36.4578059,6.32775738 Z M35.7952532,24.9778724 C35.7952532,26.0748396 35.6745781,27.1523078 35.4471519,28.2008057 C34.1011603,28.029213 33.1978376,27.6927132 32.2005274,27.3200006 C30.6595992,26.7444967 28.912711,26.0921103 25.6034283,26.0921103 C22.2935654,26.0921103 20.5466772,26.7444967 19.0057489,27.3200006 C17.5680907,27.8570633 16.3271097,28.3205863 13.6705169,28.3205863 C11.0145042,28.3205863 9.77352321,27.8570633 8.33702532,27.3200006 C7.10126582,26.8587061 5.73148734,26.3483851 3.53090717,26.1639787 C3.50015823,25.7712098 3.48101266,25.3762124 3.48101266,24.9778724 C3.48101266,18.8751911 7.07921941,12.4209677 11.8499473,9.67047127 L27.4825949,9.67047127 C32.2248945,12.2293187 35.7952532,18.7971944 35.7952532,24.9778724 Z" id="Shape"></path>
                <rect id="Rectangle-path" x="10.5698324" y="13.8614458" width="8.60335196" height="3.52409639"></rect>
                <rect id="Rectangle-path" x="10.5698324" y="18.560241" width="8.60335196" height="3.52409639"></rect>
            </g>
        </g>
    </g>
</svg>