<?xml version="1.0" encoding="UTF-8" standalone="no"?>
<svg width="98px" height="97px" viewBox="0 0 98 97" version="1.1" xmlns="http://www.w3.org/2000/svg" xmlns:xlink="http://www.w3.org/1999/xlink">
    <!-- Generator: Sketch 47.1 (45422) - http://www.bohemiancoding.com/sketch -->
    <title>new feature</title>
    <desc>Created with Sketch.</desc>
    <defs></defs>
    <g id="Symbols" stroke="none" stroke-width="1" fill="none" fill-rule="evenodd">
        <g id="new-feature" fill-rule="nonzero" fill="#F49C00">
            <g id="noun_754842_cc">
                <path d="M32.3,96.3 L33.3,68.8 L6.5,74.6 L24.9,54.2 L0.6,41.4 L27.8,37.6 L17.5,12.1 L40.8,26.7 L49.2,0.5 L57.6,26.7 L80.9,12.1 L70.6,37.6 L97.8,41.4 L73.5,54.2 L92,74.6 L65.1,68.8 L66.1,96.3 L49.2,74.6 L32.3,96.3 Z M49.2,69.7 L62.7,87.1 L61.9,65.1 L83.5,69.7 L68.7,53.4 L88.2,43.1 L66.4,40.1 L74.7,19.7 L56,31.4 L49.2,10.4 L42.4,31.4 L23.8,19.6 L32.1,40 L10.3,43 L29.8,53.3 L14.9,69.7 L36.5,65.1 L35.7,87.1 L49.2,69.7 Z" id="Shape"></path>
            </g>
        </g>
    </g>
</svg>