<?xml version="1.0" encoding="UTF-8" standalone="no"?>
<svg width="81px" height="81px" viewBox="0 0 81 81" version="1.1" xmlns="http://www.w3.org/2000/svg" xmlns:xlink="http://www.w3.org/1999/xlink">
    <!-- Generator: Sketch 47.1 (45422) - http://www.bohemiancoding.com/sketch -->
    <title>coffee strength</title>
    <desc>Created with Sketch.</desc>
    <defs></defs>
    <g id="Symbols" stroke="none" stroke-width="1" fill="none" fill-rule="evenodd">
        <g id="coffee-strength">
            <circle id="Oval" stroke="#29BB9C" fill="#FFFFFF" cx="40.5" cy="40.5" r="40.5"></circle>
            <g id="noun_1206477_cc" transform="translate(14.000000, 22.000000)">
                <g id="Group">
                    <path d="M51.7272249,21.07109 C52.2775145,28.8151659 38.5202738,32.4170616 35.2185361,25.3933649 C41.6385817,26.2938389 42.739161,24.492891 43.8397402,22.6919431 C44.7568896,21.2511848 45.8574688,19.2701422 51.7272249,21.07109 Z" id="Shape" fill="#4F0E06"></path>
                    <path d="M51.3603651,19.6303318 C45.3071792,17.8293839 44.0231701,19.8104265 42.9225908,21.6113744 C41.8220116,23.2322275 41.0882921,24.8530806 34.6682464,23.7725118 C33.7510971,15.6682464 48.7923468,11.8862559 51.3603651,19.6303318 Z" id="Shape" fill="#4F0E06"></path>
                    <path d="M33.5676672,8.64454976 C38.8871336,13.3270142 32.2836581,24.492891 25.4967527,21.971564 C30.4493593,18.3696682 29.8990697,16.5687204 29.5322099,14.5876777 C29.1653502,12.9668246 28.6150606,10.985782 33.5676672,8.64454976 Z" id="Shape" fill="#4F0E06"></path>
                    <path d="M32.4670879,7.92417062 C27.3310514,10.4454976 27.6979112,12.6066351 28.2482008,14.5876777 C28.6150606,16.2085308 29.1653502,17.8293839 24.2127435,21.07109 C18.1595577,16.3886256 25.6801826,4.32227488 32.4670879,7.92417062 Z" id="Shape" fill="#4F0E06"></path>
                    <path d="M36.8694049,34.5781991 C33.7510971,40.7014218 21.6447253,37.8199052 22.011585,30.9763033 C26.7807618,34.3981043 28.4316307,33.3175355 29.8990697,32.4170616 C31.3665087,31.6966825 33.0173776,30.6161137 36.8694049,34.5781991 Z" id="Shape" fill="#4F0E06"></path>
                    <path d="M37.2362647,33.3175355 C33.2008074,29.3554502 31.3665087,30.2559242 29.7156398,31.3364929 C28.2482008,32.056872 26.9641917,32.957346 22.3784448,29.535545 C25.1298929,22.6919431 38.5202738,26.1137441 37.2362647,33.3175355 Z" id="Shape" fill="#4F0E06"></path>
                    <path d="M20.7275759,24.8530806 C19.6269967,21.7914692 17.7926979,18.7298578 17.2424083,17.6492891 C14.8578199,17.8293839 12.6566614,17.2890995 9.17149377,15.8483412 C12.1063718,16.7488152 14.4909602,17.1090047 16.8755485,16.92891 C16.3252589,16.028436 15.7749693,15.3080569 15.2246797,14.5876777 C13.5738108,14.5876777 11.9229419,14.2274882 9.72178339,13.3270142 C11.739512,13.8672986 13.3903809,14.0473934 14.8578199,14.0473934 C14.3075303,13.3270142 13.7572407,12.6066351 13.206951,11.8862559 C12.1063718,11.8862559 11.0057925,11.7061611 9.35492364,10.985782 C10.6389328,11.3459716 11.739512,11.5260664 12.8400913,11.5260664 C10.4555029,9.00473934 7.70405477,7.20379147 4.03545726,5.22274882 C11.9229419,8.46445498 14.3075303,10.985782 19.9938564,19.8104265 C17.0589784,0.360189573 9.35492364,9.72511848 0.550289626,0 C0.733719501,24.8530806 10.8223626,18.549763 20.7275759,24.8530806 Z" id="Shape" fill="#29BB9C"></path>
                    <path d="M21.8281552,28.4549763 C19.8104265,27.3744076 17.4258382,26.6540284 16.6921187,26.4739336 C15.5915394,27.7345972 14.1241004,28.4549763 11.9229419,29.3554502 C13.7572407,28.4549763 15.0412498,27.5545024 16.141829,26.2938389 C15.4081095,26.1137441 14.8578199,25.9336493 14.1241004,25.9336493 C13.3903809,26.6540284 12.4732315,27.1943128 10.8223626,27.9146919 C12.1063718,27.1943128 13.0235212,26.6540284 13.7572407,25.7535545 C13.0235212,25.7535545 12.4732315,25.5734597 11.9229419,25.5734597 C11.3726523,26.1137441 10.6389328,26.4739336 9.53835352,27.014218 C10.4555029,26.4739336 11.0057925,26.1137441 11.5560821,25.5734597 C9.17149377,25.3933649 6.97033526,25.7535545 4.21888713,26.6540284 C9.53835352,24.492891 12.1063718,24.6729858 19.076707,26.1137441 C8.07091452,18.0094787 8.98806389,26.2938389 0,25.7535545 C12.1063718,37.6398104 13.9406705,29.8957346 21.8281552,28.4549763 Z" id="Shape" fill="#29BB9C"></path>
                </g>
            </g>
        </g>
    </g>
</svg>