<?xml version="1.0" encoding="UTF-8" standalone="no"?>
<svg width="40px" height="40px" viewBox="0 0 40 40" version="1.1" xmlns="http://www.w3.org/2000/svg" xmlns:xlink="http://www.w3.org/1999/xlink">
    <!-- Generator: Sketch 47.1 (45422) - http://www.bohemiancoding.com/sketch -->
    <title>Page 1</title>
    <desc>Created with Sketch.</desc>
    <defs>
        <polygon id="path-1" points="19.5999927 39.2156863 39.1999706 39.2156863 39.1999706 0.0154218991 19.5999927 0.0154218991 1.46875229e-05 0.0154218991 1.46875229e-05 39.2156863 19.5999927 39.2156863"></polygon>
    </defs>
    <g id="Page-1" stroke="none" stroke-width="1" fill="none" fill-rule="evenodd">
        <g id="Log-in-Screen-Filled" transform="translate(-90.000000, -521.000000)">
            <g id="Group-5" transform="translate(58.000000, 258.000000)">
                <g id="Group-2" transform="translate(32.000000, 263.000000)">
                    <g id="Page-1">
                        <g id="Group-3">
                            <mask id="mask-2" fill="white">
                                <use xlink:href="#path-1"></use>
                            </mask>
                            <g id="Clip-2"></g>
                            <path d="M37.0365132,39.2156863 C38.2311963,39.2156863 39.1999853,38.2468973 39.1999853,37.0522141 L39.1999853,2.1790409 C39.1999853,0.983917162 38.2311963,0.0154218991 37.0365132,0.0154218991 L2.16348682,0.0154218991 C0.968363076,0.0154218991 1.46875229e-05,0.983917162 1.46875229e-05,2.1790409 L1.46875229e-05,37.0522141 C1.46875229e-05,38.2468973 0.968363076,39.2156863 2.16348682,39.2156863 L37.0365132,39.2156863 Z" id="Fill-1" fill="#FFFFFF" mask="url(#mask-2)"></path>
                        </g>
                        <path d="M27.264799,39.2156863 L27.264799,24.0497633 L32.2918752,24.0497633 L33.0444949,18.1392279 L27.264799,18.1392279 L27.264799,14.3656123 C27.264799,12.6543744 27.7339909,11.4882616 30.1573276,11.4882616 L33.2480818,11.4867942 L33.2480818,6.20047483 C32.7133944,6.12857408 30.8787934,5.96760443 28.7443907,5.96760443 C24.2882274,5.96760443 21.237611,8.7219902 21.237611,13.7804282 L21.237611,18.1392279 L16.1977835,18.1392279 L16.1977835,24.0497633 L21.237611,24.0497633 L21.237611,39.2156863 L27.264799,39.2156863 Z" id="Fill-4" fill="#3C5A99"></path>
                    </g>
                </g>
            </g>
        </g>
    </g>
</svg>