<?xml version="1.0" encoding="UTF-8" standalone="no"?>
<svg width="320px" height="567px" viewBox="0 0 320 567" version="1.1" xmlns="http://www.w3.org/2000/svg" xmlns:xlink="http://www.w3.org/1999/xlink">
    <!-- Generator: Sketch 47.1 (45422) - http://www.bohemiancoding.com/sketch -->
    <title>splash-screen</title>
    <desc>Created with Sketch.</desc>
    <defs>
        <linearGradient x1="50%" y1="0%" x2="50%" y2="100%" id="linearGradient-1">
            <stop stop-color="#106CB6" offset="0%"></stop>
            <stop stop-color="#223771" offset="37.3416262%"></stop>
            <stop stop-color="#223971" offset="65.5731824%"></stop>
            <stop stop-color="#0971A4" offset="100%"></stop>
        </linearGradient>
    </defs>
    <g id="Page-1" stroke="none" stroke-width="1" fill="none" fill-rule="evenodd">
        <g id="splash-screen">
            <g id="320x567-background-screen">
                <path d="M320,245.841236 L320,0 L4.08562073e-14,0 L4.08562073e-14,227.864116 C10.2064283,221.967531 22.0238168,218.58625 34.5862334,218.58625 C37.7733899,218.58625 40.9605463,218.58625 44.1477028,219.117443 L44.1477028,218.58625 C44.1477028,180.340372 75.4880749,149 113.733953,149 C148.261481,149 176.94589,174.497252 182.257817,207.431202 C192.350479,202.650467 203.505527,199.994504 214.660575,199.994504 C244.407369,199.994504 270.967006,216.461479 283.715632,243.021116 C287.965174,241.958731 292.745909,241.427538 298.057836,241.427538 C305.815039,241.427538 313.226105,243.000889 320.000001,245.841242 L320,245.841236 Z M320,353.49556 L320,567 L4.08562073e-14,567 L4.08562073e-14,348.480883 C10.2064283,354.377469 22.0238168,357.75875 34.5862334,357.75875 L298.057836,357.75875 C305.815039,357.75875 313.226105,356.248333 320.000001,353.495554 L320,353.49556 Z" id="Rectangle" fill="url(#linearGradient-1)" fill-rule="nonzero"></path>
                <g id="Apps" transform="translate(25.000000, 163.000000)">
                    <g id="noun_1060289_cc-2" transform="translate(232.000000, 127.000000)" fill-rule="nonzero" fill="#3EB5D6">
                        <g id="Group">
                            <path d="M2.22222222,50 L35.5555556,50 C36.7777778,50 37.7777778,49 37.7777778,47.7777778 L37.7777778,2.22222222 C37.7777778,1 36.7777778,0 35.5555556,0 L2.22222222,0 C1,0 0,1 0,2.22222222 L0,47.7777778 C0,49 1,50 2.22222222,50 Z M35.5555556,48.8888889 L2.22222222,48.8888889 C1.61111111,48.8888889 1.11111111,48.3888889 1.11111111,47.7777778 L1.11111111,15.1111111 L36.6666667,15.1111111 L36.6666667,47.7777778 C36.6666667,48.3888889 36.1666667,48.8888889 35.5555556,48.8888889 Z M2.22222222,1.11111111 L35.5555556,1.11111111 C36.1666667,1.11111111 36.6666667,1.61111111 36.6666667,2.22222222 L36.6666667,14 L1.11111111,14 L1.11111111,2.22222222 C1.11111111,1.61111111 1.61111111,1.11111111 2.22222222,1.11111111 Z" id="Shape"></path>
                            <path d="M18.8888889,20 C12.4444444,20 7.22222222,25.2222222 7.22222222,31.6666667 C7.22222222,38.1111111 12.4444444,43.3333333 18.8888889,43.3333333 C25.3333333,43.3333333 30.5555556,38.1111111 30.5555556,31.6666667 C30.5555556,25.2222222 25.3333333,20 18.8888889,20 Z M18.8888889,42.2222222 C13.0555556,42.2222222 8.33333333,37.5 8.33333333,31.6666667 C8.33333333,25.8333333 13.0555556,21.1111111 18.8888889,21.1111111 C24.7222222,21.1111111 29.4444444,25.8333333 29.4444444,31.6666667 C29.4444444,37.5 24.7222222,42.2222222 18.8888889,42.2222222 Z" id="Shape"></path>
                            <path d="M22.2777778,27.7222222 C24.4444444,29.8888889 24.4444444,33.3888889 22.2777778,35.5555556 L23.0555556,36.3333333 C25.6666667,33.7222222 25.6666667,29.5 23.0555556,26.8888889 L22.2777778,27.7222222 Z" id="Shape"></path>
                            <path d="M21.6666667,9.16666667 C22.4444444,9.16666667 23.0555556,8.55555556 23.0555556,7.77777778 C23.0555556,7 22.4444444,6.38888889 21.6666667,6.38888889 C20.8888889,6.38888889 20.2777778,7 20.2777778,7.77777778 C20.2777778,8.55555556 20.8888889,9.16666667 21.6666667,9.16666667 Z M21.6666667,7.5 C21.8333333,7.5 21.9444444,7.61111111 21.9444444,7.77777778 C21.9444444,7.94444444 21.8333333,8.05555556 21.6666667,8.05555556 C21.5,8.05555556 21.3888889,7.94444444 21.3888889,7.77777778 C21.3888889,7.61111111 21.5,7.5 21.6666667,7.5 Z" id="Shape"></path>
                            <path d="M28.8888889,9.16666667 C29.6666667,9.16666667 30.2777778,8.55555556 30.2777778,7.77777778 C30.2777778,7 29.6666667,6.38888889 28.8888889,6.38888889 C28.1111111,6.38888889 27.5,7 27.5,7.77777778 C27.5,8.55555556 28.1111111,9.16666667 28.8888889,9.16666667 Z M28.8888889,7.5 C29.0555556,7.5 29.1666667,7.61111111 29.1666667,7.77777778 C29.1666667,7.94444444 29.0555556,8.05555556 28.8888889,8.05555556 C28.7222222,8.05555556 28.6111111,7.94444444 28.6111111,7.77777778 C28.6111111,7.61111111 28.7222222,7.5 28.8888889,7.5 Z" id="Shape"></path>
                        </g>
                    </g>
                    <g id="noun_371466_cc" transform="translate(232.000000, 95.000000)" fill-rule="nonzero" fill="#3EB5D6">
                        <g id="Group">
                            <path d="M33.2834661,18.6245642 L30.1880317,18.6245642 C29.7605373,18.6245642 29.4147537,18.9715089 29.4147537,19.4001644 C29.4147537,19.8264978 29.7606098,20.1734425 30.1880317,20.1734425 L33.2834661,20.1734425 C33.712049,20.1734425 34.0590663,19.8264978 34.0590663,19.4001644 C34.0590663,18.9715815 33.712049,18.6245642 33.2834661,18.6245642 Z" id="Shape"></path>
                            <path d="M30.1880317,10.8848173 C30.6155262,10.8848173 30.9613098,10.5384532 30.9613098,10.1109587 C30.9613098,9.68346428 30.6155262,9.33651962 30.1880317,9.33651962 C29.7605373,9.33651962 29.4147537,9.68346428 29.4147537,10.1109587 C29.4147537,10.5384532 29.7605373,10.8848173 30.1880317,10.8848173 Z" id="Shape"></path>
                            <path d="M33.2834661,9.33651962 C32.8571327,9.33651962 32.510188,9.68346428 32.510188,10.1109587 C32.510188,10.5384532 32.8571327,10.8848173 33.2834661,10.8848173 C33.712049,10.8848173 34.0590663,10.5384532 34.0590663,10.1109587 C34.0590663,9.68346428 33.712049,9.33651962 33.2834661,9.33651962 Z" id="Shape"></path>
                            <path d="M30.1880317,13.9802517 C30.6155262,13.9802517 30.9613098,13.6343955 30.9613098,13.2069736 C30.9613098,12.7795517 30.6154536,12.433115 30.1880317,12.433115 C29.7606098,12.433115 29.4147537,12.7794791 29.4147537,13.2069736 C29.4147537,13.6344681 29.7605373,13.9802517 30.1880317,13.9802517 Z" id="Shape"></path>
                            <path d="M33.2834661,12.433115 C32.8571327,12.433115 32.510188,12.7794791 32.510188,13.2069736 C32.510188,13.6344681 32.8571327,13.9802517 33.2834661,13.9802517 C33.712049,13.9802517 34.0590663,13.6343955 34.0590663,13.2069736 C34.0590663,12.7795517 33.712049,12.433115 33.2834661,12.433115 Z" id="Shape"></path>
                            <path d="M30.1880317,17.0780081 C30.6155262,17.0780081 30.9613098,16.7310635 30.9613098,16.3024079 C30.9613098,15.8760746 30.6154536,15.5291299 30.1880317,15.5291299 C29.7606098,15.5291299 29.4147537,15.8760746 29.4147537,16.3024079 C29.4147537,16.7310635 29.7605373,17.0780081 30.1880317,17.0780081 Z" id="Shape"></path>
                            <path d="M33.2834661,15.5291299 C32.8571327,15.5291299 32.510188,15.8760746 32.510188,16.3024079 C32.510188,16.7309909 32.8571327,17.0780081 33.2834661,17.0780081 C33.712049,17.0780081 34.0590663,16.7310635 34.0590663,16.3024079 C34.0590663,15.8760746 33.712049,15.5291299 33.2834661,15.5291299 Z" id="Shape"></path>
                            <path d="M36.3812225,0.0478944734 L0.773858582,0.0478944734 C0.346364124,0.0478944734 0,0.394839136 0,0.822333595 L0,22.4955988 C0,22.9230932 0.346364124,23.2688768 0.773858582,23.2688768 L1.5482977,23.2688768 C1.5482977,23.6974598 1.89466183,24.044477 2.32215629,24.044477 C2.74965075,24.044477 3.09601487,23.6975323 3.09601487,23.2688768 L34.0590663,23.2688768 C34.0590663,23.6974598 34.4049224,24.044477 34.8323443,24.044477 C35.2597662,24.044477 35.6056223,23.6975323 35.6056223,23.2688768 L36.3812225,23.2688768 C36.8075559,23.2688768 37.1545006,22.9230206 37.1545006,22.4955988 L37.1545006,0.822333595 C37.1545006,0.394839136 36.8075559,0.0478944734 36.3812225,0.0478944734 Z M35.6056223,6.24050475 L27.8658754,6.24050475 L27.8658754,1.59619218 L35.6056223,1.59619218 L35.6056223,6.24050475 Z M1.5482977,21.7223207 L1.5482977,1.59619218 L26.3169972,1.59619218 L26.3169972,6.24050475 C25.8906638,6.24050475 25.5437191,6.58686887 25.5437191,7.01436333 L25.5437191,16.3024079 C25.5437191,16.7309909 25.8906638,17.0780081 26.3169972,17.0780081 L26.3169972,21.7223207 L1.5482977,21.7223207 Z M27.8658754,21.7223207 L27.8658754,7.78880245 L35.6056223,7.78880245 L35.6056223,21.7223207 L27.8658754,21.7223207 Z" id="Shape"></path>
                            <path d="M3.09601487,20.1734425 L23.9948409,20.1734425 L23.9948409,3.14448988 L3.09601487,3.14448988 L3.09601487,20.1734425 Z M4.64431257,4.69220705 L22.4482848,4.69220705 L22.4482848,18.6245642 L4.64431257,18.6245642 L4.64431257,4.69220705 Z" id="Shape"></path>
                        </g>
                    </g>
                    <path d="M85.3226,0 C74.099,0 65,9.099 65,20.322 C65,20.5626 65.0072,20.8074 65.018,21.0546 C65.0942,23.1894 65.4968,25.2396 66.1814,27.1578 C70.517,41.409 85.3226,60 85.3226,60 C85.3226,60 100.1264,41.4108 104.4626,27.1596 C105.1484,25.2414 105.5504,23.1894 105.626,21.0546 C105.638,20.8074 105.6446,20.5632 105.6446,20.322 C105.6452,9.099 96.5462,0 85.3226,0 Z M85.3226,30.2754 C79.826,30.2754 75.3692,25.8186 75.3692,20.322 C75.3692,14.826 79.826,10.3692 85.3226,10.3692 C90.8198,10.3692 95.276,14.826 95.276,20.322 C95.276,25.8186 90.8198,30.2754 85.3226,30.2754 Z" id="Shape" stroke="#3EB5D6" stroke-width="1.5"></path>
                    <g id="noun_10740_cc-2" transform="translate(0.000000, 78.000000)" fill-rule="nonzero" fill="#3EB5D6">
                        <g id="Group">
                            <path d="M52.869,2.324 C52.869,1.043 51.827,0 50.546,0 L2.324,0 C1.043,0 0,1.043 0,2.324 L0,34.244 C0,34.866 0.249,35.429 0.648,35.847 C0.249,36.264 0,36.827 0,37.449 L0,95.906 C0,97.187 1.043,98.229 2.324,98.229 L50.546,98.229 C51.827,98.229 52.869,97.187 52.869,95.906 L52.869,37.448 C52.869,36.827 52.62,36.263 52.222,35.846 C52.62,35.428 52.869,34.866 52.869,34.243 L52.869,2.324 L52.869,2.324 Z M51.426,95.905 C51.426,96.39 51.03,96.785 50.545,96.785 L2.324,96.785 C1.839,96.785 1.443,96.39 1.443,95.905 L1.443,37.448 C1.443,36.963 1.839,36.567 2.324,36.567 L50.546,36.567 C51.031,36.567 51.427,36.963 51.427,37.448 L51.427,95.905 L51.426,95.905 Z M51.426,34.244 C51.426,34.729 51.03,35.125 50.545,35.125 L2.324,35.125 C1.839,35.125 1.443,34.729 1.443,34.244 L1.443,2.324 C1.443,1.839 1.839,1.443 2.324,1.443 L50.546,1.443 C51.031,1.443 51.427,1.839 51.427,2.324 L51.427,34.244 L51.426,34.244 Z" id="Shape"></path>
                            <path d="M47.56,19 L46.005,19 C44.9,19 44,19.899 44,21.005 L44,32.207 C44,33.312 44.899,34.212 46.005,34.212 L47.56,34.212 C48.665,34.212 49.565,33.313 49.565,32.207 L49.565,21.005 C49.565,19.9 48.666,19 47.56,19 Z M48.122,32.208 C48.122,32.518 47.87,32.77 47.56,32.77 L46.005,32.77 C45.694,32.77 45.443,32.518 45.443,32.208 L45.443,21.005 C45.443,20.695 45.694,20.443 46.005,20.443 L47.56,20.443 C47.87,20.443 48.122,20.695 48.122,21.005 L48.122,32.208 Z" id="Shape"></path>
                            <path d="M47.56,39 L46.005,39 C44.9,39 44,39.899 44,41.005 L44,52.207 C44,53.311 44.899,54.212 46.005,54.212 L47.56,54.212 C48.665,54.212 49.565,53.312 49.565,52.207 L49.565,41.005 C49.565,39.899 48.666,39 47.56,39 Z M48.122,52.207 C48.122,52.517 47.87,52.769 47.56,52.769 L46.005,52.769 C45.694,52.769 45.443,52.517 45.443,52.207 L45.443,41.005 C45.443,40.694 45.694,40.442 46.005,40.442 L47.56,40.442 C47.87,40.442 48.122,40.694 48.122,41.005 L48.122,52.207 Z" id="Shape"></path>
                        </g>
                    </g>
                    <g id="noun_10750_cc-2" transform="translate(124.000000, 119.000000)" fill-rule="nonzero" fill="#3EB5D6">
                        <g id="Group">
                            <path d="M14.7708333,28.952381 L4.53928571,28.952381 C3.58988095,28.952381 2.81785714,29.725 2.81785714,30.6738095 L2.81785714,37.0809524 C2.81785714,38.0303571 3.58988095,38.802381 4.53928571,38.802381 L14.7708333,38.802381 C15.7202381,38.802381 16.4922619,38.0303571 16.4922619,37.0809524 L16.4922619,30.6738095 C16.4922619,29.725 15.7202381,28.952381 14.7708333,28.952381 Z M15.3446429,37.0809524 C15.3446429,37.397619 15.0875,37.6547619 14.7708333,37.6547619 L4.53928571,37.6547619 C4.22261905,37.6547619 3.96547619,37.397619 3.96547619,37.0809524 L3.96547619,30.6738095 C3.96547619,30.3577381 4.22321429,30.1 4.53928571,30.1 L14.7708333,30.1 C15.0875,30.1 15.3446429,30.3577381 15.3446429,30.6738095 L15.3446429,37.0809524 L15.3446429,37.0809524 Z" id="Shape"></path>
                            <path d="M22.7077381,17.9559524 L20.4130952,17.9559524 C19.5517857,17.9559524 18.8416667,18.5940476 18.7172619,19.4208333 C18.7291667,19.2779762 18.7392857,19.1345238 18.7392857,18.9875 L18.7392857,5.5702381 C18.7392857,2.72321429 16.422619,0.406547619 13.5755952,0.406547619 L5.73452381,0.406547619 C2.8875,0.406547619 0.570833333,2.72321429 0.570833333,5.5702381 L0.570833333,18.9880952 C0.570833333,21.1684524 1.93095238,23.0327381 3.8452381,23.7886905 L2.33988095,23.7886905 C1.39047619,23.7886905 0.618452381,24.5607143 0.618452381,25.510119 L0.618452381,56.2053571 C0.618452381,57.1553571 1.39047619,57.9267857 2.33988095,57.9267857 L17.0660714,57.9267857 C18.0154762,57.9267857 18.7875,57.1553571 18.7875,56.2053571 L18.7875,36.0922619 C18.9755952,36.6559524 19.4428571,37.0904762 20.0285714,37.225 L21.5607143,41.7404762 L23.0922619,37.225 C23.8559524,37.0494048 24.4291667,36.3678571 24.4291667,35.5505952 L24.4291667,19.677381 C24.4291667,18.7279762 23.6571429,17.9559524 22.7077381,17.9559524 Z M1.71845238,5.5702381 C1.71845238,3.35595238 3.5202381,1.55416667 5.73452381,1.55416667 L13.5761905,1.55416667 C15.7910714,1.55416667 17.5922619,3.35595238 17.5922619,5.5702381 L17.5922619,7.82321429 C17.410119,7.77380952 17.2160714,7.74345238 17.0089286,7.74345238 L2.30357143,7.74345238 C2.09583333,7.74345238 1.90119048,7.77440476 1.71845238,7.82380952 L1.71845238,5.5702381 Z M17.5869048,15.777381 C17.5571429,15.8345238 17.3494048,15.9714286 17.0083333,15.9714286 L2.30357143,15.9714286 C1.96309524,15.9714286 1.75535714,15.8345238 1.73154762,15.8083333 L1.72559524,9.08452381 C1.75535714,9.02738095 1.96309524,8.89107143 2.30357143,8.89107143 L17.0083333,8.89107143 C17.3488095,8.89107143 17.5571429,9.02738095 17.5809524,9.05416667 L17.5869048,15.777381 Z M1.71845238,18.9880952 L1.71845238,17.0386905 C1.90119048,17.0880952 2.09583333,17.1190476 2.30357143,17.1190476 L17.0083333,17.1190476 C17.2160714,17.1190476 17.410119,17.0880952 17.5916667,17.0392857 L17.5916667,18.9880952 C17.5916667,21.2029762 15.7904762,23.0047619 13.5755952,23.0047619 L5.73452381,23.0047619 C3.5202381,23.0041667 1.71845238,21.2029762 1.71845238,18.9880952 Z M17.639881,56.2059524 C17.639881,56.5220238 17.3821429,56.7797619 17.0660714,56.7797619 L2.33988095,56.7797619 C2.02321429,56.7797619 1.76607143,56.5220238 1.76607143,56.2059524 L1.76607143,25.510119 C1.76607143,25.1934524 2.02321429,24.9363095 2.33988095,24.9363095 L17.0660714,24.9363095 C17.3821429,24.9363095 17.639881,25.1934524 17.639881,25.510119 L17.639881,56.2059524 L17.639881,56.2059524 Z M18.6916667,19.677381 L18.6916667,24.9696429 C18.4630952,24.2863095 17.825,23.7892857 17.0660714,23.7892857 L15.464881,23.7892857 C17.1958333,23.1059524 18.4702381,21.5166667 18.6994048,19.6071429 C18.6982143,19.6303571 18.6916667,19.6529762 18.6916667,19.677381 Z M21.5607143,38.1690476 L21.2559524,37.2720238 L21.8642857,37.2720238 L21.5607143,38.1690476 Z M23.2815476,35.5505952 C23.2815476,35.8672619 23.0238095,36.125 22.7077381,36.125 L20.4130952,36.125 C20.0964286,36.125 19.8392857,35.8672619 19.8392857,35.5505952 L19.8392857,19.677381 C19.8392857,19.3613095 20.0964286,19.1035714 20.4130952,19.1035714 L22.7077381,19.1035714 C23.0238095,19.1035714 23.2815476,19.3613095 23.2815476,19.677381 L23.2815476,35.5505952 Z" id="Shape"></path>
                            <polygon id="Shape" points="6.06547619 31.3833333 5.5202381 32.3928571 6.26071429 32.7928571 6.26071429 35.0035714 7.4077381 35.0035714 7.4077381 32.7511905 7.39345238 32.7511905 7.66607143 32.2470238"></polygon>
                            <polygon id="Shape" points="11.6910714 32.2470238 11.9982143 32.8166667 11.9982143 35.0035714 13.1458333 35.0035714 13.1458333 32.7660714 13.8363095 32.3928571 13.2910714 31.3833333"></polygon>
                        </g>
                    </g>
                    <g id="noun_311677_cc-2" transform="translate(119.000000, 78.000000)" fill-rule="nonzero" fill="#3EB5D6">
                        <g id="Group">
                            <path d="M13.0129338,12.2617731 C13.397192,12.2617731 13.7814503,12.3316382 14.1307759,12.506301 C14.5499667,11.5631217 14.8992924,10.3404819 14.8992924,9.78156087 C14.8992924,8.80344902 14.0958434,8 13.1177315,8 C11.9300243,8 10.3580588,8.38425823 10.0436657,8.90824672 C10.0087331,8.97811185 9.93886801,9.08290955 10.1135308,9.39730264 L12.4889453,12.2967056 C12.6636082,12.2617731 12.838271,12.2617731 13.0129338,12.2617731 Z" id="Shape"></path>
                            <path d="M7.78156087,13 C6.80344902,13 6,13.803449 6,14.7815609 C6,16.1439309 6.52398849,17.8905592 7.08290955,17.8905592 C7.18770725,17.8905592 7.29250494,17.8556267 7.43223521,17.7857615 L10.3316382,15.4103471 C10.2967056,15.2356842 10.2617731,15.0610214 10.2617731,14.851426 C10.2617731,14.4671678 10.3316382,14.0829095 10.506301,13.7335839 C9.56312174,13.3143931 8.37541449,13 7.78156087,13 Z" id="Shape"></path>
                            <path d="M14.2706168,14.3520687 C13.8863586,14.002743 13.2925049,13.8979453 12.8383816,14.1075407 L12.5589211,14.2123384 L12.3493257,14.4568664 C12.1047977,14.7013943 12,15.05072 12,15.3651131 C12,15.5397759 12.0349326,15.7144388 12.1047977,15.8891016 L12.2095954,16.1685621 L12.4541234,16.3781575 C12.8383816,16.7274832 13.4322352,16.8322809 13.8863586,16.6226855 L14.1658191,16.5178878 L14.3754145,16.2733598 C14.6199425,16.0288318 14.7247402,15.6795062 14.7247402,15.3651131 C14.7247402,15.1904503 14.6898076,15.0157874 14.6199425,14.8411246 L14.5151448,14.5616641 L14.2706168,14.3520687 Z" id="Shape"></path>
                            <path d="M12.7685165,18 C12.3493257,18.9431793 12,20.1658191 12,20.7247402 C12,21.702852 12.803449,22.506301 13.7815609,22.506301 C14.9692681,22.506301 16.5412336,22.1220428 16.8556267,21.5980543 C16.8905592,21.5281892 16.9604244,21.4233915 16.7857615,21.1089984 L14.4103471,18.2095954 C13.8863586,18.2794605 13.2925049,18.2095954 12.7685165,18 Z" id="Shape"></path>
                            <path d="M19.4233915,12 C19.3185938,12 19.2137961,12.0349326 19.0740658,12.1047977 L16.1746628,14.4802122 C16.2095954,14.654875 16.244528,14.8295378 16.244528,15.0391332 C16.244528,15.4233915 16.1746628,15.8076497 16,16.1569754 C16.9431793,16.5761662 18.1658191,16.9254918 18.7247402,16.9254918 C19.702852,16.9254918 20.506301,16.1220428 20.506301,15.1439309 C20.5412336,13.7466283 20.0172451,12 19.4233915,12 Z" id="Shape"></path>
                            <path d="M13.6544326,4 C7.78576155,4 3,8.78576155 3,14.6893652 C3,20.5580363 7.78576155,25.3437979 13.6544326,25.3437979 C19.5231037,25.3437979 24.3088653,20.5580363 24.3088653,14.6893652 C24.3437979,8.78576155 19.5580363,4 13.6544326,4 Z M18.9292501,17.9380939 C18.1607337,17.9380939 16.8682287,17.5887682 15.7853192,17.1346448 L17.7764754,19.5449919 C18.2655314,20.418306 18.0908685,21.0820248 17.8463406,21.466283 C16.9031613,23.0731811 13.6195001,23.0731811 13.5845675,23.0731811 C11.8379392,23.0731811 10.4406366,21.6409459 10.4406366,19.9292501 C10.4406366,19.1607337 10.7899622,17.8682287 11.2440856,16.7853192 L8.83373853,18.7764754 C8.48441287,18.9860708 8.10015464,19.0908685 7.78576155,19.0908685 C5.75967272,19.0908685 5.30554936,15.8421399 5.30554936,14.5845675 C5.30554936,12.8379392 6.73778457,11.4406366 8.4494803,11.4406366 C9.21799676,11.4406366 10.5105017,11.7899622 11.5934112,12.2440856 L9.60225498,9.83373853 C9.11319906,8.96042438 9.28786189,8.29670562 9.53238985,7.9124474 C10.4406366,6.27061679 13.7242978,6.27061679 13.7592303,6.27061679 C15.5058586,6.27061679 16.9031613,7.702852 16.9031613,9.41454774 C16.9031613,10.1830642 16.5538356,11.4755691 16.0997123,12.5584787 L18.5100593,10.5673224 C18.859385,10.357727 19.2436432,10.2529293 19.5580363,10.2529293 C21.5841251,10.2529293 22.0382485,13.501658 22.0382485,14.7592303 C22.0731811,16.5058586 20.6758784,17.9380939 18.9292501,17.9380939 Z" id="Shape"></path>
                            <rect id="Rectangle-path" x="25" y="4" width="5.10015464" height="1.39730264"></rect>
                            <rect id="Rectangle-path" x="25" y="8" width="5.10015464" height="1.39730264"></rect>
                            <rect id="Rectangle-path" x="25" y="11" width="5.10015464" height="1.39730264"></rect>
                            <rect id="Rectangle-path" x="25" y="14" width="5.10015464" height="1.39730264"></rect>
                            <path d="M30.7406581,0 L2.44527962,0 C1.08290955,0 0,1.08290955 0,2.44527962 L0,27.2823341 C0,28.6447042 1.08290955,29.7276137 2.44527962,29.7276137 L3.9124474,29.7276137 L3.9124474,33.1859377 L10.3400395,33.1859377 L10.3400395,29.7276137 L22.8808308,29.7276137 L22.8808308,33.1859377 L29.3084229,33.1859377 L29.3084229,29.7276137 L30.7755907,29.7276137 C32.1379608,29.7276137 33.2208703,28.6447042 33.2208703,27.2823341 L33.2208703,2.44527962 C33.1859377,1.08290955 32.1030282,0 30.7406581,0 Z M31.7886351,27.2823341 C31.7886351,27.8761877 31.2995792,28.3652436 30.7057256,28.3652436 L29.2385578,28.3652436 L22.8458982,28.3652436 L10.3400395,28.3652436 L3.9124474,28.3652436 L2.44527962,28.3652436 C1.851426,28.3652436 1.36237008,27.8761877 1.36237008,27.2823341 L1.36237008,2.44527962 C1.36237008,1.851426 1.851426,1.36237008 2.44527962,1.36237008 L30.7406581,1.36237008 C31.3345117,1.36237008 31.8235677,1.851426 31.8235677,2.44527962 L31.8235677,27.2823341 L31.7886351,27.2823341 Z" id="Shape"></path>
                            <rect id="Rectangle-path" x="25" y="18" width="5.27481747" height="9.39686027"></rect>
                        </g>
                    </g>
                    <g id="noun_854130_cc" stroke-linecap="round" stroke-linejoin="round" transform="translate(67.000000, 78.000000)" stroke="#3EB5D6">
                        <path d="M24.4263158,19.4605263 C25.9921053,19.4605263 27.2447368,20.7131579 27.2447368,22.2789474 C27.2447368,23.8447368 25.9921053,25.0973684 24.4263158,25.0973684" id="Shape"></path>
                        <path d="M17.0447368,29.5710526 L16.5973684,29.5710526 C12.5263158,29.5710526 9.21578947,26.2605263 9.21578947,22.1894737 L9.21578947,18.6552632 C9.21578947,18.6552632 9.21578947,18.6552632 9.21578947,18.6552632 L24.3815789,18.6552632 C24.3815789,18.6552632 24.3815789,18.6552632 24.3815789,18.6552632 L24.3815789,22.1894737 C24.4263158,26.2605263 21.1157895,29.5710526 17.0447368,29.5710526 Z" id="Shape"></path>
                        <path d="M6.44210526,0.402631579 L27.7368421,0.402631579 C30.1078947,0.402631579 31.9868421,2.32631579 31.9868421,4.65263158 L31.9868421,29.75 L2.14736842,29.75 L2.14736842,4.65263158 C2.14736842,2.32631579 4.07105263,0.402631579 6.44210526,0.402631579 Z" id="Shape"></path>
                        <path d="M11.2131579,2.7 L26.5131579,2.7 C28.1684211,2.7 29.4657895,4.04210526 29.4657895,5.65263158 L29.4657895,12.0052632" id="Shape"></path>
                        <path d="M32.3,33.0605263 L1.7,33.0605263 C0.805263158,33.0605263 0.0447368421,32.3447368 0.0447368421,31.4052632 L0.0447368421,31.4052632 C0.0447368421,30.5105263 0.760526316,29.75 1.7,29.75 L32.2552632,29.75 C33.15,29.75 33.9105263,30.4657895 33.9105263,31.4052632 L33.9105263,31.4052632 C33.9105263,32.3447368 33.1947368,33.0605263 32.3,33.0605263 Z" id="Shape"></path>
                        <rect id="Rectangle-path" x="14.8526316" y="12.9289474" width="4.47368421" height="3.71315789"></rect>
                        <path d="M6.39736842,6.17368421 L6.39736842,6.17368421 C6.03947368,6.17368421 5.72631579,5.86052632 5.72631579,5.50263158 L5.72631579,5.50263158 C5.72631579,5.14473684 6.03947368,4.83157895 6.39736842,4.83157895 L6.39736842,4.83157895 C6.75526316,4.83157895 7.06842105,5.14473684 7.06842105,5.50263158 L7.06842105,5.50263158 C7.06842105,5.86052632 6.75526316,6.17368421 6.39736842,6.17368421 Z" id="Shape" stroke-width="3"></path>
                        <path d="M6.39736842,11.8868421 L6.39736842,11.8868421 C6.03947368,11.8868421 5.72631579,11.5736842 5.72631579,11.2157895 L5.72631579,11.2157895 C5.72631579,10.8578947 6.03947368,10.5447368 6.39736842,10.5447368 L6.39736842,10.5447368 C6.75526316,10.5447368 7.06842105,10.8578947 7.06842105,11.2157895 L7.06842105,11.2157895 C7.06842105,11.5736842 6.75526316,11.8868421 6.39736842,11.8868421 Z" id="Shape" stroke-width="3"></path>
                    </g>
                    <g id="noun_539638_cc-2" transform="translate(62.000000, 127.000000)" stroke-width="0.5" stroke="#3EB5D6" fill="#3EB5D6" fill-rule="nonzero">
                        <g id="Group">
                            <path d="M44.0565603,0.315625 C43.975266,0.234375 43.8635638,0.1875 43.75,0.1875 L0.930851064,0.1875 C0.815425532,0.1875 0.704343972,0.234375 0.623049645,0.315625 C0.542996454,0.396875 0.495833333,0.51 0.495833333,0.625 L0.495833333,49.375 C0.495833333,49.490625 0.542996454,49.6025 0.623049645,49.684375 C0.704343972,49.765625 0.816046099,49.8125 0.930851064,49.8125 L43.75,49.8125 C43.8641844,49.8125 43.975266,49.765625 44.0565603,49.684375 C44.1378546,49.6025 44.1837766,49.489375 44.1837766,49.375 L44.1837766,0.625 C44.1837766,0.509375 44.1378546,0.396875 44.0565603,0.315625 Z M43.3149823,9.5625 L1.36462766,9.5625 L1.36462766,1.0625 L43.3149823,1.0625 L43.3149823,9.5625 Z M1.36462766,48.9375 L1.36462766,10.4375 L43.3149823,10.4375 L43.3149823,48.9375 L1.36462766,48.9375 Z" id="Shape"></path>
                            <path d="M27.9255319,13.9375 L16.7553191,13.9375 C16.5151596,13.9375 16.3203014,14.133125 16.3203014,14.375 C16.3203014,14.616875 16.5151596,14.8125 16.7553191,14.8125 L27.9255319,14.8125 C28.1656915,14.8125 28.3593085,14.616875 28.3593085,14.375 C28.3593085,14.133125 28.1656915,13.9375 27.9255319,13.9375 Z" id="Shape"></path>
                            <path d="M17.9989362,7.184375 C18.0802305,7.265625 18.1919326,7.3125 18.3067376,7.3125 L26.3741135,7.3125 C26.4882979,7.3125 26.5993794,7.265625 26.6806738,7.184375 C26.7619681,7.1025 26.8078901,6.989375 26.8078901,6.875 L26.8078901,3.75 C26.8078901,3.634375 26.7619681,3.521875 26.6806738,3.440625 C26.5993794,3.359375 26.4882979,3.3125 26.3741135,3.3125 L18.3067376,3.3125 C18.1913121,3.3125 18.0802305,3.359375 17.9989362,3.440625 C17.918883,3.521875 17.8717199,3.635 17.8717199,3.75 L17.8717199,6.875 C17.8717199,6.990625 17.918883,7.1025 17.9989362,7.184375 Z M18.7405142,4.186875 L25.9390957,4.186875 L25.9390957,6.4375 L18.7405142,6.4375 L18.7405142,4.186875 Z" id="Shape"></path>
                        </g>
                    </g>
                    <g id="noun_780158_cc-2" transform="translate(162.000000, 127.000000)" fill-rule="nonzero" fill="#3EB5D6">
                        <path d="M0,0 L0,50 L55.2083333,50 L55.2083333,0 L0,0 Z M54.0067774,1.24223602 L54.0067774,10.5590062 L1.26479572,10.5590062 L1.26479572,1.24223602 C1.26479572,1.24223602 54.0067774,1.24223602 54.0067774,1.24223602 Z M1.26479572,48.8198758 L1.26479572,11.8012422 L53.9435376,11.8012422 L53.9435376,48.757764 L1.26479572,48.757764 L1.26479572,48.8198758 Z" id="Shape"></path>
                        <path d="M37.5,8.33333333 C36.328125,8.33333333 35.4166667,7.421875 35.4166667,6.25 C35.4166667,5.078125 36.328125,4.16666667 37.5,4.16666667 C38.671875,4.16666667 39.5833333,5.078125 39.5833333,6.25 C39.5833333,7.421875 38.6067708,8.33333333 37.5,8.33333333 Z M37.5,5.46875 C37.0442708,5.46875 36.71875,5.79427083 36.71875,6.25 C36.71875,6.70572917 37.0442708,7.03125 37.5,7.03125 C37.9557292,7.03125 38.28125,6.70572917 38.28125,6.25 C38.28125,5.79427083 37.890625,5.46875 37.5,5.46875 Z" id="Shape"></path>
                        <path d="M42.7083333,8.33333333 C41.5364583,8.33333333 40.625,7.421875 40.625,6.25 C40.625,5.078125 41.5364583,4.16666667 42.7083333,4.16666667 C43.8802083,4.16666667 44.7916667,5.078125 44.7916667,6.25 C44.7916667,7.421875 43.8802083,8.33333333 42.7083333,8.33333333 Z M42.7083333,5.46875 C42.2526042,5.46875 41.9270833,5.79427083 41.9270833,6.25 C41.9270833,6.70572917 42.2526042,7.03125 42.7083333,7.03125 C43.1640625,7.03125 43.4895833,6.70572917 43.4895833,6.25 C43.4895833,5.79427083 43.1640625,5.46875 42.7083333,5.46875 Z" id="Shape"></path>
                        <path d="M17.7083333,8.33333333 C16.5364583,8.33333333 15.625,7.421875 15.625,6.25 C15.625,5.078125 16.5364583,4.16666667 17.7083333,4.16666667 C18.8802083,4.16666667 19.7916667,5.078125 19.7916667,6.25 C19.7916667,7.421875 18.8151042,8.33333333 17.7083333,8.33333333 Z M17.7083333,5.46875 C17.2526042,5.46875 16.9270833,5.79427083 16.9270833,6.25 C16.9270833,6.70572917 17.2526042,7.03125 17.7083333,7.03125 C18.1640625,7.03125 18.4895833,6.70572917 18.4895833,6.25 C18.4895833,5.79427083 18.0989583,5.46875 17.7083333,5.46875 Z" id="Shape"></path>
                        <path d="M12.5,8.33333333 C11.328125,8.33333333 10.4166667,7.421875 10.4166667,6.25 C10.4166667,5.078125 11.328125,4.16666667 12.5,4.16666667 C13.671875,4.16666667 14.5833333,5.078125 14.5833333,6.25 C14.5833333,7.421875 13.6067708,8.33333333 12.5,8.33333333 Z M12.5,5.46875 C12.0442708,5.46875 11.71875,5.79427083 11.71875,6.25 C11.71875,6.70572917 12.0442708,7.03125 12.5,7.03125 C12.9557292,7.03125 13.28125,6.70572917 13.28125,6.25 C13.28125,5.79427083 12.890625,5.46875 12.5,5.46875 Z" id="Shape"></path>
                        <path d="M34.375,8.33333333 L21.875,8.33333333 L21.875,4.16666667 L34.375,4.16666667 L34.375,8.33333333 Z M23.1703368,7.03125 L33.0796632,7.03125 L33.0796632,5.46875 L23.1703368,5.46875 L23.1703368,7.03125 Z" id="Shape"></path>
                        <rect id="Rectangle-path" x="5.20833333" y="15.625" width="44.7916667" height="1.04166667"></rect>
                        <path d="M50,45.8333333 L5.20833333,45.8333333 L5.20833333,19.7916667 L50,19.7916667 C50,19.7916667 50,45.8333333 50,45.8333333 Z M6.45949721,44.593254 L48.7488361,44.593254 L48.7488361,21.031746 L6.45949721,21.031746 L6.45949721,44.593254 Z" id="Shape"></path>
                    </g>
                    <g id="noun_371459_cc" transform="translate(169.000000, 78.000000)" stroke-width="0.8" stroke="#FFFFFF" fill="#3EB5D6" fill-rule="nonzero">
                        <g id="Group">
                            <path d="M15.1473171,31.0387805 C14.9580488,30.3795122 14.5921951,29.913252 14.5515447,29.862439 L14.5502439,29.862439 C14.3914634,29.6642276 14.1487805,29.5397561 13.8756911,29.5397561 C13.396748,29.5397561 13.0080488,29.9272358 13.0080488,30.4060976 C13.0080488,30.6118699 13.0804878,30.8011382 13.2011382,30.9498374 L13.2011382,30.9498374 C13.202439,30.9523577 13.3904065,31.2013821 13.4806504,31.5164228 C13.5860976,31.8860976 13.5213008,32.1553659 13.2621138,32.4157724 C12.5570732,33.1221138 12.3246341,34.0417886 12.6053659,35.0021138 C12.7946341,35.6474797 13.159187,36.1021951 13.2062602,36.1606504 C13.2062602,36.1606504 13.2062602,36.1606504 13.207561,36.1606504 L13.2088618,36.1631707 L13.2088618,36.1631707 C13.3676423,36.3537398 13.6077236,36.4756911 13.8757724,36.4756911 C14.3547154,36.4756911 14.7434146,36.0882114 14.7434146,35.6093496 C14.7434146,35.3984553 14.6684553,35.2053659 14.5439837,35.0555285 L14.5439837,35.0555285 C14.5414634,35.0530081 14.3585366,34.8166667 14.2708943,34.5143902 C14.166748,34.1612195 14.2327642,33.8995935 14.4906504,33.6404065 C15.1930894,32.9341463 15.4268293,32.0093496 15.1473171,31.0387805 Z" id="Shape"></path>
                            <path d="M22.3170732,31.5990244 C22.0578862,30.6284553 21.56,29.9539837 21.504065,29.8802439 L21.5027642,29.8815447 C21.3452033,29.6744715 21.0949593,29.5398374 20.8130081,29.5398374 C20.3353659,29.5398374 19.9466667,29.9273171 19.9466667,30.4061789 C19.9466667,30.6017886 20.0126829,30.7821951 20.1219512,30.9269919 L20.1206504,30.9269919 C20.1244715,30.9320325 20.4852033,31.4236585 20.6529268,32.0905691 C20.8523577,32.8908943 20.6922764,33.5704878 20.1638211,34.167561 C19.2377236,35.2156098 18.9430081,36.5011382 19.3101626,37.8857724 C19.5693496,38.8563415 20.0672358,39.5295935 20.1231707,39.603252 L20.1244715,39.603252 C20.2820325,39.8115447 20.5322764,39.9462602 20.8130081,39.9462602 C21.2931707,39.9462602 21.6806504,39.557561 21.6806504,39.0773171 C21.6806504,38.8817073 21.6158537,38.7026016 21.5053659,38.5565041 L21.5066667,38.5565041 C21.5028455,38.5514634 21.1421138,38.0610569 20.9743902,37.3929268 C20.7749593,36.5926016 20.9350407,35.9142276 21.4634959,35.3172358 C22.3895122,34.2692683 22.6854472,32.9836585 22.3170732,31.5990244 Z" id="Shape"></path>
                            <path d="M29.0230894,31.0387805 C28.8338211,30.3795122 28.4679675,29.913252 28.4260163,29.862439 L28.4260163,29.862439 C28.2672358,29.6642276 28.0245528,29.5397561 27.7514634,29.5397561 C27.2725203,29.5397561 26.8838211,29.9272358 26.8838211,30.4060976 C26.8838211,30.6118699 26.9562602,30.8011382 27.0769106,30.9498374 L27.0756098,30.9498374 C27.0781301,30.9523577 27.264878,31.2013821 27.355122,31.5164228 C27.4617886,31.8860976 27.3957724,32.1553659 27.1365854,32.4157724 C26.4328455,33.1221138 26.2003252,34.0417886 26.4811382,35.0021138 C26.6691057,35.6474797 27.0337398,36.1021951 27.0820325,36.1606504 L27.0820325,36.1606504 L27.0833333,36.1631707 L27.0833333,36.1631707 C27.2434146,36.3537398 27.4821951,36.4756911 27.7515447,36.4756911 C28.2304878,36.4756911 28.6178862,36.0882114 28.6178862,35.6093496 C28.6178862,35.3984553 28.5442276,35.2053659 28.4184553,35.0555285 L28.4184553,35.0555285 C28.4171545,35.0530081 28.2342276,34.8166667 28.1453659,34.5143902 C28.042439,34.1612195 28.1072358,33.8995935 28.3664228,33.6404065 C29.0688618,32.9341463 29.3013008,32.0093496 29.0230894,31.0387805 Z" id="Shape"></path>
                            <path d="M40.7596748,22.6013008 L38.8326016,22.6013008 L31.4012195,10.4411382 C31.7937398,10.3579675 32.0872358,10.0098374 32.0872358,9.59317073 C32.0872358,9.11422764 31.6997561,8.72617886 31.2195935,8.72617886 L30.353252,8.72617886 L30.353252,0.0536585366 L11.2741463,0.0536585366 L11.2741463,8.72617886 L10.4078049,8.72617886 L10.4078049,8.72617886 L10.4065041,8.72617886 C9.92886179,8.72617886 9.5401626,9.11422764 9.5401626,9.59317073 C9.5401626,10.0098374 9.83487805,10.3578862 10.2261789,10.4411382 L2.79479675,22.6013008 L0.867642276,22.6013008 C0.388699187,22.6013008 0,22.99 0,23.4676423 L0,26.9382114 C0,27.4158537 0.388699187,27.8045528 0.867642276,27.8045528 L40.7596748,27.8045528 C41.2386179,27.8045528 41.6260163,27.4158537 41.6260163,26.9382114 L41.6260163,23.4676423 C41.6260163,22.99 41.2385366,22.6013008 40.7596748,22.6013008 Z M13.0081301,1.78829268 L28.6178862,1.78829268 L28.6178862,8.72617886 L13.0081301,8.72617886 L13.0081301,1.78829268 Z M12.2472358,10.4601626 L29.3800813,10.4601626 L36.8000813,22.6013008 L4.82723577,22.6013008 L12.2472358,10.4601626 Z M16.4773984,26.0692683 L13.0081301,26.0692683 L3.46926829,26.0692683 L1.73528455,26.0692683 L1.73528455,24.3365854 L3.46926829,24.3365854 L13.0081301,24.3365854 L16.4773984,24.3365854 L19.9466667,24.3365854 C19.4677236,24.3365854 19.0790244,24.724065 19.0790244,25.2029268 C19.0790244,25.6817886 19.4677236,26.0692683 19.9466667,26.0692683 L16.4773984,26.0692683 Z M39.8920325,26.0692683 L38.1580488,26.0692683 L28.6178862,26.0692683 L25.1499187,26.0692683 L21.6806504,26.0692683 C22.1595935,26.0692683 22.5482927,25.6817886 22.5482927,25.2029268 C22.5482927,24.724065 22.1595935,24.3365854 21.6806504,24.3365854 L25.1499187,24.3365854 L28.6178862,24.3365854 L38.1580488,24.3365854 L39.8920325,24.3365854 L39.8920325,26.0692683 L39.8920325,26.0692683 Z" id="Shape"></path>
                            <path d="M26.0162602,25.2029268 C26.0162602,24.7239837 25.6287805,24.3365854 25.1499187,24.3365854 C24.6710569,24.3365854 24.2822764,24.724065 24.2822764,25.2029268 C24.2822764,25.6817886 24.6709756,26.0692683 25.1499187,26.0692683 C25.6288618,26.0692683 26.0162602,25.6818699 26.0162602,25.2029268 Z" id="Shape"></path>
                            <path d="M29.4855285,25.2029268 C29.4855285,24.7239837 29.0980488,24.3365854 28.6178862,24.3365854 C28.1402439,24.3365854 27.7515447,24.724065 27.7515447,25.2029268 C27.7515447,25.6817886 28.1402439,26.0692683 28.6178862,26.0692683 C29.0980488,26.0692683 29.4855285,25.6818699 29.4855285,25.2029268 Z" id="Shape"></path>
                            <path d="M39.0243902,25.2029268 C39.0243902,24.7239837 38.6369106,24.3365854 38.1580488,24.3365854 C37.679187,24.3365854 37.2904065,24.724065 37.2904065,25.2029268 C37.2904065,25.6817886 37.6791057,26.0692683 38.1580488,26.0692683 C38.6369919,26.0692683 39.0243902,25.6818699 39.0243902,25.2029268 Z" id="Shape"></path>
                            <path d="M4.33691057,25.2029268 C4.33691057,24.7239837 3.94821138,24.3365854 3.46926829,24.3365854 C2.9903252,24.3365854 2.60292683,24.724065 2.60292683,25.2029268 C2.60292683,25.6817886 2.9904065,26.0692683 3.46926829,26.0692683 C3.94813008,26.0692683 4.33691057,25.6818699 4.33691057,25.2029268 Z" id="Shape"></path>
                            <path d="M13.8757724,25.2029268 C13.8757724,24.7239837 13.4882927,24.3365854 13.0081301,24.3365854 C12.5304878,24.3365854 12.1417886,24.724065 12.1417886,25.2029268 C12.1417886,25.6817886 12.5304878,26.0692683 13.0081301,26.0692683 C13.4882927,26.0692683 13.8757724,25.6818699 13.8757724,25.2029268 Z" id="Shape"></path>
                            <path d="M17.3450407,25.2029268 C17.3450407,24.7239837 16.9563415,24.3365854 16.4773984,24.3365854 C15.9984553,24.3365854 15.6097561,24.7239837 15.6097561,25.2029268 C15.6097561,25.6818699 15.9984553,26.0692683 16.4773984,26.0692683 C16.9563415,26.0692683 17.3450407,25.6818699 17.3450407,25.2029268 Z" id="Shape"></path>
                        </g>
                    </g>
                </g>
            </g>
            <g id="Group" transform="translate(75.000000, 49.000000)" fill="#FFFFFF">
                <g id="Connected-Device-App">
                    <path d="M20.6274414,24.8583985 C18.7016505,25.6552774 16.6928815,26.053711 14.6010742,26.053711 C11.3471517,26.053711 8.69369512,24.9607857 6.64062496,22.7749024 C4.5875548,20.589019 3.56103511,17.7363457 3.56103511,14.2167969 C3.56103511,10.3541474 4.67332868,7.25798693 6.89794917,4.92822268 C9.12256967,2.59845843 11.9503409,1.43359377 15.3813476,1.43359377 C17.2075286,1.43359377 18.956209,1.72688511 20.6274414,2.31347659 L20.6274414,4.05664065 C18.956209,3.30403272 17.196461,2.9277344 15.3481445,2.9277344 C12.3598483,2.9277344 9.93051061,3.94041959 8.06005855,5.96582034 C6.18960649,7.99122109 5.25439449,10.6861811 5.25439449,14.0507813 C5.25439449,17.293636 6.148103,19.853018 7.93554683,21.7290039 C9.72299066,23.6049899 11.9890813,24.5429688 14.7338867,24.5429688 C16.9253039,24.5429688 18.8898025,24.1168663 20.6274414,23.2646485 L20.6274414,24.8583985 Z M32.4145507,26.053711 C29.9353717,26.053711 27.97364,25.2374756 26.5292968,23.6049805 C25.0849537,21.9724854 24.3627929,19.8502735 24.3627929,17.2382813 C24.3627929,14.4160015 25.1181565,12.2080158 26.6289062,10.6142578 C28.1396559,9.02049987 30.1290566,8.22363284 32.5971679,8.22363284 C35.0210082,8.22363284 36.9357026,9.01496607 38.3413085,10.5976563 C39.7469145,12.1803465 40.449707,14.3717308 40.449707,17.171875 C40.449707,19.8170705 39.73308,21.9586507 38.2998046,23.5966797 C36.8665292,25.2347087 34.9047976,26.053711 32.4145507,26.053711 Z M32.5307617,9.61816409 C30.5274965,9.61816409 28.9309955,10.2932875 27.7412109,11.6435547 C26.5514263,12.9938219 25.9565429,14.8697797 25.9565429,17.2714844 C25.9565429,19.4961049 26.5375918,21.2835219 27.699707,22.6337891 C28.8618222,23.9840563 30.4500224,24.6591797 32.4643554,24.6591797 C34.5118917,24.6591797 36.0890244,23.9951239 37.1958007,22.6669922 C38.3025771,21.3388606 38.855957,19.4961056 38.855957,17.1386719 C38.855957,14.7148317 38.305344,12.8554752 37.2041015,11.5605469 C36.102859,10.2656186 34.5450947,9.61816409 32.5307617,9.61816409 Z M56.2211914,25.6386719 L56.2211914,15.7441406 C56.2211914,11.6601359 54.7492009,9.61816409 51.8051757,9.61816409 C50.1671467,9.61816409 48.8224336,10.2185813 47.770996,11.4194336 C46.7195585,12.620286 46.1938476,14.106111 46.1938476,15.8769531 L46.1938476,25.6386719 L44.6665039,25.6386719 L44.6665039,8.6386719 L46.1938476,8.6386719 L46.1938476,11.7265625 L46.2602539,11.7265625 C47.4998434,9.39126439 49.436673,8.22363284 52.0708007,8.22363284 C53.9080495,8.22363284 55.3136344,8.83511761 56.2875976,10.0581055 C57.2615608,11.2810934 57.7485351,13.0270069 57.7485351,15.2958985 L57.7485351,25.6386719 L56.2211914,25.6386719 Z M74.4165039,25.6386719 L74.4165039,15.7441406 C74.4165039,11.6601359 72.9445134,9.61816409 70.0004882,9.61816409 C68.3624592,9.61816409 67.0177461,10.2185813 65.9663085,11.4194336 C64.914871,12.620286 64.3891601,14.106111 64.3891601,15.8769531 L64.3891601,25.6386719 L62.8618164,25.6386719 L62.8618164,8.6386719 L64.3891601,8.6386719 L64.3891601,11.7265625 L64.4555664,11.7265625 C65.6951559,9.39126439 67.6319855,8.22363284 70.2661132,8.22363284 C72.103362,8.22363284 73.5089469,8.83511761 74.4829101,10.0581055 C75.4568733,11.2810934 75.9438476,13.0270069 75.9438476,15.2958985 L75.9438476,25.6386719 L74.4165039,25.6386719 Z M81.4223632,17.2050781 C81.4223632,19.5403763 81.9619086,21.3665299 83.0410156,22.6835938 C84.1201225,24.0006577 85.6004137,24.6591797 87.4819335,24.6591797 C89.3855889,24.6591797 91.2449453,23.9563873 93.0600585,22.5507813 L93.0600585,24.1777344 C91.3002841,25.4283917 89.3357855,26.053711 87.1665039,26.053711 C84.9750867,26.053711 83.204271,25.2679115 81.8540039,23.6962891 C80.5037367,22.1246666 79.8286132,19.9056133 79.8286132,17.0390625 C79.8286132,14.5598835 80.5341726,12.4708744 81.9453125,10.7719727 C83.3564523,9.07307096 85.1909066,8.22363284 87.4487304,8.22363284 C89.5626733,8.22363284 91.1840763,8.96516188 92.3129882,10.4482422 C93.4419001,11.9313225 94.0063476,13.9566929 94.0063476,16.5244141 L94.0063476,17.2050781 L81.4223632,17.2050781 Z M92.4125976,15.8105469 C92.346191,13.8515527 91.8758181,12.3297581 91.0014648,11.2451172 C90.1271115,10.1604764 88.9207433,9.61816409 87.3823242,9.61816409 C85.7885662,9.61816409 84.4687552,10.1521757 83.4228515,11.2202149 C82.3769479,12.2882541 81.7322603,13.8183494 81.4887695,15.8105469 L92.4125976,15.8105469 Z M109.22998,24.8916016 C107.968255,25.666345 106.463062,26.053711 104.714355,26.053711 C102.401193,26.053711 100.536303,25.2596108 99.1196289,23.6713867 C97.7029551,22.0831627 96.9946289,20.0052212 96.9946289,17.4375 C96.9946289,14.7369657 97.7914959,12.5262131 99.3852539,10.8051758 C100.979012,9.08413856 103.026517,8.22363284 105.527832,8.22363284 C106.82276,8.22363284 108.078933,8.48925518 109.296387,9.02050784 L109.296387,10.7470703 C108.078933,9.99446241 106.745287,9.61816409 105.29541,9.61816409 C103.303213,9.61816409 101.687343,10.334791 100.447754,11.7680664 C99.2081643,13.2013418 98.5883789,15.0579313 98.5883789,17.3378906 C98.5883789,19.5403756 99.1555932,21.3111912 100.290039,22.6503906 C101.424485,23.9895901 102.921377,24.6591797 104.780762,24.6591797 C106.485197,24.6591797 107.968255,24.2054082 109.22998,23.2978516 L109.22998,24.8916016 Z M120.037598,25.40625 C119.240719,25.782554 118.493656,25.9707031 117.796387,25.9707031 C115.284004,25.9707031 114.027832,24.4655099 114.027832,21.4550781 L114.027832,10.0332031 L110.973144,10.0332031 L110.973144,8.6386719 L114.027832,8.6386719 L114.027832,4.22265627 C114.271323,4.13411417 114.525878,4.04557338 114.791504,3.95703127 C115.05713,3.87955693 115.311685,3.79654995 115.555176,3.70800784 L115.555176,8.6386719 L120.037598,8.6386719 L120.037598,10.0332031 L115.555176,10.0332031 L115.555176,21.2558594 C115.555176,22.4290423 115.740558,23.2784805 116.111328,23.8041992 C116.482098,24.329918 117.110184,24.5927735 117.995605,24.5927735 C118.626468,24.5927735 119.307125,24.3880229 120.037598,23.9785156 L120.037598,25.40625 Z M123.772949,17.2050781 C123.772949,19.5403763 124.312495,21.3665299 125.391602,22.6835938 C126.470708,24.0006577 127.951,24.6591797 129.832519,24.6591797 C131.736175,24.6591797 133.595531,23.9563873 135.410644,22.5507813 L135.410644,24.1777344 C133.65087,25.4283917 131.686371,26.053711 129.51709,26.053711 C127.325673,26.053711 125.554857,25.2679115 124.20459,23.6962891 C122.854323,22.1246666 122.179199,19.9056133 122.179199,17.0390625 C122.179199,14.5598835 122.884759,12.4708744 124.295898,10.7719727 C125.707038,9.07307096 127.541493,8.22363284 129.799316,8.22363284 C131.913259,8.22363284 133.534662,8.96516188 134.663574,10.4482422 C135.792486,11.9313225 136.356934,13.9566929 136.356934,16.5244141 L136.356934,17.2050781 L123.772949,17.2050781 Z M134.763184,15.8105469 C134.696777,13.8515527 134.226404,12.3297581 133.352051,11.2451172 C132.477697,10.1604764 131.271329,9.61816409 129.73291,9.61816409 C128.139152,9.61816409 126.819341,10.1521757 125.773437,11.2202149 C124.727534,12.2882541 124.082846,13.8183494 123.839355,15.8105469 L134.763184,15.8105469 Z M152.643066,25.6386719 L152.643066,22.5507813 L152.57666,22.5507813 C152.023272,23.6243544 151.20427,24.4765594 150.119629,25.1074219 C149.034988,25.7382844 147.812018,26.053711 146.450684,26.053711 C144.358876,26.053711 142.651699,25.2900467 141.329102,23.7626953 C140.006504,22.235344 139.345215,20.1269666 139.345215,17.4375 C139.345215,14.6926946 140.067376,12.4708744 141.511719,10.7719727 C142.956062,9.07307096 144.829253,8.22363284 147.131348,8.22363284 C149.676933,8.22363284 151.492019,9.26952082 152.57666,11.3613281 L152.643066,11.3613281 L152.643066,0.47070315 L154.17041,0.47070315 L154.17041,25.6386719 L152.643066,25.6386719 Z M152.643066,15.2958985 C152.643066,13.7132083 152.142258,12.371262 151.140625,11.2700196 C150.138992,10.1687771 148.791512,9.61816409 147.098144,9.61816409 C145.316235,9.61816409 143.844244,10.3015882 142.682129,11.6684571 C141.520014,13.0353259 140.938965,14.9140506 140.938965,17.3046875 C140.938965,19.6510534 141.461909,21.4633725 142.507812,22.7416992 C143.553716,24.0200259 144.901196,24.6591797 146.550293,24.6591797 C148.487152,24.6591797 149.986811,24.0587625 151.049316,22.8579102 C152.111822,21.6570578 152.643066,20.193368 152.643066,18.4667969 L152.643066,15.2958985 Z" id="Connected"></path>
                    <path d="M0.6308594,65.6386719 L0.6308594,41.8320313 L6.59082034,41.8320313 C10.542012,41.8320313 13.5468647,42.8170475 15.6054688,44.7871094 C17.6640728,46.7571713 18.6933594,49.6292129 18.6933594,53.4033203 C18.6933594,57.0335468 17.5893665,59.9802947 15.3813477,62.2436524 C13.1733288,64.50701 10.1269726,65.6386719 6.24218753,65.6386719 L0.6308594,65.6386719 Z M2.27441409,43.3427735 L2.27441409,64.1445313 L6.00976565,64.1445313 C9.54038226,64.1445313 12.2519437,63.2286876 14.1445313,61.3969727 C16.0371189,59.5652578 16.9833985,56.9228689 16.9833985,53.4697266 C16.9833985,46.7183907 13.4362334,43.3427735 6.3417969,43.3427735 L2.27441409,43.3427735 Z M23.5742188,57.2050782 C23.5742188,59.5403763 24.1137642,61.3665299 25.1928711,62.6835938 C26.2719781,64.0006577 27.7522693,64.6591797 29.6337891,64.6591797 C31.5374444,64.6591797 33.3968008,63.9563873 35.2119141,62.5507813 L35.2119141,64.1777344 C33.4521397,65.4283917 31.4876411,66.053711 29.3183594,66.053711 C27.1269422,66.053711 25.3561266,65.2679115 24.0058594,63.6962891 C22.6555922,62.1246666 21.9804688,59.9056133 21.9804688,57.0390625 C21.9804688,54.5598835 22.6860281,52.4708744 24.097168,50.7719727 C25.5083079,49.073071 27.3427622,48.2236328 29.600586,48.2236328 C31.7145288,48.2236328 33.3359319,48.9651619 34.4648438,50.4482422 C35.5937557,51.9313225 36.1582032,53.9566929 36.1582032,56.5244141 L36.1582032,57.2050782 L23.5742188,57.2050782 Z M34.5644532,55.8105469 C34.4980466,53.8515527 34.0276737,52.3297581 33.1533203,51.2451172 C32.278967,50.1604764 31.0725989,49.6181641 29.5341797,49.6181641 C27.9404217,49.6181641 26.6206107,50.1521757 25.5747071,51.2202149 C24.5288034,52.2882541 23.8841158,53.8183494 23.640625,55.8105469 L34.5644532,55.8105469 Z M45.953125,65.6386719 L44.5585938,65.6386719 L37.984375,48.6386719 L39.694336,48.6386719 L44.7578125,62.1689453 C45.0013033,62.8219434 45.1728511,63.4140599 45.272461,63.9453125 L45.3388672,63.9453125 C45.4827481,63.2480434 45.6432283,62.6780621 45.8203125,62.2353516 L51.0498047,48.6386719 L52.709961,48.6386719 L45.953125,65.6386719 Z M56.5283203,44.3554688 C56.1962874,44.3554688 55.9029961,44.2337252 55.6484375,43.9902344 C55.393879,43.7467436 55.2666016,43.4368509 55.2666016,43.0605469 C55.2666016,42.6953107 55.3966459,42.3992525 55.6567383,42.1723633 C55.9168308,41.9454742 56.2073552,41.8320313 56.5283203,41.8320313 C56.871421,41.8320313 57.173013,41.9427073 57.4331055,42.1640625 C57.6931979,42.3854178 57.8232422,42.6842429 57.8232422,43.0605469 C57.8232422,43.4147153 57.6959648,43.7190743 57.4414063,43.9736328 C57.1868477,44.2281914 56.8824888,44.3554688 56.5283203,44.3554688 Z M55.78125,65.6386719 L55.78125,48.6386719 L57.3085938,48.6386719 L57.3085938,65.6386719 L55.78125,65.6386719 Z M73.7607422,64.8916016 C72.4990172,65.666345 70.9938239,66.053711 69.2451172,66.053711 C66.9319546,66.053711 65.0670644,65.2596108 63.6503907,63.6713867 C62.2337169,62.0831627 61.5253907,60.0052212 61.5253907,57.4375 C61.5253907,54.7369657 62.3222577,52.5262131 63.9160157,50.8051758 C65.5097736,49.0841386 67.5572792,48.2236328 70.0585938,48.2236328 C71.3535221,48.2236328 72.6096945,48.4892552 73.8271485,49.0205078 L73.8271485,50.7470703 C72.6096945,49.9944624 71.2760489,49.6181641 69.8261719,49.6181641 C67.8339744,49.6181641 66.2181052,50.334791 64.9785157,51.7680664 C63.7389261,53.2013418 63.1191407,55.0579313 63.1191407,57.3378907 C63.1191407,59.5403756 63.686355,61.3111912 64.8208008,62.6503907 C65.9552466,63.9895901 67.4521392,64.6591797 69.3115235,64.6591797 C71.0159591,64.6591797 72.4990172,64.2054082 73.7607422,63.2978516 L73.7607422,64.8916016 Z M78.209961,57.2050782 C78.209961,59.5403763 78.7495063,61.3665299 79.8286133,62.6835938 C80.9077203,64.0006577 82.3880115,64.6591797 84.2695313,64.6591797 C86.1731866,64.6591797 88.032543,63.9563873 89.8476563,62.5507813 L89.8476563,64.1777344 C88.0878819,65.4283917 86.1233833,66.053711 83.9541016,66.053711 C81.7626844,66.053711 79.9918688,65.2679115 78.6416016,63.6962891 C77.2913344,62.1246666 76.616211,59.9056133 76.616211,57.0390625 C76.616211,54.5598835 77.3217703,52.4708744 78.7329102,50.7719727 C80.14405,49.073071 81.9785044,48.2236328 84.2363282,48.2236328 C86.350271,48.2236328 87.9716741,48.9651619 89.100586,50.4482422 C90.2294979,51.9313225 90.7939453,53.9566929 90.7939453,56.5244141 L90.7939453,57.2050782 L78.209961,57.2050782 Z M89.2001953,55.8105469 C89.1337888,53.8515527 88.6634159,52.3297581 87.7890625,51.2451172 C86.9147092,50.1604764 85.7083411,49.6181641 84.1699219,49.6181641 C82.5761639,49.6181641 81.2563529,50.1521757 80.2104492,51.2202149 C79.1645456,52.2882541 78.519858,53.8183494 78.2763672,55.8105469 L89.2001953,55.8105469 Z M120.162109,65.6386719 L117.439453,58.234375 L107.113281,58.234375 L104.390625,65.6386719 L102.581055,65.6386719 L111.5625,41.8320313 L113.123047,41.8320313 L122.004883,65.6386719 L120.162109,65.6386719 Z M112.857422,45.7167969 C112.735676,45.384764 112.636068,45.0582699 112.558594,44.7373047 C112.481119,44.4606106 112.398112,44.1839207 112.30957,43.9072266 L112.243164,43.9072266 C112.055012,44.637699 111.872397,45.2298155 111.695313,45.6835938 L107.694336,56.7236328 L116.875,56.7236328 L112.857422,45.7167969 Z M127.300781,62.6171875 L127.234375,62.6171875 L127.234375,73.4580078 L125.707031,73.4580078 L125.707031,48.6386719 L127.234375,48.6386719 L127.234375,52.1416016 L127.300781,52.1416016 C127.909508,50.8909443 128.781082,49.9252964 129.915527,49.2446289 C131.049973,48.5639615 132.297845,48.2236328 133.65918,48.2236328 C135.817394,48.2236328 137.502435,48.9679288 138.714355,50.456543 C139.926276,51.9451572 140.532227,53.9677607 140.532227,56.5244141 C140.532227,59.3688294 139.837735,61.6681228 138.44873,63.4223633 C137.059726,65.1766038 135.225272,66.053711 132.945313,66.053711 C130.399727,66.053711 128.518235,64.9082146 127.300781,62.6171875 Z M127.234375,56.2919922 L127.234375,58.4335938 C127.234375,60.1380294 127.771154,61.6017192 128.844727,62.8247071 C129.9183,64.0476949 131.329418,64.6591797 133.078125,64.6591797 C134.815764,64.6591797 136.226883,63.9148838 137.311523,62.4262696 C138.396164,60.9376553 138.938477,58.9814575 138.938477,56.5576172 C138.938477,54.4326066 138.440435,52.7447979 137.444336,51.4941407 C136.448237,50.2434834 135.120126,49.6181641 133.459961,49.6181641 C131.478831,49.6181641 129.945969,50.2822199 128.861328,51.6103516 C127.776687,52.9384832 127.234375,54.4990145 127.234375,56.2919922 Z M146.342773,62.6171875 L146.276367,62.6171875 L146.276367,73.4580078 L144.749023,73.4580078 L144.749023,48.6386719 L146.276367,48.6386719 L146.276367,52.1416016 L146.342773,52.1416016 C146.9515,50.8909443 147.823074,49.9252964 148.95752,49.2446289 C150.091965,48.5639615 151.339837,48.2236328 152.701172,48.2236328 C154.859386,48.2236328 156.544428,48.9679288 157.756348,50.456543 C158.968268,51.9451572 159.574219,53.9677607 159.574219,56.5244141 C159.574219,59.3688294 158.879727,61.6681228 157.490723,63.4223633 C156.101718,65.1766038 154.267264,66.053711 151.987305,66.053711 C149.441719,66.053711 147.560227,64.9082146 146.342773,62.6171875 Z M146.276367,56.2919922 L146.276367,58.4335938 C146.276367,60.1380294 146.813146,61.6017192 147.886719,62.8247071 C148.960292,64.0476949 150.371411,64.6591797 152.120117,64.6591797 C153.857756,64.6591797 155.268875,63.9148838 156.353516,62.4262696 C157.438156,60.9376553 157.980469,58.9814575 157.980469,56.5576172 C157.980469,54.4326066 157.482427,52.7447979 156.486328,51.4941407 C155.490229,50.2434834 154.162118,49.6181641 152.501953,49.6181641 C150.520823,49.6181641 148.987961,50.2822199 147.90332,51.6103516 C146.818679,52.9384832 146.276367,54.4990145 146.276367,56.2919922 Z" id="Device-App"></path>
                </g>
            </g>
        </g>
    </g>
</svg>