<?xml version="1.0" encoding="UTF-8" standalone="no"?>
<svg width="15px" height="16px" viewBox="0 0 15 16" version="1.1" xmlns="http://www.w3.org/2000/svg" xmlns:xlink="http://www.w3.org/1999/xlink">
    <!-- Generator: Sketch 47.1 (45422) - http://www.bohemiancoding.com/sketch -->
    <title>checkbox</title>
    <desc>Created with Sketch.</desc>
    <defs></defs>
    <g id="Welcome" stroke="none" stroke-width="1" fill="none" fill-rule="evenodd">
        <g id="002-device-dashboard-grouped-by" transform="translate(-186.000000, -742.000000)" fill="#29BB9C">
            <g id="Group-11" transform="translate(135.000000, 368.000000)">
                <g id="Group-4">
                    <g id="table" transform="translate(0.000000, 42.000000)">
                        <g id="Checkboxes" transform="translate(51.000000, 92.500000)">
                            <g id="checkbox" transform="translate(0.000000, 240.000000)">
                                <g id="ic_check_box_48px-copy-3">
                                    <path d="M13.3333333,0 L1.66666667,0 C0.745833333,0 0,0.745833333 0,1.66666667 L0,13.3333333 C0,14.2541667 0.745833333,15 1.66666667,15 L13.3333333,15 C14.2541667,15 15,14.2541667 15,13.3333333 L15,1.66666667 C15,0.745833333 14.2541667,0 13.3333333,0 Z M5.83333333,11.6666667 L1.66666667,7.5 L2.84583333,6.32083333 L5.83333333,9.30833333 L12.1541667,2.9875 L13.3333333,4.16666667 L5.83333333,11.6666667 Z" id="Shape" fill-rule="nonzero"></path>
                                </g>
                            </g>
                        </g>
                    </g>
                </g>
            </g>
        </g>
    </g>
</svg>