<?xml version="1.0" encoding="UTF-8" standalone="no"?>
<svg width="16px" height="16px" viewBox="0 0 16 16" version="1.1" xmlns="http://www.w3.org/2000/svg" xmlns:xlink="http://www.w3.org/1999/xlink">
    <!-- Generator: Sketch 47.1 (45422) - http://www.bohemiancoding.com/sketch -->
    <title>noun_992975_cc</title>
    <desc>Created with Sketch.</desc>
    <defs></defs>
    <g id="Welcome" stroke="none" stroke-width="1" fill="none" fill-rule="evenodd">
        <g id="001-device-dashboard-all-UI" transform="translate(-1076.000000, -371.000000)" fill-rule="nonzero" fill="#999999">
            <g id="Group-by-tabs" transform="translate(152.000000, 367.000000)">
                <g id="filters" transform="translate(818.000000, 0.000000)">
                    <g id="Group-3" transform="translate(0.000000, 4.000000)">
                        <g id="noun_992975_cc" transform="translate(106.000000, 0.000000)">
                            <path d="M15.6753939,14.9890909 L11.1333333,10.4470303 C13.2259394,8.00193939 13.1132121,4.30739394 10.7970909,1.99854545 C9.62278788,0.827636364 8.0630303,0.183272727 6.40460606,0.183272727 C4.73866667,0.183272727 3.17357576,0.832484848 1.99733333,2.01187879 C0.824,3.18884848 0.179636364,4.75248485 0.182545455,6.41527273 C0.18569697,8.07757576 0.835636364,9.63927273 2.01284848,10.8116364 C3.18666667,11.9825455 4.74618182,12.6278788 6.40460606,12.6278788 C7.90472727,12.6278788 9.32169697,12.0993939 10.448,11.1330909 L14.9898182,15.6746667 C15.0846061,15.7694545 15.2084848,15.8167273 15.3326061,15.8167273 C15.4567273,15.8167273 15.5806061,15.7694545 15.6753939,15.6746667 C15.8647273,15.4853333 15.8647273,15.1784242 15.6753939,14.9890909 Z M2.69745455,10.1246061 C1.70351515,9.1350303 1.15490909,7.81672727 1.15224242,6.41333333 C1.14957576,5.00993939 1.69357576,3.68993939 2.68387879,2.69648485 C3.67684848,1.70133333 4.99806061,1.1529697 6.40460606,1.1529697 C7.80436364,1.1529697 9.12121212,1.6969697 10.1124848,2.68509091 C12.1633939,4.72969697 12.1689697,8.06157576 10.1255758,10.1127273 C9.13260606,11.1093333 7.81115152,11.6581818 6.40460606,11.6581818 C5.00484848,11.6581818 3.68848485,11.113697 2.69745455,10.1246061 Z" id="Shape"></path>
                        </g>
                    </g>
                </g>
            </g>
        </g>
    </g>
</svg>