<?xml version="1.0" encoding="UTF-8" standalone="no"?>
<svg width="18px" height="17px" viewBox="0 0 18 17" version="1.1" xmlns="http://www.w3.org/2000/svg" xmlns:xlink="http://www.w3.org/1999/xlink">
    <!-- Generator: Sketch 47.1 (45422) - http://www.bohemiancoding.com/sketch -->
    <title>warning</title>
    <desc>Created with Sketch.</desc>
    <defs></defs>
    <g id="Welcome" stroke="none" stroke-width="1" fill="none" fill-rule="evenodd">
        <g id="001-device-dashboard-all-UI" transform="translate(-1186.000000, -741.000000)">
            <g id="Group-11" transform="translate(135.000000, 368.000000)">
                <g id="Group-4">
                    <g id="table" transform="translate(0.000000, 42.000000)">
                        <g id="Alerts" transform="translate(1051.000000, 131.000000)">
                            <g id="warning" transform="translate(0.000000, 200.000000)">
                                <g id="Group">
                                    <path d="M17.3406122,12.3061224 L17.3406122,12.3061224 L11.0957143,1.52081633 C10.5189796,0.538163265 9.74755102,0 8.91,0 C8.07244898,0 7.30102041,0.538163265 6.73346939,1.51530612 L0.479387755,12.2877551 C-0.0955102041,13.2869388 -0.156122449,14.3265306 0.312244898,15.1346939 C0.756734694,15.9061224 1.62918367,16.3469388 2.70734694,16.3469388 L15.1144898,16.3469388 C16.1926531,16.3469388 17.0669388,15.902449 17.5022449,15.1328571 C17.9761224,14.3265306 17.9136735,13.2997959 17.3406122,12.3061224 Z" id="Path-Copy" fill="#FFCC00"></path>
                                    <path d="M8.91,10.2361224 C9.06216008,10.2361224 9.1855102,10.1127723 9.1855102,9.96061224 L9.1855102,4.86367347 C9.18551021,4.76524315 9.13299826,4.67428978 9.04775511,4.62507462 C8.96251195,4.57585946 8.85748805,4.57585946 8.77224489,4.62507462 C8.68700174,4.67428978 8.63448979,4.76524315 8.6344898,4.86367347 L8.6344898,9.96061224 C8.6344898,10.0336821 8.66351668,10.1037592 8.71518487,10.1554274 C8.76685305,10.2070956 8.83693015,10.2361224 8.91,10.2361224 L8.91,10.2361224 Z" id="Shape" fill="#000000" fill-rule="nonzero"></path>
                                    <circle id="Oval" fill="#000000" fill-rule="nonzero" cx="8.87693878" cy="12.5081633" r="1"></circle>
                                </g>
                            </g>
                        </g>
                    </g>
                </g>
            </g>
        </g>
    </g>
</svg>