<?xml version="1.0" encoding="UTF-8" standalone="no"?>
<svg width="28px" height="37px" viewBox="0 0 28 37" version="1.1" xmlns="http://www.w3.org/2000/svg" xmlns:xlink="http://www.w3.org/1999/xlink">
    <!-- Generator: Sketch 47.1 (45422) - http://www.bohemiancoding.com/sketch -->
    <title>icon-import</title>
    <desc>Created with Sketch.</desc>
    <defs></defs>
    <g id="Page-1" stroke="none" stroke-width="1" fill="none" fill-rule="evenodd">
        <g id="icon-import" fill="#267CB4">
            <g id="Group" transform="translate(4.000000, 0.000000)" fill-rule="nonzero">
                <path d="M11.3487134,19.1253593 L0.602923599,21.5684118 C0.317403405,21.6372581 0.00103794442,21.3888841 1.22111109e-05,21.0950848 L1.22111109e-05,0.573362941 C1.22111109e-05,0.27955873 0.317403405,0.0311920616 0.602923599,0.100018767 L11.3487134,2.54308106 C11.5593501,2.59389638 11.7219264,2.79967558 11.7226786,3.01642279 L11.7226786,6.43671099 C11.7263175,6.69485143 11.4923111,6.93228182 11.2342342,6.93228182 C10.9761646,6.93228182 10.7421509,6.69485143 10.7457898,6.43671099 L10.7457898,3.40578628 L0.97690108,1.18412852 L0.97690108,20.4843094 L10.7457898,18.2626443 L10.7457898,15.2317245 C10.7421264,14.9735816 10.9761646,14.7361732 11.2342342,14.7361732 C11.4923111,14.7361732 11.7263273,14.9735816 11.7226786,15.2317245 L11.7226786,18.6520078 C11.711884,18.9092715 11.5552326,19.0590286 11.3487134,19.1253593 Z" id="Shape"></path>
                <path d="M2.93070324,10.8342348 C2.93070324,10.9472609 2.99906104,11.0973354 3.06842015,11.1701625 L6.97590235,15.3220135 C7.15833635,15.5106263 7.45389408,15.5324842 7.66658721,15.3410628 C7.85673863,15.1699363 7.86147654,14.8361822 7.68563654,14.6503535 L4.54896849,11.322777 L20.5146565,11.322777 C20.7844243,11.322777 21.0031009,11.1041004 21.0031009,10.8343325 C21.0031009,10.5645647 20.7844243,10.3458637 20.5146565,10.3458637 L4.54896849,10.3458637 L7.68563654,7.01827979 C7.86145211,6.83247553 7.84897236,6.50692732 7.66658721,6.32759494 C7.47401799,6.13827388 7.15555222,6.15512521 6.97590235,6.34664427 L3.06842015,10.4984781 C2.95361128,10.611089 2.93263259,10.7195481 2.93070324,10.8342348 L2.93070324,10.8342348 Z" id="Shape"></path>
            </g>
            <path d="M1.84692383,27.6982422 L1.84692383,34 L0.801025391,34 L0.801025391,27.6982422 L1.84692383,27.6982422 Z M10.0163574,34 L8.99682617,34 L8.99682617,31.5478516 C8.99682617,31.0761695 8.93017645,30.7348643 8.796875,30.5239258 C8.66357355,30.3129872 8.43872229,30.2075195 8.12231445,30.2075195 C7.85571156,30.2075195 7.62939546,30.340819 7.44335938,30.6074219 C7.25732329,30.8740248 7.16430664,31.1933575 7.16430664,31.5654297 L7.16430664,34 L6.14038086,34 L6.14038086,31.4643555 C6.14038086,30.6264607 5.84448538,30.2075195 5.25268555,30.2075195 C4.97729354,30.2075195 4.75097745,30.3334948 4.57373047,30.5854492 C4.39648349,30.8374036 4.30786133,31.1640605 4.30786133,31.5654297 L4.30786133,34 L3.28833008,34 L3.28833008,29.5 L4.30786133,29.5 L4.30786133,30.2119141 L4.32543945,30.2119141 C4.65063639,29.6669895 5.12377619,29.3945312 5.74487305,29.3945312 C6.05542147,29.3945312 6.32714727,29.4802238 6.56005859,29.6516113 C6.79296991,29.8229989 6.95190387,30.0478502 7.03686523,30.3261719 C7.37085128,29.705075 7.86889317,29.3945312 8.53100586,29.3945312 C9.52124519,29.3945312 10.0163574,30.005365 10.0163574,31.2270508 L10.0163574,34 Z M12.2971191,33.3364258 L12.279541,33.3364258 L12.279541,36.0698242 L11.2600098,36.0698242 L11.2600098,29.5 L12.279541,29.5 L12.279541,30.2910156 L12.2971191,30.2910156 C12.6457537,29.6933564 13.1555142,29.3945312 13.826416,29.3945312 C14.3977079,29.3945312 14.843016,29.5952128 15.1623535,29.996582 C15.481691,30.3979512 15.6413574,30.9370083 15.6413574,31.6137695 C15.6413574,32.3637733 15.4611834,32.9643532 15.1008301,33.4155273 C14.7404767,33.8667015 14.2482941,34.0922852 13.6242676,34.0922852 C13.050046,34.0922852 12.6076676,33.8403346 12.2971191,33.3364258 Z M12.270752,31.5610352 L12.270752,32.1191406 C12.270752,32.4472673 12.3754872,32.7255848 12.5849609,32.9541016 C12.7944346,33.1826183 13.0603011,33.296875 13.3825684,33.296875 C13.7604999,33.296875 14.0571278,33.1496597 14.2724609,32.8552246 C14.487794,32.5607895 14.595459,32.149905 14.595459,31.6225586 C14.595459,31.1801736 14.4951182,30.8337415 14.2944336,30.583252 C14.093749,30.3327624 13.8220232,30.2075195 13.479248,30.2075195 C13.115965,30.2075195 12.8237316,30.3364245 12.6025391,30.5942383 C12.3813466,30.8520521 12.270752,31.1743145 12.270752,31.5610352 Z M18.6779785,34.1054688 C17.9836391,34.1054688 17.4292013,33.8952658 17.0146484,33.4748535 C16.6000956,33.0544413 16.3928223,32.4970738 16.3928223,31.8027344 C16.3928223,31.0468712 16.6088846,30.4565451 17.0410156,30.0317383 C17.4731467,29.6069315 18.0554163,29.3945312 18.7878418,29.3945312 C19.4909703,29.3945312 20.0388164,29.6010722 20.4313965,30.0141602 C20.8239766,30.4272482 21.0202637,30.9999963 21.0202637,31.7324219 C21.0202637,32.4501989 20.8085959,33.0251443 20.3852539,33.4572754 C19.9619119,33.8894065 19.3928258,34.1054688 18.6779785,34.1054688 Z M18.7263184,30.2075195 C18.3278789,30.2075195 18.0129406,30.3466783 17.7814941,30.625 C17.5500477,30.9033217 17.4343262,31.2871069 17.4343262,31.7763672 C17.4343262,32.2480492 17.5515125,32.6193834 17.7858887,32.8903809 C18.0202648,33.1613783 18.3337383,33.296875 18.7263184,33.296875 C19.1276876,33.296875 19.4360341,33.1635756 19.6513672,32.8969727 C19.8667003,32.6303698 19.9743652,32.250979 19.9743652,31.7587891 C19.9743652,31.2636694 19.8667003,30.881349 19.6513672,30.6118164 C19.4360341,30.3422838 19.1276876,30.2075195 18.7263184,30.2075195 Z M24.6677246,30.4711914 C24.5446771,30.3745112 24.3674328,30.3261719 24.1359863,30.3261719 C23.834227,30.3261719 23.5822764,30.462401 23.380127,30.7348633 C23.1779775,31.0073256 23.0769043,31.3779273 23.0769043,31.8466797 L23.0769043,34 L22.057373,34 L22.057373,29.5 L23.0769043,29.5 L23.0769043,30.4272461 L23.0944824,30.4272461 C23.1940923,30.1108383 23.3471669,29.8640146 23.5537109,29.6867676 C23.7602549,29.5095206 23.9909655,29.4208984 24.2458496,29.4208984 C24.4304208,29.4208984 24.5710444,29.4487302 24.6677246,29.5043945 L24.6677246,30.4711914 Z M27.7614746,33.9516602 C27.5622549,34.05127 27.3000505,34.1010742 26.9748535,34.1010742 C26.1018023,34.1010742 25.6652832,33.6821331 25.6652832,32.8442383 L25.6652832,30.2998047 L24.9138184,30.2998047 L24.9138184,29.5 L25.6652832,29.5 L25.6652832,28.4584961 L26.6848145,28.168457 L26.6848145,29.5 L27.7614746,29.5 L27.7614746,30.2998047 L26.6848145,30.2998047 L26.6848145,32.5498047 C26.6848145,32.8164076 26.7331538,33.0068354 26.829834,33.1210938 C26.9265142,33.2353521 27.0876454,33.2924805 27.3132324,33.2924805 C27.4860848,33.2924805 27.6354974,33.2426763 27.7614746,33.1430664 L27.7614746,33.9516602 Z" id="Import"></path>
        </g>
    </g>
</svg>