<?xml version="1.0" encoding="UTF-8" standalone="no"?>
<svg width="15px" height="16px" viewBox="0 0 15 16" version="1.1" xmlns="http://www.w3.org/2000/svg" xmlns:xlink="http://www.w3.org/1999/xlink">
    <!-- Generator: Sketch 47.1 (45422) - http://www.bohemiancoding.com/sketch -->
    <title>noun_1203125_cc</title>
    <desc>Created with Sketch.</desc>
    <defs></defs>
    <g id="Symbols" stroke="none" stroke-width="1" fill="none" fill-rule="evenodd">
        <g id="Save" fill-rule="nonzero" fill="#FFFFFF">
            <g id="noun_1203125_cc" transform="translate(0.000000, 0.121951)">
                <path d="M14.0815856,3.17716304 L11.2692725,0.196231972 C11.2204303,0.144455726 11.1522582,0.114943266 11.0809796,0.114943266 L1.9847561,0.114943266 C0.890378844,0.114943266 0,1.00532211 0,2.09969936 L0,13.7781768 C0,14.8725541 0.890378844,15.7629329 1.9847561,15.7629329 L12.1674178,15.7629329 C13.2617951,15.7629329 14.1521739,14.8725541 14.1521739,13.7781768 L14.1521739,3.35475557 C14.1521739,3.28882715 14.1269761,3.22531495 14.0815856,3.17716304 Z M3.42292762,0.632878314 L9.57860551,0.632878314 L9.57860551,5.32156257 L3.42292762,5.32156257 L3.42292762,0.632878314 Z M13.6344115,13.7781768 C13.6344115,14.5870944 12.9763354,15.2451705 12.1674178,15.2451705 L1.9847561,15.2451705 C1.17583855,15.2451705 0.51776246,14.5870944 0.51776246,13.7781768 L0.51776246,2.09987195 C0.51776246,1.2909544 1.17583855,0.632878314 1.9847561,0.632878314 L2.90516516,0.632878314 L2.90516516,5.5804438 C2.90516516,5.72351882 3.02114396,5.83932503 3.16404639,5.83932503 L9.83748674,5.83932503 C9.98038918,5.83932503 10.096368,5.72351882 10.096368,5.5804438 L10.096368,0.632878314 L10.9693155,0.632878314 L13.6344115,3.45761771 L13.6344115,13.7781768 Z M8.341671,1.38069989 C8.19876856,1.38069989 8.08278977,1.4965061 8.08278977,1.63958112 L8.08278977,4.31468717 C8.08278977,4.4577622 8.19876856,4.5735684 8.341671,4.5735684 C8.48457344,4.5735684 8.60055223,4.4577622 8.60055223,4.31468717 L8.60055223,1.63958112 C8.60055223,1.4965061 8.48457344,1.38069989 8.341671,1.38069989 Z M9.83748674,9.5497834 L3.16404639,9.5497834 C3.02114396,9.5497834 2.90516516,9.66558961 2.90516516,9.80866463 C2.90516516,9.95173966 3.02114396,10.0675459 3.16404639,10.0675459 L9.83748674,10.0675459 C9.98038918,10.0675459 10.096368,9.95173966 10.096368,9.80866463 C10.096368,9.66558961 9.98038918,9.5497834 9.83748674,9.5497834 Z M9.83748674,11.2756583 L3.16404639,11.2756583 C3.02114396,11.2756583 2.90516516,11.3914645 2.90516516,11.5345395 C2.90516516,11.6776145 3.02114396,11.7934207 3.16404639,11.7934207 L9.83748674,11.7934207 C9.98038918,11.7934207 10.096368,11.6776145 10.096368,11.5345395 C10.096368,11.3914645 9.98038918,11.2756583 9.83748674,11.2756583 Z M9.83748674,13.0015331 L3.16404639,13.0015331 C3.02114396,13.0015331 2.90516516,13.1173393 2.90516516,13.2604144 C2.90516516,13.4034894 3.02114396,13.5192956 3.16404639,13.5192956 L9.83748674,13.5192956 C9.98038918,13.5192956 10.096368,13.4034894 10.096368,13.2604144 C10.096368,13.1173393 9.98038918,13.0015331 9.83748674,13.0015331 Z" id="Shape"></path>
            </g>
        </g>
    </g>
</svg>