<?xml version="1.0" encoding="UTF-8" standalone="no"?>
<svg width="59px" height="39px" viewBox="0 0 59 39" version="1.1" xmlns="http://www.w3.org/2000/svg" xmlns:xlink="http://www.w3.org/1999/xlink">
    <!-- Generator: Sketch 47.1 (45422) - http://www.bohemiancoding.com/sketch -->
    <title>Inactive</title>
    <desc>Created with Sketch.</desc>
    <defs></defs>
    <g id="Symbols" stroke="none" stroke-width="1" fill="none" fill-rule="evenodd">
        <g id="Inactive" fill="#59565A">
            <g id="Group-5" transform="translate(0.000000, 1.000000)">
                <text id="Inactive" font-family="SegoeWP, Segoe WP" font-size="10" font-weight="normal">
                    <tspan x="12.1083261" y="35">Inactive</tspan>
                </text>
                <g id="icon-wifi-off" transform="translate(14.000000, 0.000000)" stroke="#FFFFFF">
                    <g id="noun_1029625_cc">
                        <path d="M15.0012393,0.0411798726 C20.5281665,0.170602329 25.2962075,2.02957944 29.2700652,5.81224488 C29.878939,6.40052877 29.8583491,7.28295461 29.2377095,7.93889115 C28.6819894,8.51609767 27.7664859,8.54225491 27.1787159,7.99771954 C24.5186668,5.38379986 21.0768235,3.71142764 17.3779062,3.23556142 C12.0833512,2.54432784 7.41825991,4.02680326 3.37969097,7.50356107 C3.2032058,7.65651488 3.03554489,7.82417579 2.86200115,7.98007103 C2.57630966,8.26615769 2.18396733,8.41968853 1.77998387,8.40348449 C1.37600041,8.38728045 0.997215177,8.20281918 0.735354868,7.89476986 C0.443161267,7.61442046 0.282676138,7.22389173 0.293313928,6.81909582 C0.303951718,6.41429991 0.484726885,6.03273929 0.791241838,5.76812358 C1.46507363,5.14467427 2.16995047,4.5556407 2.90318102,4.0032719 C5.8198913,1.86583983 9.25382477,0.544861873 12.8510617,0.176485168 C13.5775923,0.0970668426 14.3158886,0.0823597452 15.0012393,0.0411798726 Z" id="Shape" stroke-width="2" fill-rule="nonzero"></path>
                        <path d="M15.0218292,5.64458397 C18.8500758,5.66948505 22.5274457,7.14043297 25.3167974,9.76257123 C25.724582,10.0958411 25.9331076,10.6148533 25.8692543,11.1376151 C25.805401,11.6603769 25.4780794,12.1139373 25.0020655,12.3392547 C24.460599,12.6236056 23.797522,12.5261641 23.3607534,12.0980583 C21.6923718,10.4445539 19.5662058,9.32972566 17.257308,8.8977939 C13.2363876,8.16832187 9.70668426,9.26841276 6.72408491,12.0421713 C6.26593695,12.5409916 5.52636634,12.6624317 4.93276045,12.3363133 C4.30204153,12.0033149 3.98672157,11.2773457 4.17387423,10.5891101 C4.25431413,10.3272587 4.39889963,10.0896532 4.59449721,9.89787652 C7.50356107,7.11235228 10.9891431,5.72694371 15.0218292,5.64458397 Z" id="Shape" stroke-width="2" fill-rule="nonzero"></path>
                        <path d="M14.8688754,11.233281 C17.5749813,11.303875 19.7898702,12.1892423 21.6194331,13.9952738 C22.2694868,14.6365033 22.2341898,15.5130463 21.5517805,16.1895728 C21.2725059,16.4571636 20.8979035,16.6020979 20.5112508,16.5921554 C20.1245981,16.5822129 19.7579396,16.4182176 19.4927868,16.1366272 C18.3135871,14.9413837 16.7053889,14.2673171 15.0263679,14.2645546 C13.3473469,14.2617922 11.7369394,14.9305633 10.5538131,16.1219201 C10.1320812,16.5940686 9.45552893,16.7433604 8.87426255,16.492539 C8.27784318,16.2284167 7.90673187,15.6231657 7.94183257,14.9718251 C7.96662645,14.6708454 8.08257199,14.3845728 8.27421297,14.1511691 C9.67288799,12.6422283 11.5470172,11.6589594 13.5834751,11.3656448 C14.0599851,11.2862265 14.5394364,11.2656366 14.8688754,11.233281 Z" id="Shape" stroke-width="2" fill-rule="nonzero"></path>
                        <path d="M15.0277121,16.4425348 C16.3368409,16.4533113 17.5104651,17.2519257 18.0009645,18.4657398 C18.4914639,19.679554 18.2021642,21.0693325 17.2680543,21.9865964 C16.3339444,22.9038604 14.9391317,23.1678226 13.734444,22.6553167 C12.5297564,22.1428109 11.7526305,20.9548489 11.7656779,19.6457407 C11.7930428,17.8651595 13.2469278,16.4374942 15.0277121,16.4425348 L15.0277121,16.4425348 Z" id="Shape" stroke-width="2" fill-rule="nonzero"></path>
                    </g>
                </g>
            </g>
        </g>
    </g>
</svg>