<?xml version="1.0" encoding="UTF-8" standalone="no"?>
<svg width="15px" height="8px" viewBox="0 0 15 8" version="1.1" xmlns="http://www.w3.org/2000/svg" xmlns:xlink="http://www.w3.org/1999/xlink">
    <!-- Generator: Sketch 47.1 (45422) - http://www.bohemiancoding.com/sketch -->
    <title>sort copy 2</title>
    <desc>Created with Sketch.</desc>
    <defs></defs>
    <g id="Welcome" stroke="none" stroke-width="1" fill="none" fill-rule="evenodd">
        <g id="001-device-dashboard-all-UI" transform="translate(-323.000000, -426.000000)">
            <g id="Group-11" transform="translate(135.000000, 368.000000)">
                <g id="Group-4">
                    <g id="table" transform="translate(0.000000, 42.000000)">
                        <g id="top-column-headers" transform="translate(21.000000, 12.000000)">
                            <g id="sort-copy-2" transform="translate(174.500000, 8.000000) scale(1, -1) translate(-174.500000, -8.000000) translate(166.000000, 3.000000)">
                                <g id="Arrow-Copy" transform="translate(0.000000, 1.000000)">
                                    <path d="M7,2.90909091 L7,2 L2,2 L2,7 L2.90909091,7 L2.90909091,2.90909091 L7,2.90909091 Z" id="Combined-Shape" fill="#FFFFFF" fill-rule="evenodd" transform="translate(4.500000, 4.500000) scale(1, -1) rotate(45.000000) translate(-4.500000, -4.500000) "></path>
                                    <path d="M4.5,0.5 L4.5,6.5" id="Line-Copy-13" stroke="#FFFFFF" stroke-width="1" stroke-linecap="square"></path>
                                </g>
                                <g id="Arrow" opacity="0.503031716" transform="translate(12.500000, 4.500000) scale(1, -1) translate(-12.500000, -4.500000) translate(8.000000, 0.000000)">
                                    <path d="M7,2.90909091 L7,2 L2,2 L2,7 L2.90909091,7 L2.90909091,2.90909091 L7,2.90909091 Z" id="Combined-Shape" fill="#92BDD9" fill-rule="evenodd" transform="translate(4.500000, 4.500000) scale(1, -1) rotate(45.000000) translate(-4.500000, -4.500000) "></path>
                                    <path d="M4.5,0.5 L4.5,6.5" id="Line-Copy-13" stroke="#92BDD9" stroke-width="1" stroke-linecap="square"></path>
                                </g>
                            </g>
                        </g>
                    </g>
                </g>
            </g>
        </g>
    </g>
</svg>