<?xml version="1.0" encoding="UTF-8" standalone="no"?>
<svg width="38px" height="49px" viewBox="0 0 38 49" version="1.1" xmlns="http://www.w3.org/2000/svg" xmlns:xlink="http://www.w3.org/1999/xlink">
    <!-- Generator: Sketch 47.1 (45422) - http://www.bohemiancoding.com/sketch -->
    <title>tab-devices-selected</title>
    <desc>Created with Sketch.</desc>
    <defs></defs>
    <g id="Page-1" stroke="none" stroke-width="1" fill="none" fill-rule="evenodd">
        <g id="tab-devices-selected" transform="translate(-1.000000, 1.000000)" fill="#FFFFFF">
            <g id="DEVICES" transform="translate(0.000000, 36.000000)">
                <path d="M1.12109375,11 L1.12109375,3.99804688 L3.14257813,3.99804688 C5.72397124,3.99804688 7.01464844,5.13573081 7.01464844,7.41113281 C7.01464844,8.49186738 6.6565791,9.36018552 5.94042969,10.0161133 C5.22428027,10.672041 4.26400342,11 3.05957031,11 L1.12109375,11 Z M2.27832031,4.984375 L2.27832031,10.0185547 L3.20605469,10.0185547 C4.02311606,10.0185547 4.65868914,9.79394756 5.11279297,9.34472656 C5.5668968,8.89550557 5.79394531,8.26074629 5.79394531,7.44042969 C5.79394531,5.80305171 4.94597202,4.984375 3.25,4.984375 L2.27832031,4.984375 Z M12.2246094,11 L8.29394531,11 L8.29394531,3.99804688 L12.0683594,3.99804688 L12.0683594,4.984375 L9.45605469,4.984375 L9.45605469,6.96679688 L11.8632813,6.96679688 L11.8632813,7.94824219 L9.45605469,7.94824219 L9.45605469,10.0185547 L12.2246094,10.0185547 L12.2246094,11 Z M18.9580078,3.99804688 L16.4433594,11 L15.1445313,11 L12.6738281,3.99804688 L13.9433594,3.99804688 L15.671875,9.31054688 C15.7272138,9.47981855 15.7695311,9.67675669 15.7988281,9.90136719 L15.8183594,9.90136719 C15.8411459,9.71581938 15.888346,9.51562607 15.9599609,9.30078125 L17.7275391,3.99804688 L18.9580078,3.99804688 Z M21.0478516,3.99804688 L21.0478516,11 L19.8857422,11 L19.8857422,3.99804688 L21.0478516,3.99804688 Z M27.6591797,10.7070312 C27.1318333,10.9804701 26.4759154,11.1171875 25.6914063,11.1171875 C24.6757762,11.1171875 23.8619822,10.7965527 23.25,10.1552734 C22.6380178,9.51399419 22.3320313,8.67253125 22.3320313,7.63085938 C22.3320313,6.51106211 22.6762661,5.60612324 23.3647461,4.91601562 C24.0532261,4.22590801 24.9231718,3.88085938 25.9746094,3.88085938 C26.6516961,3.88085938 27.2132139,3.97688706 27.6591797,4.16894531 L27.6591797,5.32128906 C27.1871721,5.04133975 26.666344,4.90136719 26.0966797,4.90136719 C25.3382124,4.90136719 24.7237979,5.14387778 24.253418,5.62890625 C23.783038,6.11393472 23.5478516,6.7617147 23.5478516,7.57226562 C23.5478516,8.34375386 23.7675759,8.95816829 24.2070313,9.41552734 C24.6464866,9.8728864 25.2242803,10.1015625 25.9404297,10.1015625 C26.6012403,10.1015625 27.1741512,9.94531406 27.6591797,9.6328125 L27.6591797,10.7070312 Z M32.9179688,11 L28.9873047,11 L28.9873047,3.99804688 L32.7617188,3.99804688 L32.7617188,4.984375 L30.1494141,4.984375 L30.1494141,6.96679688 L32.5566406,6.96679688 L32.5566406,7.94824219 L30.1494141,7.94824219 L30.1494141,10.0185547 L32.9179688,10.0185547 L32.9179688,11 Z M33.9335938,10.7216797 L33.9335938,9.52539062 C34.0410162,9.62304736 34.1687818,9.71093711 34.3168945,9.7890625 C34.4650073,9.86718789 34.6220695,9.9331052 34.7880859,9.98681641 C34.9541024,10.0405276 35.1201164,10.0820311 35.2861328,10.1113281 C35.4521493,10.1406251 35.6051425,10.1552734 35.7451172,10.1552734 C36.2334009,10.1552734 36.5971668,10.073894 36.8364258,9.91113281 C37.0756848,9.74837158 37.1953125,9.51237134 37.1953125,9.203125 C37.1953125,9.03710854 37.1554366,8.89306702 37.0756836,8.77099609 C36.9959306,8.64892517 36.8844408,8.5374354 36.7412109,8.43652344 C36.5979811,8.33561147 36.4295257,8.23877 36.2358398,8.14599609 C36.042154,8.05322219 35.8346365,7.95638071 35.6132813,7.85546875 C35.3756499,7.72851499 35.1542979,7.59993555 34.9492188,7.46972656 C34.7441396,7.33951758 34.5659187,7.19547605 34.4145508,7.03759766 C34.2631828,6.87971926 34.1443689,6.70149839 34.0581055,6.50292969 C33.971842,6.30436099 33.9287109,6.07161592 33.9287109,5.8046875 C33.9287109,5.47590981 34.0027662,5.19026814 34.1508789,4.94775391 C34.2989916,4.70523967 34.4943022,4.50504636 34.7368164,4.34716797 C34.9793306,4.18928958 35.2552068,4.07210325 35.5644531,3.99560547 C35.8736995,3.91910769 36.1894515,3.88085938 36.5117188,3.88085938 C37.2441443,3.88085938 37.7779931,3.96386636 38.1132813,4.12988281 L38.1132813,5.27734375 C37.7161438,4.99088398 37.2050813,4.84765625 36.5800781,4.84765625 C36.4075512,4.84765625 36.2358407,4.86393213 36.0649414,4.89648438 C35.8940421,4.92903662 35.7410489,4.98274702 35.605957,5.05761719 C35.4708652,5.13248735 35.361003,5.22851504 35.2763672,5.34570312 C35.1917313,5.46289121 35.1494141,5.60449136 35.1494141,5.77050781 C35.1494141,5.92675859 35.1819658,6.06184839 35.2470703,6.17578125 C35.3121748,6.28971411 35.4073887,6.39387974 35.5327148,6.48828125 C35.658041,6.58268276 35.8110343,6.67464148 35.9916992,6.76416016 C36.1723642,6.85367883 36.3815092,6.95052031 36.6191406,7.0546875 C36.8632825,7.18164126 37.0935862,7.31510347 37.3100586,7.45507812 C37.526531,7.59505278 37.7169588,7.74967363 37.8813477,7.91894531 C38.0457365,8.08821699 38.1759435,8.27620339 38.2719727,8.48291016 C38.3680018,8.68961692 38.4160156,8.92480337 38.4160156,9.18847656 C38.4160156,9.54329604 38.3444018,9.84277222 38.2011719,10.0869141 C38.057942,10.3310559 37.8650728,10.5296216 37.6225586,10.6826172 C37.3800444,10.8356127 37.100913,10.9462887 36.7851563,11.0146484 C36.4693995,11.0830082 36.1357439,11.1171875 35.7841797,11.1171875 C35.6669916,11.1171875 35.5229501,11.1082358 35.3520508,11.090332 C35.1811515,11.0724283 35.0061858,11.0463869 34.8271484,11.012207 C34.6481111,10.9780272 34.4788419,10.9365237 34.3193359,10.8876953 C34.1598299,10.8388669 34.0312505,10.783529 33.9335938,10.7216797 Z"></path>
            </g>
            <g id="noun_893146_cc" transform="translate(2.000000, 0.000000)" fill-rule="nonzero" stroke="#FFFFFF" stroke-width="0.25">
                <g id="Group">
                    <path d="M33.228,13.14 C32.832,13.14 32.436,13.248 32.04,13.428 L27.144,4.86 C27.792,4.356 28.188,3.564 28.188,2.736 C28.188,1.26 26.964,0.036 25.488,0.036 C24.084,0.036 22.968,1.08 22.788,2.448 L13.212,2.448 C13.068,1.08 11.916,0.036 10.512,0.036 C9.036,0.036 7.812,1.26 7.812,2.736 C7.812,3.564 8.208,4.356 8.856,4.86 L3.924,13.392 C3.564,13.212 3.168,13.104 2.736,13.104 C1.26,13.104 0.036,14.328 0.036,15.804 C0.036,17.28 1.26,18.504 2.736,18.504 C3.132,18.504 3.528,18.396 3.924,18.216 L8.856,26.748 C8.208,27.252 7.812,28.044 7.812,28.872 C7.812,30.348 9.036,31.572 10.512,31.572 C11.916,31.572 13.032,30.528 13.212,29.16 L22.788,29.16 C22.932,30.528 24.084,31.572 25.488,31.572 C26.964,31.572 28.188,30.348 28.188,28.872 C28.188,28.044 27.792,27.252 27.144,26.748 L32.076,18.216 C32.436,18.396 32.832,18.504 33.264,18.504 C34.74,18.504 35.964,17.28 35.964,15.804 C35.928,14.364 34.74,13.14 33.228,13.14 Z M25.488,0.648 C26.64,0.648 27.612,1.584 27.612,2.772 C27.612,3.492 27.252,4.176 26.604,4.572 C26.604,4.572 26.604,4.572 26.604,4.572 C26.28,4.788 25.884,4.896 25.488,4.896 C24.336,4.896 23.364,3.96 23.364,2.772 C23.364,1.584 24.336,0.648 25.488,0.648 Z M8.424,2.736 C8.424,1.584 9.36,0.612 10.548,0.612 C11.736,0.612 12.672,1.548 12.672,2.736 C12.672,3.924 11.736,4.86 10.548,4.86 C10.152,4.86 9.792,4.752 9.432,4.536 C8.784,4.14 8.424,3.492 8.424,2.736 Z M0.648,15.84 C0.648,14.688 1.584,13.716 2.772,13.716 C3.168,13.716 3.564,13.824 3.888,14.04 C3.888,14.04 3.888,14.04 3.888,14.04 C4.5,14.436 4.86,15.084 4.86,15.804 C4.86,16.524 4.5,17.208 3.888,17.568 C3.564,17.784 3.168,17.892 2.772,17.892 C1.62,17.964 0.648,16.992 0.648,15.84 Z M10.512,31.032 C9.36,31.032 8.388,30.096 8.388,28.908 C8.388,28.188 8.748,27.504 9.396,27.108 C9.72,26.892 10.116,26.784 10.512,26.784 C11.664,26.784 12.636,27.72 12.636,28.908 C12.636,30.096 11.664,31.032 10.512,31.032 Z M27.576,28.944 C27.576,30.096 26.64,31.068 25.452,31.068 C24.264,31.068 23.328,30.132 23.328,28.944 C23.328,27.756 24.264,26.82 25.452,26.82 C25.848,26.82 26.208,26.928 26.568,27.144 C26.568,27.144 26.568,27.144 26.568,27.144 C27.216,27.54 27.576,28.188 27.576,28.944 Z M26.64,26.496 C26.28,26.316 25.884,26.244 25.488,26.244 C24.084,26.244 22.932,27.288 22.788,28.656 L13.212,28.656 C13.068,27.288 11.916,26.244 10.512,26.244 C10.116,26.244 9.72,26.316 9.36,26.496 L4.428,17.964 C5.076,17.46 5.436,16.668 5.436,15.84 C5.436,15.012 5.04,14.22 4.428,13.716 L9.36,5.184 C9.72,5.364 10.116,5.436 10.512,5.436 C11.916,5.436 13.068,4.392 13.212,3.024 L22.788,3.024 C22.932,4.392 24.084,5.436 25.488,5.436 C25.884,5.436 26.28,5.364 26.64,5.184 L31.572,13.716 C30.924,14.22 30.564,15.012 30.564,15.84 C30.564,16.668 30.924,17.46 31.572,17.964 L26.64,26.496 Z M33.228,17.964 C32.832,17.964 32.436,17.856 32.112,17.64 C31.5,17.244 31.14,16.596 31.14,15.876 C31.14,15.156 31.5,14.472 32.112,14.112 C32.112,14.112 32.112,14.112 32.112,14.112 C32.436,13.896 32.832,13.788 33.228,13.788 C34.38,13.788 35.352,14.724 35.352,15.912 C35.352,17.1 34.38,17.964 33.228,17.964 Z" id="Shape"></path>
                    <path d="M18.18,15.732 C16.74,15.732 15.372,16.308 14.328,17.316 C14.22,17.424 14.22,17.604 14.328,17.748 C14.436,17.892 14.652,17.856 14.76,17.748 C15.66,16.848 16.884,16.344 18.18,16.344 C19.476,16.344 20.7,16.848 21.6,17.748 C21.672,17.82 21.744,17.82 21.816,17.82 C21.888,17.82 21.96,17.784 22.032,17.748 C22.14,17.64 22.14,17.46 22.032,17.316 C21.024,16.308 19.656,15.732 18.18,15.732 Z" id="Shape"></path>
                    <path d="M12.096,15.084 C11.988,15.192 11.988,15.408 12.096,15.516 C12.204,15.624 12.42,15.624 12.528,15.516 C15.66,12.384 20.772,12.384 23.904,15.516 C23.976,15.588 24.048,15.588 24.12,15.588 C24.192,15.588 24.264,15.552 24.336,15.516 C24.444,15.408 24.444,15.192 24.336,15.084 C20.916,11.7 15.444,11.7 12.096,15.084 Z" id="Shape"></path>
                    <path d="M9.72,12.708 C9.612,12.816 9.612,13.032 9.72,13.14 C9.828,13.248 10.044,13.248 10.152,13.14 C14.58,8.712 21.78,8.712 26.208,13.14 C26.28,13.212 26.352,13.212 26.424,13.212 C26.496,13.212 26.568,13.176 26.64,13.14 C26.748,13.032 26.748,12.816 26.64,12.708 C21.996,8.064 14.4,8.064 9.72,12.708 Z" id="Shape"></path>
                    <circle id="Oval" cx="18.252" cy="20.664" r="1.512"></circle>
                </g>
            </g>
        </g>
    </g>
</svg>