<?xml version="1.0" encoding="UTF-8" standalone="no"?>
<svg width="32px" height="48px" viewBox="0 0 32 48" version="1.1" xmlns="http://www.w3.org/2000/svg" xmlns:xlink="http://www.w3.org/1999/xlink">
    <!-- Generator: Sketch 47.1 (45422) - http://www.bohemiancoding.com/sketch -->
    <title>map</title>
    <desc>Created with Sketch.</desc>
    <defs></defs>
    <g id="Symbols" stroke="none" stroke-width="1" fill="none" fill-rule="evenodd" opacity="0.5">
        <g id="tab-nav-devices" transform="translate(-17.000000, -80.000000)" fill="#F0F3F3">
            <g id="tab-nav" transform="translate(-5.000000, 0.000000)">
                <g id="map" transform="translate(0.000000, 71.000000)">
                    <g transform="translate(21.000000, 9.000000)">
                        <g id="noun_1152314_cc" transform="translate(1.000000, 0.000000)" fill-rule="nonzero">
                            <g id="Group">
                                <path d="M15.9886364,0.13168 C12.1865585,0.13168 9.09090909,3.07868 9.09090909,6.94985818 C9.09090909,7.86422182 9.33139891,9.12153091 9.63636364,9.92713091 C11.6390862,14.1050582 13.6580738,18.2845818 15.6704545,22.4612 C15.7867469,22.7103636 16.2132531,22.7103636 16.3295455,22.4612 C18.3137851,18.2714545 20.3977564,14.1222218 22.3636364,9.92713091 C22.6706073,9.12044 22.9090909,7.86411273 22.9090909,6.94985818 C22.8875636,2.57332 19.34728,0.131687273 15.9886364,0.13168 Z M15.9886364,0.858952727 C19.4171164,0.858952727 22.1818182,3.46488364 22.1818182,6.94985818 C22.1818182,7.71582182 21.94796,8.95738545 21.6931818,9.64305818 C19.7174655,13.7628764 17.6979993,17.9474909 16,21.4725818 C14.1288484,17.5171636 12.16074,13.6057855 10.3068182,9.64305818 C10.0530702,8.95673091 9.81818182,7.71498545 9.81818182,6.94985818 C9.81818182,3.46380727 12.5601985,0.858952727 15.9886364,0.858952727 Z M16,3.04077091 C13.7952102,3.04077091 12,4.83595636 12,7.04076727 C12,9.24553091 13.7952055,11.0407673 16,11.0407673 C18.2048436,11.0407673 20,9.24553091 20,7.04076727 C20,4.83596 18.2048389,3.04077091 16,3.04077091 Z M16,3.76804364 C17.8117865,3.76804364 19.2727273,5.22901455 19.2727273,7.04076727 C19.2727273,8.85247636 17.8117818,10.3134945 16,10.3134945 C14.1882782,10.3134945 12.7272727,8.85247636 12.7272727,7.04076727 C12.7272727,5.22901818 14.1882735,3.76804364 16,3.76804364 Z M2.90909091,14.6771273 C2.69428618,14.6771273 2.56580436,14.8166545 2.54545455,14.9839636 L0.363636364,29.5293818 C0.330690909,29.7377091 0.516379636,29.9524 0.727272691,29.9498545 L31.2727273,29.9498545 C31.4836218,29.9534909 31.6693091,29.7377091 31.6363636,29.5293818 L29.4545455,14.9839636 C29.4275273,14.8132 29.2637709,14.6750182 29.0909091,14.6771273 L21.3068182,14.6771273 C21.1890655,14.9203273 21.0724982,15.1614182 20.9545455,15.4044 L28.7727273,15.4044 L29.3181818,19.0407636 L19.25,19.0407636 L18.875,19.6771273 L26.5113636,29.2225818 L14.7159091,29.2225818 L9.875,23.1657455 L13.375,20.2112 C13.263092,19.9793091 13.1460269,19.7499636 13.0340909,19.5180364 L9.40909091,22.5862182 L3.67045455,15.4044 L11.0568182,15.4044 C10.9397945,15.1617091 10.8215105,14.9198545 10.7045455,14.6771273 L2.90909091,14.6771273 L2.90909091,14.6771273 Z M3.14772727,15.9271273 L13.7840909,29.2225818 L1.14772724,29.2225818 L3.14772727,15.9271273 Z M19.8863636,19.7680364 L29.4318182,19.7680364 L30.0909091,24.1316727 L23.375,24.1316727 L19.8863636,19.7680364 Z M23.9545455,24.8589455 L30.1931818,24.8589455 L30.8522727,29.2225818 L27.4431818,29.2225818 L23.9545455,24.8589455 Z" id="Shape"></path>
                            </g>
                        </g>
                        <text id="MAP" font-family="SegoeWP-Semibold, Segoe WP" font-size="10" font-weight="500">
                            <tspan x="6.59912109" y="48">MAP</tspan>
                        </text>
                    </g>
                </g>
            </g>
        </g>
    </g>
</svg>