<?xml version="1.0" encoding="UTF-8" standalone="no"?>
<svg width="38px" height="49px" viewBox="0 0 38 49" version="1.1" xmlns="http://www.w3.org/2000/svg" xmlns:xlink="http://www.w3.org/1999/xlink">
    <!-- Generator: Sketch 47.1 (45422) - http://www.bohemiancoding.com/sketch -->
    <title>Group 3</title>
    <desc>Created with Sketch.</desc>
    <defs></defs>
    <g id="Symbols" stroke="none" stroke-width="1" fill="none" fill-rule="evenodd" opacity="0.5">
        <g id="tab-nav-map" transform="translate(-14.000000, -9.000000)">
            <g id="tab-nav" transform="translate(-5.000000, 0.000000)">
                <g id="Devices">
                    <g id="Group-3" transform="translate(18.000000, 10.000000)">
                        <text id="DEVICES" font-family="SegoeWP-Semibold, Segoe WP" font-size="10" font-weight="500" fill="#F0F3F3">
                            <tspan x="0.256835938" y="47">DEVICES</tspan>
                        </text>
                        <g id="noun_893146_cc" transform="translate(2.000000, 0.000000)" fill-rule="nonzero" stroke="#FFFFFF" stroke-width="0.25" fill="#FFFFFF">
                            <g id="Group">
                                <path d="M33.228,13.14 C32.832,13.14 32.436,13.248 32.04,13.428 L27.144,4.86 C27.792,4.356 28.188,3.564 28.188,2.736 C28.188,1.26 26.964,0.036 25.488,0.036 C24.084,0.036 22.968,1.08 22.788,2.448 L13.212,2.448 C13.068,1.08 11.916,0.036 10.512,0.036 C9.036,0.036 7.812,1.26 7.812,2.736 C7.812,3.564 8.208,4.356 8.856,4.86 L3.924,13.392 C3.564,13.212 3.168,13.104 2.736,13.104 C1.26,13.104 0.036,14.328 0.036,15.804 C0.036,17.28 1.26,18.504 2.736,18.504 C3.132,18.504 3.528,18.396 3.924,18.216 L8.856,26.748 C8.208,27.252 7.812,28.044 7.812,28.872 C7.812,30.348 9.036,31.572 10.512,31.572 C11.916,31.572 13.032,30.528 13.212,29.16 L22.788,29.16 C22.932,30.528 24.084,31.572 25.488,31.572 C26.964,31.572 28.188,30.348 28.188,28.872 C28.188,28.044 27.792,27.252 27.144,26.748 L32.076,18.216 C32.436,18.396 32.832,18.504 33.264,18.504 C34.74,18.504 35.964,17.28 35.964,15.804 C35.928,14.364 34.74,13.14 33.228,13.14 Z M25.488,0.648 C26.64,0.648 27.612,1.584 27.612,2.772 C27.612,3.492 27.252,4.176 26.604,4.572 C26.604,4.572 26.604,4.572 26.604,4.572 C26.28,4.788 25.884,4.896 25.488,4.896 C24.336,4.896 23.364,3.96 23.364,2.772 C23.364,1.584 24.336,0.648 25.488,0.648 Z M8.424,2.736 C8.424,1.584 9.36,0.612 10.548,0.612 C11.736,0.612 12.672,1.548 12.672,2.736 C12.672,3.924 11.736,4.86 10.548,4.86 C10.152,4.86 9.792,4.752 9.432,4.536 C8.784,4.14 8.424,3.492 8.424,2.736 Z M0.648,15.84 C0.648,14.688 1.584,13.716 2.772,13.716 C3.168,13.716 3.564,13.824 3.888,14.04 C3.888,14.04 3.888,14.04 3.888,14.04 C4.5,14.436 4.86,15.084 4.86,15.804 C4.86,16.524 4.5,17.208 3.888,17.568 C3.564,17.784 3.168,17.892 2.772,17.892 C1.62,17.964 0.648,16.992 0.648,15.84 Z M10.512,31.032 C9.36,31.032 8.388,30.096 8.388,28.908 C8.388,28.188 8.748,27.504 9.396,27.108 C9.72,26.892 10.116,26.784 10.512,26.784 C11.664,26.784 12.636,27.72 12.636,28.908 C12.636,30.096 11.664,31.032 10.512,31.032 Z M27.576,28.944 C27.576,30.096 26.64,31.068 25.452,31.068 C24.264,31.068 23.328,30.132 23.328,28.944 C23.328,27.756 24.264,26.82 25.452,26.82 C25.848,26.82 26.208,26.928 26.568,27.144 C26.568,27.144 26.568,27.144 26.568,27.144 C27.216,27.54 27.576,28.188 27.576,28.944 Z M26.64,26.496 C26.28,26.316 25.884,26.244 25.488,26.244 C24.084,26.244 22.932,27.288 22.788,28.656 L13.212,28.656 C13.068,27.288 11.916,26.244 10.512,26.244 C10.116,26.244 9.72,26.316 9.36,26.496 L4.428,17.964 C5.076,17.46 5.436,16.668 5.436,15.84 C5.436,15.012 5.04,14.22 4.428,13.716 L9.36,5.184 C9.72,5.364 10.116,5.436 10.512,5.436 C11.916,5.436 13.068,4.392 13.212,3.024 L22.788,3.024 C22.932,4.392 24.084,5.436 25.488,5.436 C25.884,5.436 26.28,5.364 26.64,5.184 L31.572,13.716 C30.924,14.22 30.564,15.012 30.564,15.84 C30.564,16.668 30.924,17.46 31.572,17.964 L26.64,26.496 Z M33.228,17.964 C32.832,17.964 32.436,17.856 32.112,17.64 C31.5,17.244 31.14,16.596 31.14,15.876 C31.14,15.156 31.5,14.472 32.112,14.112 C32.112,14.112 32.112,14.112 32.112,14.112 C32.436,13.896 32.832,13.788 33.228,13.788 C34.38,13.788 35.352,14.724 35.352,15.912 C35.352,17.1 34.38,17.964 33.228,17.964 Z" id="Shape"></path>
                                <path d="M18.18,15.732 C16.74,15.732 15.372,16.308 14.328,17.316 C14.22,17.424 14.22,17.604 14.328,17.748 C14.436,17.892 14.652,17.856 14.76,17.748 C15.66,16.848 16.884,16.344 18.18,16.344 C19.476,16.344 20.7,16.848 21.6,17.748 C21.672,17.82 21.744,17.82 21.816,17.82 C21.888,17.82 21.96,17.784 22.032,17.748 C22.14,17.64 22.14,17.46 22.032,17.316 C21.024,16.308 19.656,15.732 18.18,15.732 Z" id="Shape"></path>
                                <path d="M12.096,15.084 C11.988,15.192 11.988,15.408 12.096,15.516 C12.204,15.624 12.42,15.624 12.528,15.516 C15.66,12.384 20.772,12.384 23.904,15.516 C23.976,15.588 24.048,15.588 24.12,15.588 C24.192,15.588 24.264,15.552 24.336,15.516 C24.444,15.408 24.444,15.192 24.336,15.084 C20.916,11.7 15.444,11.7 12.096,15.084 Z" id="Shape"></path>
                                <path d="M9.72,12.708 C9.612,12.816 9.612,13.032 9.72,13.14 C9.828,13.248 10.044,13.248 10.152,13.14 C14.58,8.712 21.78,8.712 26.208,13.14 C26.28,13.212 26.352,13.212 26.424,13.212 C26.496,13.212 26.568,13.176 26.64,13.14 C26.748,13.032 26.748,12.816 26.64,12.708 C21.996,8.064 14.4,8.064 9.72,12.708 Z" id="Shape"></path>
                                <circle id="Oval" cx="18.252" cy="20.664" r="1.512"></circle>
                            </g>
                        </g>
                    </g>
                </g>
            </g>
        </g>
    </g>
</svg>