<?xml version="1.0" encoding="UTF-8" standalone="no"?>
<svg width="38px" height="49px" viewBox="0 0 38 49" version="1.1" xmlns="http://www.w3.org/2000/svg" xmlns:xlink="http://www.w3.org/1999/xlink">
    <!-- Generator: Sketch 48.1 (47250) - http://www.bohemiancoding.com/sketch -->
    <title>tab-groups-selected</title>
    <desc>Created with Sketch.</desc>
    <defs></defs>
    <g id="Page-1" stroke="none" stroke-width="1" fill="none" fill-rule="evenodd">
        <g id="tab-groups-selected" fill="#FFFFFF">
            <path d="M19.5955435,21.4537491 C17.2352015,21.4537491 15.322418,23.3671643 15.322418,25.7268746 C15.322418,28.0872165 17.2355174,30 19.5955435,30 C21.9555696,30 23.8686689,28.0869007 23.8686689,25.7268746 C23.8686689,23.3668485 21.9558854,21.4537491 19.5955435,21.4537491 Z M19.5955435,8.54625087 C21.9558854,8.54625087 23.8686689,6.63315154 23.8686689,4.27312543 C23.8686689,1.91309932 21.9555696,0 19.5955435,0 C17.2355174,0 15.322418,1.91309932 15.322418,4.27312543 C15.322418,6.63346739 17.2352015,8.54625087 19.5955435,8.54625087 Z M31.0314998,13.4059085 C33.0826252,12.2382136 33.7986556,9.62898233 32.6306449,7.57785686 C31.4632658,5.52673138 28.8543504,4.81101682 26.8029091,5.97871176 C24.7524153,7.14640669 24.0357532,9.75563791 25.203764,11.8067634 C26.3717748,13.8578889 28.981006,14.5736034 31.0314998,13.4059085 Z M8.1595872,16.5940915 C6.10877755,17.7617864 5.39274715,20.3713335 6.56044208,22.4221431 C7.7278212,24.4729528 10.3373682,25.1889832 12.387862,24.0212882 C14.4389875,22.8535933 15.1550179,20.2446779 13.9870071,18.1932366 C12.8199439,16.1421111 10.2103968,15.4263966 8.1595872,16.5940915 Z M19.5955435,9.54243962 C16.5813934,9.54243962 14.1379831,11.9855341 14.1379831,15 C14.1379831,18.0144659 16.5813934,20.4575604 19.5955435,20.4575604 C22.6100094,20.4575604 25.0531038,18.0144659 25.0531038,15 C25.0531038,11.9855341 22.6100094,9.54243962 19.5955435,9.54243962 Z M8.1873819,13.2173464 C10.2186089,14.4188373 12.8395265,13.7460782 14.0407015,11.7145354 C15.2421923,9.68267672 14.5691174,7.06239077 12.5378904,5.86121581 C10.5063476,4.65940915 7.8857458,5.33248405 6.68457086,7.36434272 C5.4827642,9.39556969 6.15552325,12.0158556 8.1873819,13.2173464 Z M31.003705,16.7823377 C28.9721622,15.5808469 26.3518762,16.2539218 25.1503854,18.2854646 C23.9485788,20.3166916 24.6216537,22.9376092 26.6531965,24.1384683 C28.6844235,25.340275 31.3053411,24.667516 32.5065161,22.6356573 C33.7083227,20.6041145 33.0352478,17.9838285 31.003705,16.7823377 Z" id="Shape" fill-rule="nonzero"></path>
            <g id="GROUPS" transform="translate(0.000000, 40.000000)">
                <path d="M6.28955078,7.52148438 C5.56038047,7.91862178 4.74821411,8.1171875 3.85302734,8.1171875 C2.81786592,8.1171875 1.97965815,7.7949251 1.3383789,7.15039062 C0.697099657,6.50585615 0.376464842,5.6530001 0.376464842,4.59179688 C0.376464842,3.50780708 0.727210033,2.6183303 1.42871094,1.92333984 C2.13021184,1.22834939 3.02131621,0.880859375 4.10205078,0.880859375 C4.88004946,0.880859375 5.53433979,0.994790527 6.0649414,1.22265625 L6.0649414,2.41894531 C5.52782934,2.06087061 4.8881873,1.88183594 4.14599609,1.88183594 C3.40054966,1.88183594 2.7893904,2.12760171 2.3125,2.61914062 C1.83560959,3.11067954 1.59716797,3.74706641 1.59716797,4.52832031 C1.59716797,5.33236079 1.80224404,5.96467869 2.21240234,6.42529297 C2.62256064,6.88590725 3.1791957,7.11621094 3.88232422,7.11621094 C4.36409746,7.11621094 4.78075996,7.02343843 5.13232422,6.83789062 L5.13232422,5.17285156 L3.65771484,5.17285156 L3.65771484,4.19628906 L6.28955078,4.19628906 L6.28955078,7.52148438 Z M13.2084961,8 L11.8510742,8 L10.7329102,6.125 C10.6319982,5.9524731 10.5335291,5.80517639 10.4375,5.68310547 C10.3414709,5.56103455 10.2438156,5.46093789 10.1445312,5.3828125 C10.0452469,5.30468711 9.9370123,5.24772153 9.81982422,5.21191406 C9.70263613,5.17610659 9.57080151,5.15820312 9.4243164,5.15820312 L8.9555664,5.15820312 L8.9555664,8 L7.79833984,8 L7.79833984,0.998046875 L10.1030273,0.998046875 C10.431805,0.998046875 10.7345364,1.03710898 11.0112305,1.11523438 C11.2879246,1.19335977 11.5288076,1.31135989 11.7338867,1.46923828 C11.9389659,1.62711667 12.0992833,1.82405481 12.2148437,2.06005859 C12.3304042,2.29606238 12.3881836,2.57193853 12.3881836,2.88769531 C12.3881836,3.13509238 12.3515629,3.36214089 12.2783203,3.56884766 C12.2050778,3.77555442 12.1009121,3.95947185 11.9658203,4.12060547 C11.8307285,4.28173909 11.6679697,4.41927026 11.4775391,4.53320312 C11.2871084,4.64713599 11.0730806,4.73502573 10.8354492,4.796875 L10.8354492,4.81640625 C10.962403,4.88802119 11.073079,4.9669592 11.1674805,5.05322266 C11.261882,5.13948611 11.3513993,5.22818965 11.4360352,5.31933594 C11.520671,5.41048223 11.6044918,5.51383406 11.6875,5.62939453 C11.7705082,5.744955 11.8624669,5.87923101 11.9633789,6.03222656 L13.2084961,8 Z M8.9555664,1.94042969 L8.9555664,4.21582031 L9.92236328,4.21582031 C10.1014006,4.21582031 10.2666008,4.18815132 10.4179687,4.1328125 C10.5693367,4.07747368 10.7003575,3.99772187 10.8110352,3.89355469 C10.9217128,3.7893875 11.0079749,3.66243564 11.0698242,3.51269531 C11.1316735,3.36295498 11.1625977,3.19531343 11.1625977,3.00976562 C11.1625977,2.67447749 11.0568044,2.41243584 10.8452148,2.22363281 C10.6336252,2.03482979 10.3292663,1.94042969 9.9321289,1.94042969 L8.9555664,1.94042969 Z M16.909668,8.1171875 C15.9005483,8.1171875 15.092451,7.79004233 14.4853516,7.13574219 C13.8782522,6.48144204 13.574707,5.63021357 13.574707,4.58203125 C13.574707,3.45572354 13.8839487,2.55729502 14.5024414,1.88671875 C15.1209341,1.21614248 15.9607694,0.880859375 17.0219727,0.880859375 C18.0050505,0.880859375 18.796872,1.20637695 19.3974609,1.85742188 C19.9980499,2.5084668 20.2983398,3.35969526 20.2983398,4.41113281 C20.2983398,5.55371665 19.9907257,6.45702793 19.3754883,7.12109375 C18.7602508,7.78515957 17.9383189,8.1171875 16.909668,8.1171875 Z M16.9633789,1.90136719 C16.3220997,1.90136719 15.8004577,2.14062261 15.3984375,2.61914062 C14.9964173,3.09765864 14.7954102,3.72753516 14.7954102,4.50878906 C14.7954102,5.28678774 14.9907207,5.91340908 15.3813477,6.38867188 C15.7719746,6.86393467 16.2830372,7.1015625 16.9145508,7.1015625 C17.585127,7.1015625 18.1140931,6.87532778 18.5014648,6.42285156 C18.8888366,5.97037534 19.0825195,5.33724365 19.0825195,4.5234375 C19.0825195,3.68684478 18.8945331,3.04069238 18.5185547,2.58496094 C18.1425762,2.12922949 17.6241895,1.90136719 16.9633789,1.90136719 Z M26.9682617,5.16796875 C26.9682617,7.13412441 26.0372814,8.1171875 24.175293,8.1171875 C22.3914299,8.1171875 21.4995117,7.17155894 21.4995117,5.28027344 L21.4995117,0.998046875 L22.6616211,0.998046875 L22.6616211,5.04101562 C22.6616211,6.41472041 23.1954699,7.1015625 24.2631836,7.1015625 C25.2918346,7.1015625 25.8061523,6.43913423 25.8061523,5.11425781 L25.8061523,0.998046875 L26.9682617,0.998046875 L26.9682617,5.16796875 Z M29.6000977,5.4609375 L29.6000977,8 L28.4428711,8 L28.4428711,0.998046875 L30.5668945,0.998046875 C31.370935,0.998046875 31.9943012,1.18521948 32.4370117,1.55957031 C32.8797223,1.93392114 33.1010742,2.46125962 33.1010742,3.14160156 C33.1010742,3.82194351 32.8699567,4.37857856 32.4077148,4.81152344 C31.9454729,5.24446831 31.3204792,5.4609375 30.5327148,5.4609375 L29.6000977,5.4609375 Z M29.6000977,1.95507812 L29.6000977,4.51367188 L30.3520508,4.51367188 C30.8501001,4.51367188 31.2293281,4.39811313 31.4897461,4.16699219 C31.7501641,3.93587124 31.8803711,3.61035366 31.8803711,3.19042969 C31.8803711,2.36685786 31.4018603,1.95507812 30.4448242,1.95507812 L29.6000977,1.95507812 Z M33.5356445,7.72167969 L33.5356445,6.52539062 C33.6430669,6.62304736 33.7708326,6.71093711 33.9189453,6.7890625 C34.067058,6.86718789 34.2241203,6.9331052 34.3901367,6.98681641 C34.5561532,7.04052761 34.7221671,7.0820311 34.8881836,7.11132812 C35.0542,7.14062515 35.2071933,7.15527344 35.347168,7.15527344 C35.8354517,7.15527344 36.1992176,7.07389404 36.4384766,6.91113281 C36.6777356,6.74837158 36.7973633,6.51237134 36.7973633,6.203125 C36.7973633,6.03710854 36.7574874,5.89306702 36.6777344,5.77099609 C36.5979814,5.64892517 36.4864916,5.5374354 36.3432617,5.43652344 C36.2000318,5.33561147 36.0315765,5.23877 35.8378906,5.14599609 C35.6442048,5.05322219 35.4366873,4.95638071 35.215332,4.85546875 C34.9777006,4.72851499 34.7563487,4.59993555 34.5512695,4.46972656 C34.3461904,4.33951758 34.1679695,4.19547605 34.0166016,4.03759766 C33.8652336,3.87971926 33.7464197,3.70149839 33.6601562,3.50292969 C33.5738928,3.30436099 33.5307617,3.07161592 33.5307617,2.8046875 C33.5307617,2.47590981 33.604817,2.19026814 33.7529297,1.94775391 C33.9010424,1.70523967 34.096353,1.50504636 34.3388672,1.34716797 C34.5813814,1.18928958 34.8572576,1.07210325 35.1665039,0.995605469 C35.4757502,0.91910769 35.7915023,0.880859375 36.1137695,0.880859375 C36.8461951,0.880859375 37.3800439,0.963866357 37.715332,1.12988281 L37.715332,2.27734375 C37.3181946,1.99088398 36.807132,1.84765625 36.1821289,1.84765625 C36.009602,1.84765625 35.8378915,1.86393213 35.6669922,1.89648438 C35.4960929,1.92903662 35.3430996,1.98274702 35.2080078,2.05761719 C35.072916,2.13248735 34.9630538,2.22851504 34.878418,2.34570312 C34.7937821,2.46289121 34.7514648,2.60449136 34.7514648,2.77050781 C34.7514648,2.92675859 34.7840166,3.06184839 34.8491211,3.17578125 C34.9142256,3.28971411 35.0094395,3.39387974 35.1347656,3.48828125 C35.2600918,3.58268276 35.413085,3.67464148 35.59375,3.76416016 C35.774415,3.85367883 35.98356,3.95052031 36.2211914,4.0546875 C36.4653333,4.18164126 36.6956369,4.31510347 36.9121094,4.45507812 C37.1285818,4.59505278 37.3190096,4.74967363 37.4833984,4.91894531 C37.6477873,5.08821699 37.7779943,5.27620339 37.8740234,5.48291016 C37.9700526,5.68961692 38.0180664,5.92480337 38.0180664,6.18847656 C38.0180664,6.54329604 37.9464525,6.84277222 37.8032227,7.08691406 C37.6599928,7.33105591 37.4671236,7.52962163 37.2246094,7.68261719 C36.9820951,7.83561274 36.7029638,7.94628872 36.387207,8.01464844 C36.0714502,8.08300815 35.7377947,8.1171875 35.3862305,8.1171875 C35.2690424,8.1171875 35.1250009,8.10823577 34.9541016,8.09033203 C34.7832023,8.0724283 34.6082366,8.04638689 34.4291992,8.01220703 C34.2501619,7.97802717 34.0808927,7.93652368 33.9213867,7.88769531 C33.7618807,7.83886694 33.6333013,7.78352896 33.5356445,7.72167969 Z"></path>
            </g>
        </g>
    </g>
</svg>