<?xml version="1.0" encoding="UTF-8" standalone="no"?>
<svg width="22px" height="22px" viewBox="0 0 22 22" version="1.1" xmlns="http://www.w3.org/2000/svg" xmlns:xlink="http://www.w3.org/1999/xlink">
    <!-- Generator: Sketch 45.2 (43514) - http://www.bohemiancoding.com/sketch -->
    <title>Group</title>
    <desc>Created with Sketch.</desc>
    <defs></defs>
    <g id="Page-1" stroke="none" stroke-width="1" fill="none" fill-rule="evenodd">
        <g id="Define-Your-Data-Types" transform="translate(-420.000000, -229.000000)" fill-rule="nonzero" fill="#4A4A4A">
            <g id="Group" transform="translate(420.000000, 229.000000)">
                <path d="M18.5387724,0.0957319136 C18.4900223,0.106709977 18.4455541,0.131723363 18.4108569,0.167684347 L6.83450982,11.7440187 C6.79409703,11.7851059 6.76873939,11.8386337 6.76254459,11.895931 L6.40276963,15.1577747 C6.39521457,15.2340563 6.42225939,15.3097065 6.47646253,15.3639096 C6.53066566,15.4181128 6.60631585,15.4451576 6.68259744,15.4376025 L9.93645918,15.0778276 C9.99478327,15.0694624 10.0484328,15.0412234 10.088346,14.9978804 L21.6727006,3.4215333 C21.7712443,3.32185691 21.7712443,3.16144752 21.6727006,3.06177113 L18.7785882,0.167684347 C18.7166469,0.103553388 18.6257874,0.0762926376 18.5387724,0.0957319136 L18.5387724,0.0957319136 Z M18.5947226,0.711324958 L21.1210525,3.24564957 L20.0417788,4.32493608 L17.5074414,1.79061146 L18.5947226,0.711324958 Z M17.1476664,2.15836835 L19.6820038,4.68469824 L10.088346,14.2783561 L7.55400857,11.7440187 L17.1476664,2.15836835 Z M0.510677672,2.65404067 C0.3412153,2.66555306 0.256995776,2.81254836 0.254846797,2.90987154 L0.254846797,21.3296946 C0.25487238,21.4636476 0.376724626,21.5855255 0.510677672,21.5855255 L18.9305006,21.5855255 C19.0644537,21.5855255 19.1863059,21.4636476 19.1863315,21.3296946 L19.1863315,10.3289669 C19.1888898,10.193814 19.0656816,10.0731386 18.9305006,10.0731386 C18.7953196,10.0731386 18.672751,10.193814 18.6746697,10.3289669 L18.6746697,21.0738637 L0.766508548,21.0738637 L0.766508548,3.16570242 L11.5114052,3.16570242 C11.6465607,3.16749324 11.7672361,3.0450449 11.7672361,2.90987154 C11.7672361,2.77469819 11.6465607,2.65212961 11.5114052,2.65404067 L0.510677672,2.65404067 Z M7.25023499,12.1597438 L9.68062831,14.5901627 L6.94641024,14.8939619 L7.25023499,12.1597438 Z" id="Shape"></path>
            </g>
        </g>
    </g>
</svg>