<?xml version="1.0" encoding="UTF-8" standalone="no"?>
<svg width="32px" height="32px" viewBox="0 0 32 32" version="1.1" xmlns="http://www.w3.org/2000/svg" xmlns:xlink="http://www.w3.org/1999/xlink">
    <!-- Generator: Sketch 45.2 (43514) - http://www.bohemiancoding.com/sketch -->
    <title>Add</title>
    <desc>Created with Sketch.</desc>
    <defs></defs>
    <g id="Page-1" stroke="none" stroke-width="1" fill="none" fill-rule="evenodd">
        <g id="Define-Your-Data-Types" transform="translate(-724.000000, -455.000000)" fill-rule="nonzero" fill="#417505">
            <g id="Product" transform="translate(216.000000, 441.000000)">
                <g id="Group-2" transform="translate(20.000000, 10.000000)">
                    <g id="Add" transform="translate(488.000000, 4.000000)">
                        <path d="M16,31.7894737 C24.7157895,31.7894737 31.7894737,24.7157895 31.7894737,16 C31.7894737,7.28421053 24.7157895,0.210526316 16,0.210526316 C7.28421053,0.210526316 0.210526316,7.28421053 0.210526316,16 C0.210526316,24.7157895 7.28421053,31.7894737 16,31.7894737 Z M16,1.47368421 C24,1.47368421 30.5263158,8 30.5263158,16 C30.5263158,24 24,30.5263158 16,30.5263158 C8,30.5263158 1.47368421,24 1.47368421,16 C1.47368421,8 8,1.47368421 16,1.47368421 Z" id="Shape"></path>
                        <path d="M8.84210526,16.8421053 L15.1578947,16.8421053 L15.1578947,23.1578947 C15.1578947,23.4947368 15.4526316,23.7894737 15.7894737,23.7894737 C16.1263158,23.7894737 16.4210526,23.4947368 16.4210526,23.1578947 L16.4210526,16.8421053 L23.1578947,16.8421053 C23.4947368,16.8421053 23.7894737,16.5473684 23.7894737,16.2105263 C23.7894737,15.8736842 23.4947368,15.5789474 23.1578947,15.5789474 L16.4210526,15.5789474 L16.4210526,8.84210526 C16.4210526,8.50526316 16.1263158,8.21052632 15.7894737,8.21052632 C15.4526316,8.21052632 15.1578947,8.50526316 15.1578947,8.84210526 L15.1578947,15.5789474 L8.84210526,15.5789474 C8.50526316,15.5789474 8.21052632,15.8736842 8.21052632,16.2105263 C8.21052632,16.5473684 8.50526316,16.8421053 8.84210526,16.8421053 Z" id="Shape"></path>
                    </g>
                </g>
            </g>
        </g>
    </g>
</svg>